<svg width="26" height="26" viewBox="0 0 26 26" fill="none" xmlns="http://www.w3.org/2000/svg">
<path d="M23.6229 10.8783H22.7503V10.8333H13.0003V15.1667H19.1228C18.2296 17.6892 15.8294 19.5 13.0003 19.5C9.4107 19.5 6.50033 16.5896 6.50033 13C6.50033 9.41038 9.4107 6.5 13.0003 6.5C14.6573 6.5 16.1647 7.12509 17.3125 8.14613L20.3767 5.08192C18.4419 3.27871 15.8538 2.16667 13.0003 2.16667C7.01762 2.16667 2.16699 7.0173 2.16699 13C2.16699 18.9827 7.01762 23.8333 13.0003 23.8333C18.983 23.8333 23.8337 18.9827 23.8337 13C23.8337 12.2736 23.7589 11.5646 23.6229 10.8783Z" fill="#FFC107"/>
<path d="M3.41602 7.95763L6.97531 10.5679C7.93839 8.1835 10.2708 6.5 13.0003 6.5C14.6572 6.5 16.1647 7.12509 17.3125 8.14613L20.3767 5.08192C18.4418 3.27871 15.8538 2.16667 13.0003 2.16667C8.83918 2.16667 5.2306 4.51588 3.41602 7.95763Z" fill="#FF3D00"/>
<path d="M12.9998 23.8333C15.7981 23.8333 18.3407 22.7625 20.2631 21.021L16.9101 18.1838C15.7861 19.0391 14.4123 19.5015 12.9998 19.5C10.1821 19.5 7.78955 17.7033 6.88822 15.1959L3.35547 17.9178C5.14839 21.4262 8.78947 23.8333 12.9998 23.8333Z" fill="#4CAF50"/>
<path d="M23.6226 10.8783H22.75V10.8333H13V15.1667H19.1225C18.6952 16.3672 17.9256 17.4163 16.9087 18.1843L16.9103 18.1832L20.2632 21.0205C20.026 21.236 23.8333 18.4167 23.8333 13C23.8333 12.2736 23.7586 11.5646 23.6226 10.8783Z" fill="#1976D2"/>
</svg>
