<svg width="300" height="300" viewBox="0 0 300 300" fill="none" xmlns="http://www.w3.org/2000/svg">
<rect width="300" height="300" fill="#F5F5F5"/>
<path d="M176.25 126.401L173.599 123.75L123.75 173.599L126.401 176.25L130.151 172.5H168.75C169.744 172.499 170.697 172.103 171.4 171.4C172.103 170.697 172.499 169.744 172.5 168.75V130.151L176.25 126.401ZM168.75 168.75H133.901L148.513 154.138L152.974 158.599C153.677 159.302 154.631 159.697 155.625 159.697C156.619 159.697 157.573 159.302 158.276 158.599L161.25 155.625L168.75 163.119V168.75ZM168.75 157.815L163.901 152.966C163.198 152.263 162.244 151.868 161.25 151.868C160.256 151.868 159.302 152.263 158.599 152.966L155.625 155.94L151.168 151.483L168.75 133.901V157.815ZM131.25 161.25V155.625L140.625 146.256L143.199 148.832L145.854 146.177L143.276 143.599C142.573 142.896 141.619 142.501 140.625 142.501C139.631 142.501 138.677 142.896 137.974 143.599L131.25 150.323V131.25H161.25V127.5H131.25C130.255 127.5 129.302 127.895 128.598 128.598C127.895 129.302 127.5 130.255 127.5 131.25V161.25H131.25Z" fill="#9F9F9F"/>
</svg>
