<svg width="212" height="25" viewBox="0 0 212 25" fill="none" xmlns="http://www.w3.org/2000/svg">
<path d="M3.41 5.475L5.51 3.255V12.42L4.46 11.1H12.62V14.7H4.46L5.51 13.38V22.62L3.41 20.4H14.285V24H0.83V1.875H14.285V5.475H3.41ZM25.4394 24.36C23.8394 24.36 22.4294 24.105 21.2094 23.595C19.9994 23.085 19.0494 22.325 18.3594 21.315C17.6794 20.295 17.3394 19.03 17.3394 17.52C17.3394 17.36 17.3394 17.215 17.3394 17.085C17.3394 16.945 17.3394 16.795 17.3394 16.635H22.0044C22.0044 16.785 22.0044 16.92 22.0044 17.04C22.0044 17.15 22.0044 17.28 22.0044 17.43C22.0044 18.46 22.2944 19.25 22.8744 19.8C23.4544 20.35 24.3144 20.625 25.4544 20.625C26.6044 20.625 27.4894 20.445 28.1094 20.085C28.7294 19.715 29.0394 19.11 29.0394 18.27C29.0394 17.68 28.8044 17.16 28.3344 16.71C27.8744 16.26 27.2444 15.86 26.4444 15.51C25.6544 15.15 24.7494 14.815 23.7294 14.505C22.6194 14.155 21.5894 13.695 20.6394 13.125C19.6894 12.555 18.9244 11.83 18.3444 10.95C17.7744 10.07 17.4894 8.985 17.4894 7.695C17.4894 6.395 17.8344 5.29 18.5244 4.38C19.2144 3.46 20.1544 2.76 21.3444 2.28C22.5344 1.79 23.8794 1.545 25.3794 1.545C26.9494 1.545 28.3344 1.79 29.5344 2.28C30.7444 2.76 31.6894 3.485 32.3694 4.455C33.0594 5.415 33.4044 6.615 33.4044 8.055C33.4044 8.215 33.4044 8.365 33.4044 8.505C33.4044 8.635 33.4044 8.785 33.4044 8.955H28.7544C28.7544 8.845 28.7544 8.73 28.7544 8.61C28.7544 8.49 28.7544 8.375 28.7544 8.265C28.7544 7.295 28.4844 6.55 27.9444 6.03C27.4144 5.51 26.5794 5.25 25.4394 5.25C24.3394 5.25 23.4844 5.45 22.8744 5.85C22.2744 6.25 21.9744 6.865 21.9744 7.695C21.9744 8.295 22.1894 8.805 22.6194 9.225C23.0594 9.645 23.6594 10.02 24.4194 10.35C25.1794 10.68 26.0444 11.01 27.0144 11.34C28.3344 11.8 29.4844 12.31 30.4644 12.87C31.4544 13.42 32.2194 14.115 32.7594 14.955C33.2994 15.785 33.5694 16.845 33.5694 18.135C33.5694 19.455 33.2294 20.58 32.5494 21.51C31.8694 22.44 30.9144 23.15 29.6844 23.64C28.4644 24.12 27.0494 24.36 25.4394 24.36ZM45.4958 24.36C43.7458 24.36 42.1508 23.925 40.7108 23.055C39.2808 22.175 38.1408 20.895 37.2908 19.215C36.4508 17.525 36.0308 15.45 36.0308 12.99C36.0308 10.54 36.4758 8.465 37.3658 6.765C38.2558 5.065 39.4508 3.77 40.9508 2.88C42.4608 1.99 44.1458 1.545 46.0058 1.545C47.5558 1.545 48.8658 1.795 49.9358 2.295C51.0158 2.795 51.8908 3.435 52.5608 4.215C53.2408 4.995 53.7358 5.82 54.0458 6.69C54.3558 7.55 54.5108 8.345 54.5108 9.075C54.5108 9.105 54.5108 9.135 54.5108 9.165C54.5108 9.195 54.5108 9.225 54.5108 9.255H49.9808C49.9808 9.225 49.9808 9.195 49.9808 9.165C49.9808 9.135 49.9808 9.105 49.9808 9.075C49.9808 8.615 49.8958 8.16 49.7258 7.71C49.5558 7.25 49.3008 6.84 48.9608 6.48C48.6308 6.12 48.2158 5.83 47.7158 5.61C47.2258 5.39 46.6558 5.28 46.0058 5.28C45.1258 5.28 44.2858 5.53 43.4858 6.03C42.6858 6.53 42.0308 7.345 41.5208 8.475C41.0108 9.595 40.7558 11.1 40.7558 12.99C40.7558 14.43 40.8958 15.64 41.1758 16.62C41.4658 17.6 41.8508 18.385 42.3308 18.975C42.8108 19.555 43.3558 19.975 43.9658 20.235C44.5858 20.495 45.2258 20.625 45.8858 20.625C46.7958 20.625 47.5558 20.475 48.1658 20.175C48.7858 19.865 49.2708 19.485 49.6208 19.035C49.9708 18.585 50.1958 18.14 50.2958 17.7V16.26H45.9158V12.9H54.4208V24H51.9758L51.5558 21.555C51.4758 21.745 51.3058 21.995 51.0458 22.305C50.7858 22.615 50.4158 22.93 49.9358 23.25C49.4658 23.56 48.8608 23.82 48.1208 24.03C47.3908 24.25 46.5158 24.36 45.4958 24.36ZM59.934 17.43V14.355H70.494L70.044 15.135C70.044 15.055 70.044 14.98 70.044 14.91C70.044 14.83 70.044 14.755 70.044 14.685C70.044 14.115 69.909 13.57 69.639 13.05C69.369 12.52 68.949 12.09 68.379 11.76C67.819 11.42 67.099 11.25 66.219 11.25C65.339 11.25 64.579 11.44 63.939 11.82C63.309 12.19 62.824 12.725 62.484 13.425C62.154 14.125 61.989 14.97 61.989 15.96C61.989 16.98 62.149 17.855 62.469 18.585C62.799 19.305 63.284 19.86 63.924 20.25C64.574 20.64 65.379 20.835 66.339 20.835C66.959 20.835 67.494 20.78 67.944 20.67C68.394 20.55 68.759 20.4 69.039 20.22C69.329 20.04 69.549 19.84 69.699 19.62C69.849 19.4 69.939 19.185 69.969 18.975H74.559C74.499 19.645 74.269 20.305 73.869 20.955C73.469 21.595 72.914 22.175 72.204 22.695C71.494 23.205 70.629 23.61 69.609 23.91C68.599 24.21 67.444 24.36 66.144 24.36C64.384 24.36 62.849 24.01 61.539 23.31C60.229 22.6 59.214 21.625 58.494 20.385C57.774 19.135 57.414 17.695 57.414 16.065C57.414 14.415 57.779 12.97 58.509 11.73C59.249 10.48 60.274 9.51 61.584 8.82C62.904 8.12 64.429 7.77 66.159 7.77C67.929 7.77 69.459 8.125 70.749 8.835C72.039 9.535 73.034 10.52 73.734 11.79C74.434 13.05 74.784 14.52 74.784 16.2C74.784 16.45 74.779 16.69 74.769 16.92C74.759 17.15 74.744 17.32 74.724 17.43H59.934ZM84.35 24.36C83.02 24.36 81.795 24.045 80.675 23.415C79.555 22.775 78.655 21.83 77.975 20.58C77.295 19.33 76.955 17.79 76.955 15.96C76.955 14.21 77.3 12.725 77.99 11.505C78.69 10.285 79.6 9.36 80.72 8.73C81.85 8.09 83.06 7.77 84.35 7.77C85.61 7.77 86.76 8.09 87.8 8.73C88.85 9.37 89.69 10.245 90.32 11.355C90.95 12.455 91.265 13.725 91.265 15.165C91.265 15.215 91.265 15.265 91.265 15.315C91.265 15.355 91.265 15.4 91.265 15.45L89.255 15.48C89.255 15.45 89.255 15.42 89.255 15.39C89.255 15.35 89.255 15.315 89.255 15.285C89.255 14.535 89.075 13.89 88.715 13.35C88.355 12.81 87.89 12.395 87.32 12.105C86.75 11.805 86.155 11.655 85.535 11.655C84.505 11.655 83.615 12 82.865 12.69C82.115 13.37 81.74 14.46 81.74 15.96C81.74 17.46 82.115 18.565 82.865 19.275C83.625 19.975 84.515 20.325 85.535 20.325C86.175 20.325 86.78 20.175 87.35 19.875C87.92 19.565 88.38 19.13 88.73 18.57C89.08 18.01 89.255 17.35 89.255 16.59L91.265 16.695C91.265 18.125 90.955 19.42 90.335 20.58C89.725 21.73 88.895 22.65 87.845 23.34C86.805 24.02 85.64 24.36 84.35 24.36ZM89.255 24V0.554999H93.92V24H89.255ZM103.12 24.3C101.99 24.3 101.06 24.12 100.33 23.76C99.6004 23.39 99.0254 22.895 98.6054 22.275C98.1854 21.655 97.8904 20.965 97.7204 20.205C97.5504 19.445 97.4654 18.675 97.4654 17.895C97.4654 17.535 97.4654 17.155 97.4654 16.755C97.4654 16.355 97.4654 15.945 97.4654 15.525V8.07H102.115V14.79C102.115 15.13 102.115 15.46 102.115 15.78C102.115 16.1 102.115 16.395 102.115 16.665C102.115 17.335 102.19 17.95 102.34 18.51C102.49 19.07 102.765 19.52 103.165 19.86C103.575 20.2 104.155 20.37 104.905 20.37C105.635 20.37 106.255 20.165 106.765 19.755C107.275 19.335 107.665 18.8 107.935 18.15C108.205 17.5 108.34 16.83 108.34 16.14L109.645 17.205C109.645 18.205 109.49 19.135 109.18 19.995C108.88 20.855 108.45 21.61 107.89 22.26C107.33 22.9 106.645 23.4 105.835 23.76C105.035 24.12 104.13 24.3 103.12 24.3ZM108.34 24V8.07H112.99V24H108.34ZM124.504 24.36C122.754 24.36 121.219 24.01 119.899 23.31C118.579 22.6 117.554 21.615 116.824 20.355C116.104 19.095 115.744 17.64 115.744 15.99C115.744 14.32 116.104 12.875 116.824 11.655C117.554 10.425 118.579 9.47 119.899 8.79C121.219 8.11 122.754 7.77 124.504 7.77C125.814 7.77 126.974 7.965 127.984 8.355C128.994 8.735 129.839 9.24 130.519 9.87C131.199 10.5 131.714 11.19 132.064 11.94C132.414 12.69 132.589 13.435 132.589 14.175C132.589 14.185 132.589 14.205 132.589 14.235C132.589 14.255 132.589 14.275 132.589 14.295H127.984C127.984 14.235 127.979 14.18 127.969 14.13C127.969 14.07 127.959 14.01 127.939 13.95C127.859 13.53 127.684 13.135 127.414 12.765C127.144 12.395 126.764 12.095 126.274 11.865C125.794 11.625 125.194 11.505 124.474 11.505C123.704 11.505 123.014 11.675 122.404 12.015C121.804 12.355 121.329 12.86 120.979 13.53C120.629 14.19 120.454 15.01 120.454 15.99C120.454 16.95 120.629 17.78 120.979 18.48C121.329 19.17 121.804 19.7 122.404 20.07C123.014 20.44 123.704 20.625 124.474 20.625C125.264 20.625 125.909 20.505 126.409 20.265C126.909 20.015 127.284 19.685 127.534 19.275C127.784 18.855 127.934 18.395 127.984 17.895H132.589C132.589 18.635 132.414 19.39 132.064 20.16C131.724 20.92 131.214 21.615 130.534 22.245C129.864 22.875 129.024 23.385 128.014 23.775C127.004 24.165 125.834 24.36 124.504 24.36ZM140.893 24.33C139.733 24.33 138.698 24.145 137.788 23.775C136.888 23.405 136.183 22.87 135.673 22.17C135.163 21.47 134.908 20.62 134.908 19.62C134.908 18.49 135.218 17.57 135.838 16.86C136.458 16.15 137.278 15.61 138.298 15.24C139.328 14.86 140.443 14.61 141.643 14.49C143.393 14.32 144.598 14.165 145.258 14.025C145.928 13.885 146.263 13.64 146.263 13.29C146.263 13.28 146.263 13.27 146.263 13.26C146.263 12.67 145.978 12.205 145.408 11.865C144.848 11.525 144.063 11.355 143.053 11.355C141.983 11.355 141.163 11.55 140.593 11.94C140.033 12.32 139.753 12.905 139.753 13.695H135.178C135.178 12.415 135.523 11.335 136.213 10.455C136.913 9.575 137.858 8.91 139.048 8.46C140.238 8 141.583 7.77 143.083 7.77C144.483 7.77 145.778 7.985 146.968 8.415C148.158 8.835 149.113 9.47 149.833 10.32C150.563 11.17 150.928 12.25 150.928 13.56C150.928 13.77 150.928 13.98 150.928 14.19C150.928 14.39 150.928 14.595 150.928 14.805V20.445C150.928 20.855 150.938 21.25 150.958 21.63C150.988 22 151.048 22.34 151.138 22.65C151.238 23 151.363 23.29 151.513 23.52C151.663 23.75 151.788 23.91 151.888 24H147.313C147.243 23.93 147.133 23.785 146.983 23.565C146.843 23.345 146.723 23.09 146.623 22.8C146.503 22.45 146.413 22.1 146.353 21.75C146.303 21.39 146.278 20.97 146.278 20.49L147.238 21.15C146.958 21.81 146.503 22.38 145.873 22.86C145.253 23.33 144.513 23.695 143.653 23.955C142.803 24.205 141.883 24.33 140.893 24.33ZM142.138 20.85C142.868 20.85 143.548 20.72 144.178 20.46C144.818 20.19 145.338 19.77 145.738 19.2C146.138 18.63 146.338 17.885 146.338 16.965V15.36L147.493 16.485C146.833 16.725 146.068 16.925 145.198 17.085C144.338 17.235 143.478 17.355 142.618 17.445C141.598 17.545 140.833 17.72 140.323 17.97C139.823 18.21 139.573 18.62 139.573 19.2C139.573 19.75 139.788 20.165 140.218 20.445C140.648 20.715 141.288 20.85 142.138 20.85ZM161.809 24.33C161.199 24.33 160.569 24.275 159.919 24.165C159.279 24.065 158.679 23.86 158.119 23.55C157.569 23.23 157.124 22.765 156.784 22.155C156.444 21.545 156.274 20.74 156.274 19.74C156.274 19.52 156.274 19.295 156.274 19.065C156.274 18.835 156.274 18.605 156.274 18.375V11.67H152.599V8.07H153.634C154.234 8.07 154.709 8.045 155.059 7.995C155.419 7.945 155.684 7.82 155.854 7.62C156.034 7.41 156.149 7.085 156.199 6.645C156.249 6.205 156.274 5.6 156.274 4.83V2.82H160.939V8.07H165.574V11.67H160.939V17.4C160.939 17.58 160.939 17.755 160.939 17.925C160.939 18.095 160.939 18.26 160.939 18.42C160.939 19.11 161.019 19.67 161.179 20.1C161.349 20.53 161.764 20.745 162.424 20.745C162.754 20.745 163.064 20.715 163.354 20.655C163.654 20.595 163.879 20.535 164.029 20.475V23.97C163.819 24.06 163.524 24.14 163.144 24.21C162.764 24.29 162.319 24.33 161.809 24.33ZM168.213 24V8.07H172.818V24H168.213ZM170.508 5.475C169.788 5.475 169.158 5.285 168.618 4.905C168.088 4.525 167.823 3.99 167.823 3.3C167.823 2.6 168.088 2.06 168.618 1.68C169.158 1.3 169.788 1.11 170.508 1.11C171.238 1.11 171.868 1.3 172.398 1.68C172.938 2.06 173.208 2.6 173.208 3.3C173.208 4 172.938 4.54 172.398 4.92C171.868 5.29 171.238 5.475 170.508 5.475ZM184.225 24.345C182.505 24.345 180.99 23.99 179.68 23.28C178.37 22.57 177.345 21.595 176.605 20.355C175.875 19.105 175.51 17.665 175.51 16.035C175.51 14.415 175.875 12.985 176.605 11.745C177.345 10.495 178.37 9.525 179.68 8.835C180.99 8.135 182.505 7.785 184.225 7.785C185.945 7.785 187.46 8.135 188.77 8.835C190.08 9.525 191.1 10.495 191.83 11.745C192.57 12.985 192.94 14.415 192.94 16.035C192.94 17.665 192.57 19.105 191.83 20.355C191.1 21.595 190.08 22.57 188.77 23.28C187.46 23.99 185.945 24.345 184.225 24.345ZM184.225 20.655C185.035 20.655 185.74 20.465 186.34 20.085C186.94 19.705 187.405 19.17 187.735 18.48C188.065 17.78 188.23 16.965 188.23 16.035C188.23 15.105 188.065 14.3 187.735 13.62C187.405 12.93 186.94 12.4 186.34 12.03C185.74 11.66 185.035 11.475 184.225 11.475C183.425 11.475 182.72 11.66 182.11 12.03C181.51 12.4 181.045 12.93 180.715 13.62C180.385 14.3 180.22 15.105 180.22 16.035C180.22 16.965 180.385 17.78 180.715 18.48C181.045 19.17 181.51 19.705 182.11 20.085C182.72 20.465 183.425 20.655 184.225 20.655ZM207.064 24V17.235C207.064 16.855 207.064 16.51 207.064 16.2C207.064 15.89 207.064 15.61 207.064 15.36C207.064 14.7 206.979 14.1 206.809 13.56C206.639 13.01 206.334 12.57 205.894 12.24C205.454 11.91 204.819 11.745 203.989 11.745C203.269 11.745 202.644 11.91 202.114 12.24C201.594 12.57 201.194 13.03 200.914 13.62C200.634 14.21 200.494 14.89 200.494 15.66L199.204 14.73C199.204 13.35 199.504 12.14 200.104 11.1C200.704 10.06 201.514 9.245 202.534 8.655C203.564 8.065 204.704 7.77 205.954 7.77C207.264 7.77 208.339 8.035 209.179 8.565C210.029 9.085 210.659 9.815 211.069 10.755C211.489 11.685 211.699 12.775 211.699 14.025C211.699 14.535 211.699 15.105 211.699 15.735C211.699 16.365 211.699 17.01 211.699 17.67V24H207.064ZM195.844 24V8.07H200.494V24H195.844Z" fill="white"/>
</svg>
