<svg width="179" height="27" viewBox="0 0 179 27" fill="none" xmlns="http://www.w3.org/2000/svg">
<path d="M0.9 27C0.566667 27 0.4 26.8333 0.4 26.5V0.839998C0.4 0.506665 0.566667 0.339999 0.9 0.339999H14.6C14.9333 0.339999 15.1 0.506665 15.1 0.839998V5.16C15.1 5.49333 14.9333 5.66 14.6 5.66H7.06V12.34H13.6C13.9333 12.34 14.1 12.5067 14.1 12.84V17.16C14.1 17.4933 13.9333 17.66 13.6 17.66H7.06V26.5C7.06 26.8333 6.89333 27 6.56 27H0.9ZM23.2906 27C22.984 27 22.7173 26.8867 22.4906 26.66L18.4906 22.66C18.264 22.4467 18.1506 22.18 18.1506 21.86V10.14C18.1506 9.82 18.264 9.55333 18.4906 9.34L22.4906 5.34C22.7173 5.11333 22.984 5 23.2906 5H29.3506C29.6706 5 29.9373 5.11333 30.1506 5.34L34.1506 9.34C34.3773 9.55333 34.4906 9.82 34.4906 10.14V21.86C34.4906 22.18 34.3773 22.4467 34.1506 22.66L30.1506 26.66C29.9373 26.8867 29.6706 27 29.3506 27H23.2906ZM25.6306 22.34H27.0306C27.4573 22.34 27.7506 22.2533 27.9106 22.08C28.0706 21.9067 28.1506 21.6 28.1506 21.16V10.84C28.1506 10.4 28.0706 10.0933 27.9106 9.92C27.7506 9.74667 27.4573 9.66 27.0306 9.66H25.6306C25.1906 9.66 24.8906 9.74667 24.7306 9.92C24.5706 10.0933 24.4906 10.4 24.4906 10.84V21.16C24.4906 21.6 24.5706 21.9067 24.7306 22.08C24.8906 22.2533 25.1906 22.34 25.6306 22.34ZM44.15 27C43.8433 27 43.5767 26.8867 43.35 26.66L39.35 22.66C39.1233 22.4467 39.01 22.18 39.01 21.86V10.14C39.01 9.82 39.1233 9.55333 39.35 9.34L43.35 5.34C43.5767 5.11333 43.8433 5 44.15 5H50.21C50.53 5 50.7967 5.11333 51.01 5.34L55.01 9.34C55.2367 9.55333 55.35 9.82 55.35 10.14V21.86C55.35 22.18 55.2367 22.4467 55.01 22.66L51.01 26.66C50.7967 26.8867 50.53 27 50.21 27H44.15ZM46.49 22.34H47.89C48.3167 22.34 48.61 22.2533 48.77 22.08C48.93 21.9067 49.01 21.6 49.01 21.16V10.84C49.01 10.4 48.93 10.0933 48.77 9.92C48.61 9.74667 48.3167 9.66 47.89 9.66H46.49C46.05 9.66 45.75 9.74667 45.59 9.92C45.43 10.0933 45.35 10.4 45.35 10.84V21.16C45.35 21.6 45.43 21.9067 45.59 22.08C45.75 22.2533 46.05 22.34 46.49 22.34ZM65.0094 27C64.7027 27 64.436 26.8867 64.2094 26.66L60.2094 22.66C59.9827 22.4467 59.8694 22.18 59.8694 21.86V10.14C59.8694 9.82 59.9827 9.55333 60.2094 9.34L64.2094 5.34C64.436 5.11333 64.7027 5 65.0094 5H68.0694C68.3894 5 68.656 5.11333 68.8694 5.34L69.8694 6.34V0.839998C69.8694 0.506665 70.036 0.339999 70.3694 0.339999H75.7094C76.0427 0.339999 76.2094 0.506665 76.2094 0.839998V26.5C76.2094 26.8333 76.0427 27 75.7094 27H71.5494C71.376 27 71.2427 26.9667 71.1494 26.9C71.0694 26.8333 70.976 26.7533 70.8694 26.66L69.8694 25.66L68.8694 26.66C68.656 26.8867 68.3894 27 68.0694 27H65.0094ZM67.3494 22.34H68.7494C69.176 22.34 69.4694 22.2533 69.6294 22.08C69.7894 21.9067 69.8694 21.6 69.8694 21.16V9.66H67.3494C66.9094 9.66 66.6094 9.74667 66.4494 9.92C66.2894 10.0933 66.2094 10.4 66.2094 10.84V21.16C66.2094 21.6 66.2894 21.9067 66.4494 22.08C66.6094 22.2533 66.9094 22.34 67.3494 22.34Z" fill="black"/>
<path d="M87.1159 27C86.7826 27 86.6159 26.8333 86.6159 26.5V23.26C86.6159 22.9533 86.7159 22.7533 86.9159 22.66L90.9959 20.24V18.16L86.9159 15.96C86.7159 15.84 86.6159 15.6333 86.6159 15.34V8.96C86.6159 8.81333 86.6359 8.69333 86.6759 8.6C86.7293 8.50667 86.8026 8.42667 86.8959 8.36L91.1559 5.24C91.3026 5.13333 91.4226 5.06667 91.5159 5.04C91.6093 5.01333 91.7026 5 91.7959 5H96.6559C96.9893 5 97.1559 5.16667 97.1559 5.5V8.64C97.1559 8.86667 97.1359 9.02 97.0959 9.1C97.0693 9.18 97.0026 9.24667 96.8959 9.3L93.1159 11.34V13.66L97.1559 15.66C97.3826 15.7533 97.4959 15.9533 97.4959 16.26V22.4C97.4959 22.7333 97.3826 23 97.1559 23.2L92.8959 26.74C92.6826 26.9133 92.4159 27 92.0959 27H87.1159ZM106.289 27C105.982 27 105.716 26.8867 105.489 26.66L102.149 23.34C101.936 23.1133 101.829 22.8467 101.829 22.54V9.66H100.989C100.656 9.66 100.489 9.49333 100.489 9.16V5.5C100.489 5.16667 100.656 5 100.989 5H101.829V2.5C101.829 2.16667 101.996 2 102.329 2H107.649C107.982 2 108.149 2.16667 108.149 2.5V5H110.089C110.422 5 110.589 5.16667 110.589 5.5V9.16C110.589 9.49333 110.422 9.66 110.089 9.66H108.149V20.34C108.149 20.5933 108.229 20.8 108.389 20.96L110.349 22.94C110.482 23.06 110.549 23.26 110.549 23.54V26.5C110.549 26.8333 110.382 27 110.049 27H106.289ZM114.689 27C114.356 27 114.189 26.8333 114.189 26.5V5.5C114.189 5.16667 114.356 5 114.689 5H117.729C117.982 5 118.202 5.11333 118.389 5.34L120.349 7.6L122.529 5.24C122.676 5.08 122.862 5 123.089 5H125.249C125.582 5 125.749 5.16667 125.749 5.5V9.8C125.749 10.0133 125.736 10.16 125.709 10.24C125.682 10.3067 125.609 10.38 125.489 10.46L120.529 14.12V26.5C120.529 26.8333 120.362 27 120.029 27H114.689ZM137.094 27C136.961 27 136.814 26.98 136.654 26.94C136.508 26.9 136.368 26.8667 136.234 26.84L132.674 25.96L128.594 24.6C128.194 24.4667 127.994 24.08 127.994 23.44V10.14C127.994 9.82 128.108 9.55333 128.334 9.34L132.334 5.34C132.561 5.11333 132.828 5 133.134 5H139.534C139.841 5 140.108 5.11333 140.334 5.34L144.334 9.34C144.561 9.55333 144.674 9.82 144.674 10.14V18.34H133.934L133.794 21L136.634 21.94L141.734 22.3C141.961 22.34 142.074 22.4933 142.074 22.76V26.5C142.074 26.8333 141.908 27 141.574 27H137.094ZM136.294 15.2H136.674C137.328 15.2 137.848 14.9533 138.234 14.46C138.634 13.9667 138.834 13.3 138.834 12.46V12.06C138.834 11.2333 138.634 10.5733 138.234 10.08C137.848 9.58667 137.328 9.34 136.674 9.34H136.274C135.634 9.34 135.121 9.58667 134.734 10.08C134.361 10.5733 134.174 11.2333 134.174 12.06V12.46C134.174 13.3 134.361 13.9667 134.734 14.46C135.121 14.9533 135.641 15.2 136.294 15.2ZM157.798 27C157.664 27 157.518 26.98 157.358 26.94C157.211 26.9 157.071 26.8667 156.938 26.84L153.378 25.96L149.298 24.6C148.898 24.4667 148.698 24.08 148.698 23.44V10.14C148.698 9.82 148.811 9.55333 149.038 9.34L153.038 5.34C153.264 5.11333 153.531 5 153.838 5H160.238C160.544 5 160.811 5.11333 161.038 5.34L165.038 9.34C165.264 9.55333 165.378 9.82 165.378 10.14V18.34H154.638L154.498 21L157.338 21.94L162.438 22.3C162.664 22.34 162.778 22.4933 162.778 22.76V26.5C162.778 26.8333 162.611 27 162.278 27H157.798ZM156.997 15.2H157.378C158.031 15.2 158.551 14.9533 158.938 14.46C159.338 13.9667 159.538 13.3 159.538 12.46V12.06C159.538 11.2333 159.338 10.5733 158.938 10.08C158.551 9.58667 158.031 9.34 157.378 9.34H156.978C156.338 9.34 155.824 9.58667 155.438 10.08C155.064 10.5733 154.878 11.2333 154.878 12.06V12.46C154.878 13.3 155.064 13.9667 155.438 14.46C155.824 14.9533 156.344 15.2 156.997 15.2ZM174.141 27C173.834 27 173.567 26.8867 173.341 26.66L170.001 23.34C169.787 23.1133 169.681 22.8467 169.681 22.54V9.66H168.841C168.507 9.66 168.341 9.49333 168.341 9.16V5.5C168.341 5.16667 168.507 5 168.841 5H169.681V2.5C169.681 2.16667 169.847 2 170.181 2H175.501C175.834 2 176.001 2.16667 176.001 2.5V5H177.941C178.274 5 178.441 5.16667 178.441 5.5V9.16C178.441 9.49333 178.274 9.66 177.941 9.66H176.001V20.34C176.001 20.5933 176.081 20.8 176.241 20.96L178.201 22.94C178.334 23.06 178.401 23.26 178.401 23.54V26.5C178.401 26.8333 178.234 27 177.901 27H174.141Z" fill="#06C167"/>
</svg>
