<svg width="336" height="71" viewBox="0 0 336 71" fill="none" xmlns="http://www.w3.org/2000/svg">
<g filter="url(#filter0_d_75_105)">
<path d="M12.075 55C11.4916 55 11.2 54.7083 11.2 54.125V9.21997C11.2 8.63664 11.4916 8.34497 12.075 8.34497H36.05C36.6333 8.34497 36.925 8.63664 36.925 9.21997V16.78C36.925 17.3633 36.6333 17.655 36.05 17.655H22.855V29.345H34.3C34.8833 29.345 35.175 29.6366 35.175 30.22V37.78C35.175 38.3633 34.8833 38.655 34.3 38.655H22.855V54.125C22.855 54.7083 22.5633 55 21.98 55H12.075Z" fill="white"/>
<path d="M51.2585 55C50.7219 55 50.2552 54.8016 49.8585 54.405L42.8585 47.405C42.4619 47.0316 42.2635 46.565 42.2635 46.005V25.495C42.2635 24.935 42.4619 24.4683 42.8585 24.095L49.8585 17.095C50.2552 16.6983 50.7219 16.5 51.2585 16.5H61.8635C62.4235 16.5 62.8902 16.6983 63.2635 17.095L70.2635 24.095C70.6602 24.4683 70.8585 24.935 70.8585 25.495V46.005C70.8585 46.565 70.6602 47.0316 70.2635 47.405L63.2635 54.405C62.8902 54.8016 62.4235 55 61.8635 55H51.2585ZM55.3535 46.845H57.8035C58.5502 46.845 59.0635 46.6933 59.3435 46.39C59.6235 46.0866 59.7635 45.55 59.7635 44.78V26.72C59.7635 25.95 59.6235 25.4133 59.3435 25.11C59.0635 24.8066 58.5502 24.655 57.8035 24.655H55.3535C54.5835 24.655 54.0585 24.8066 53.7785 25.11C53.4985 25.4133 53.3585 25.95 53.3585 26.72V44.78C53.3585 45.55 53.4985 46.0866 53.7785 46.39C54.0585 46.6933 54.5835 46.845 55.3535 46.845Z" fill="white"/>
<path d="M87.7625 55C87.2258 55 86.7591 54.8016 86.3624 54.405L79.3624 47.405C78.9658 47.0316 78.7674 46.565 78.7674 46.005V25.495C78.7674 24.935 78.9658 24.4683 79.3624 24.095L86.3624 17.095C86.7591 16.6983 87.2258 16.5 87.7625 16.5H98.3675C98.9275 16.5 99.3941 16.6983 99.7675 17.095L106.767 24.095C107.164 24.4683 107.362 24.935 107.362 25.495V46.005C107.362 46.565 107.164 47.0316 106.767 47.405L99.7675 54.405C99.3941 54.8016 98.9275 55 98.3675 55H87.7625ZM91.8575 46.845H94.3074C95.0541 46.845 95.5675 46.6933 95.8475 46.39C96.1275 46.0866 96.2675 45.55 96.2675 44.78V26.72C96.2675 25.95 96.1275 25.4133 95.8475 25.11C95.5675 24.8066 95.0541 24.655 94.3074 24.655H91.8575C91.0875 24.655 90.5625 24.8066 90.2825 25.11C90.0025 25.4133 89.8624 25.95 89.8624 26.72V44.78C89.8624 45.55 90.0025 46.0866 90.2825 46.39C90.5625 46.6933 91.0875 46.845 91.8575 46.845Z" fill="white"/>
<path d="M124.266 55C123.73 55 123.263 54.8016 122.866 54.405L115.866 47.405C115.47 47.0316 115.271 46.565 115.271 46.005V25.495C115.271 24.935 115.47 24.4683 115.866 24.095L122.866 17.095C123.263 16.6983 123.73 16.5 124.266 16.5H129.621C130.181 16.5 130.648 16.6983 131.021 17.095L132.771 18.845V9.21997C132.771 8.63664 133.063 8.34497 133.646 8.34497H142.991C143.575 8.34497 143.866 8.63664 143.866 9.21997V54.125C143.866 54.7083 143.575 55 142.991 55H135.711C135.408 55 135.175 54.9416 135.011 54.825C134.871 54.7083 134.708 54.5683 134.521 54.405L132.771 52.655L131.021 54.405C130.648 54.8016 130.181 55 129.621 55H124.266ZM128.361 46.845H130.811C131.558 46.845 132.071 46.6933 132.351 46.39C132.631 46.0866 132.771 45.55 132.771 44.78V24.655H128.361C127.591 24.655 127.066 24.8066 126.786 25.11C126.506 25.4133 126.366 25.95 126.366 26.72V44.78C126.366 45.55 126.506 46.0866 126.786 46.39C127.066 46.6933 127.591 46.845 128.361 46.845Z" fill="white"/>
<path d="M162.953 55C162.37 55 162.078 54.7083 162.078 54.125V48.455C162.078 47.9183 162.253 47.5683 162.603 47.405L169.743 43.17V39.53L162.603 35.68C162.253 35.47 162.078 35.1083 162.078 34.595V23.43C162.078 23.1733 162.113 22.9633 162.183 22.8C162.276 22.6366 162.405 22.4966 162.568 22.38L170.023 16.92C170.28 16.7333 170.49 16.6166 170.653 16.57C170.816 16.5233 170.98 16.5 171.143 16.5H179.648C180.231 16.5 180.523 16.7916 180.523 17.375V22.87C180.523 23.2666 180.488 23.535 180.418 23.675C180.371 23.815 180.255 23.9316 180.068 24.025L173.453 27.595V31.655L180.523 35.155C180.92 35.3183 181.118 35.6683 181.118 36.205V46.95C181.118 47.5333 180.92 48 180.523 48.35L173.068 54.545C172.695 54.8483 172.228 55 171.668 55H162.953Z" fill="#06C167"/>
<path d="M196.506 55C195.969 55 195.502 54.8016 195.106 54.405L189.261 48.595C188.887 48.1983 188.701 47.7316 188.701 47.195V24.655H187.231C186.647 24.655 186.356 24.3633 186.356 23.78V17.375C186.356 16.7916 186.647 16.5 187.231 16.5H188.701V12.125C188.701 11.5416 188.992 11.25 189.576 11.25H198.886C199.469 11.25 199.761 11.5416 199.761 12.125V16.5H203.156C203.739 16.5 204.031 16.7916 204.031 17.375V23.78C204.031 24.3633 203.739 24.655 203.156 24.655H199.761V43.345C199.761 43.7883 199.901 44.15 200.181 44.43L203.611 47.895C203.844 48.105 203.961 48.455 203.961 48.945V54.125C203.961 54.7083 203.669 55 203.086 55H196.506Z" fill="#06C167"/>
<path d="M211.206 55C210.622 55 210.331 54.7083 210.331 54.125V17.375C210.331 16.7916 210.622 16.5 211.206 16.5H216.526C216.969 16.5 217.354 16.6983 217.681 17.095L221.111 21.05L224.926 16.92C225.182 16.64 225.509 16.5 225.906 16.5H229.686C230.269 16.5 230.561 16.7916 230.561 17.375V24.9C230.561 25.2733 230.537 25.53 230.491 25.67C230.444 25.7866 230.316 25.915 230.106 26.055L221.426 32.46V54.125C221.426 54.7083 221.134 55 220.551 55H211.206Z" fill="#06C167"/>
<path d="M250.415 55C250.182 55 249.925 54.965 249.645 54.895C249.388 54.825 249.143 54.7666 248.91 54.72L242.68 53.18L235.54 50.8C234.84 50.5666 234.49 49.89 234.49 48.77V25.495C234.49 24.935 234.688 24.4683 235.085 24.095L242.085 17.095C242.482 16.6983 242.948 16.5 243.485 16.5H254.685C255.222 16.5 255.688 16.6983 256.085 17.095L263.085 24.095C263.482 24.4683 263.68 24.935 263.68 25.495V39.845H244.885L244.64 44.5L249.61 46.145L258.535 46.775C258.932 46.845 259.13 47.1133 259.13 47.58V54.125C259.13 54.7083 258.838 55 258.255 55H250.415ZM249.015 34.35H249.68C250.823 34.35 251.733 33.9183 252.41 33.055C253.11 32.1916 253.46 31.025 253.46 29.555V28.855C253.46 27.4083 253.11 26.2533 252.41 25.39C251.733 24.5266 250.823 24.095 249.68 24.095H248.98C247.86 24.095 246.962 24.5266 246.285 25.39C245.632 26.2533 245.305 27.4083 245.305 28.855V29.555C245.305 31.025 245.632 32.1916 246.285 33.055C246.962 33.9183 247.872 34.35 249.015 34.35Z" fill="#06C167"/>
<path d="M286.646 55C286.412 55 286.156 54.965 285.876 54.895C285.619 54.825 285.374 54.7666 285.141 54.72L278.911 53.18L271.771 50.8C271.071 50.5666 270.721 49.89 270.721 48.77V25.495C270.721 24.935 270.919 24.4683 271.316 24.095L278.316 17.095C278.712 16.6983 279.179 16.5 279.716 16.5H290.916C291.452 16.5 291.919 16.6983 292.316 17.095L299.316 24.095C299.712 24.4683 299.911 24.935 299.911 25.495V39.845H281.116L280.871 44.5L285.841 46.145L294.766 46.775C295.162 46.845 295.361 47.1133 295.361 47.58V54.125C295.361 54.7083 295.069 55 294.486 55H286.646ZM285.246 34.35H285.911C287.054 34.35 287.964 33.9183 288.641 33.055C289.341 32.1916 289.691 31.025 289.691 29.555V28.855C289.691 27.4083 289.341 26.2533 288.641 25.39C287.964 24.5266 287.054 24.095 285.911 24.095H285.211C284.091 24.095 283.192 24.5266 282.516 25.39C281.862 26.2533 281.536 27.4083 281.536 28.855V29.555C281.536 31.025 281.862 32.1916 282.516 33.055C283.192 33.9183 284.102 34.35 285.246 34.35Z" fill="#06C167"/>
<path d="M315.246 55C314.709 55 314.243 54.8016 313.846 54.405L308.001 48.595C307.628 48.1983 307.441 47.7316 307.441 47.195V24.655H305.971C305.388 24.655 305.096 24.3633 305.096 23.78V17.375C305.096 16.7916 305.388 16.5 305.971 16.5H307.441V12.125C307.441 11.5416 307.733 11.25 308.316 11.25H317.626C318.209 11.25 318.501 11.5416 318.501 12.125V16.5H321.896C322.479 16.5 322.771 16.7916 322.771 17.375V23.78C322.771 24.3633 322.479 24.655 321.896 24.655H318.501V43.345C318.501 43.7883 318.641 44.15 318.921 44.43L322.351 47.895C322.584 48.105 322.701 48.455 322.701 48.945V54.125C322.701 54.7083 322.409 55 321.826 55H315.246Z" fill="#06C167"/>
</g>
<defs>
<filter id="filter0_d_75_105" x="0.199951" y="0.344971" width="335.571" height="70.655" filterUnits="userSpaceOnUse" color-interpolation-filters="sRGB">
<feFlood flood-opacity="0" result="BackgroundImageFix"/>
<feColorMatrix in="SourceAlpha" type="matrix" values="0 0 0 0 0 0 0 0 0 0 0 0 0 0 0 0 0 0 127 0" result="hardAlpha"/>
<feOffset dx="1" dy="4"/>
<feGaussianBlur stdDeviation="6"/>
<feComposite in2="hardAlpha" operator="out"/>
<feColorMatrix type="matrix" values="0 0 0 0 0 0 0 0 0 0 0 0 0 0 0 0 0 0 0.25 0"/>
<feBlend mode="normal" in2="BackgroundImageFix" result="effect1_dropShadow_75_105"/>
<feBlend mode="normal" in="SourceGraphic" in2="effect1_dropShadow_75_105" result="shape"/>
</filter>
</defs>
</svg>
