<svg width="1220" height="651" viewBox="0 0 1220 651" fill="none" xmlns="http://www.w3.org/2000/svg">
<path d="M511.619 153.263H529.228V281.38H511.619V153.263Z" fill="white"/>
<path d="M555.822 190.638H571.456V204.474H571.814C578.104 193.873 588.525 188.482 600.385 188.482C613.861 188.482 621.948 195.49 626.08 205.013H626.26C632.729 194.592 643.51 188.482 656.448 188.482C673.697 188.482 686.456 199.084 686.456 218.31V281.381H670.284V225.138C670.284 210.764 664.174 202.677 651.596 202.677C638.478 202.677 629.314 213.278 629.314 227.114V281.381H613.142V224.958C613.142 211.482 607.573 202.677 594.456 202.677C584.393 202.677 571.994 210.404 571.994 226.936V281.381H555.822V190.638Z" fill="white"/>
<path d="M772.345 248.857V222.263C772.345 210.583 763.54 202.497 750.424 202.497C739.643 202.497 727.603 210.763 727.603 226.755V246.701C727.603 260.895 738.205 269.701 750.783 269.701C761.205 269.701 772.345 263.591 772.345 248.857ZM711.431 190.638H727.064V203.755H727.424C734.072 192.974 745.752 188.482 754.916 188.482C774.501 188.482 788.876 200.701 788.876 221.903V247.778C788.876 272.217 771.985 283.537 753.299 283.537C742.337 283.537 732.275 277.427 728.143 268.622H727.603V316.239H711.431V190.638Z" fill="white"/>
<path d="M863.625 248.137V240.949H840.805C830.023 240.949 820.679 244.004 820.679 255.684C820.679 265.567 828.945 270.599 839.726 270.599C857.515 270.599 863.625 260.895 863.625 248.137ZM804.688 256.583C804.688 237.536 821.937 228.911 838.289 228.911H863.625V217.591C863.625 205.731 855.718 201.239 843.319 201.239C833.078 201.239 823.554 204.832 823.554 213.637V216.692H808.819V214.176C808.819 195.129 826.789 188.481 843.679 188.481C862.726 188.481 879.797 194.949 879.797 215.973V260.176C879.797 264.848 880.515 278.325 881.234 281.38H865.242C864.882 279.044 864.523 272.036 864.343 270.059H863.985C856.258 281.2 846.734 283.536 835.414 283.536C817.805 283.536 804.688 273.473 804.688 256.583Z" fill="white"/>
<path d="M899.74 246.7V227.473C899.74 202.497 916.631 188.481 938.732 188.481C959.216 188.481 975.928 200.161 975.928 221.364V223.52H960.115V220.825C960.115 210.044 951.85 202.137 938.912 202.137C925.795 202.137 916.631 210.583 916.631 225.317V247.06C916.631 260.716 924.538 269.7 939.271 269.7C952.21 269.7 960.115 261.973 960.115 251.012V249.036H975.928V250.653C975.928 271.676 959.756 283.536 939.271 283.536C916.811 283.536 899.74 270.419 899.74 246.7Z" fill="white"/>
<path d="M1000.18 260.896V203.756H985.63V190.638H1000.18V162.606H1016.36V190.638H1039.72V203.756H1016.36V256.762C1016.36 265.029 1020.67 267.544 1027.68 267.544C1032.35 267.544 1035.94 267.005 1040.26 266.106V280.122C1034.86 281.74 1027.32 282.278 1023.72 282.278C1011.15 282.278 1000.18 276.529 1000.18 260.896Z" fill="white"/>
<path d="M578.644 411.653L556.901 350.199H556.723L534.62 411.653H578.644ZM550.433 332.77H563.909L611.167 461.067H595.895L582.777 423.871H530.488L517.011 461.067H502.456L550.433 332.77Z" fill="white"/>
<path d="M622.488 426.747V406.441C622.488 382.544 637.942 368.708 659.863 368.708C680.527 368.708 695.442 380.387 695.442 399.973V402.309H682.504V399.613C682.504 389.552 674.958 380.208 660.043 380.208C645.128 380.208 635.964 390.449 635.964 405.544V427.107C635.964 441.661 644.051 451.723 660.223 451.723C675.136 451.723 682.504 442.559 682.504 432.496V429.981H695.442V431.957C695.442 451.364 681.067 463.223 660.223 463.223C637.762 463.223 622.488 450.107 622.488 426.747Z" fill="white"/>
<path d="M768.931 428.184V419.559H745.571C734.071 419.559 723.111 422.613 723.111 436.091C723.111 447.231 732.455 452.621 743.415 452.621C761.384 452.621 768.931 442.379 768.931 428.184ZM709.813 436.809C709.813 417.223 727.603 409.676 743.236 409.676H768.931V396.919C768.931 383.981 760.305 379.309 747.368 379.309C736.767 379.309 725.985 383.083 725.985 393.324V396.379H713.767V393.684C713.767 375.356 731.016 368.708 747.907 368.708C766.056 368.708 782.407 374.996 782.407 395.301V439.145C782.407 444.176 783.125 457.473 783.665 461.067H770.548C770.188 458.372 769.829 450.645 769.649 448.309H769.291C761.743 460.708 750.961 463.223 739.821 463.223C722.931 463.223 709.813 453.52 709.813 436.809Z" fill="white"/>
<path d="M863.984 424.411V405.544C863.984 389.911 852.664 380.028 839.187 380.028C828.227 380.028 816.367 386.676 816.367 402.129V430.52C816.367 442.559 825.351 451.544 839.547 451.544C851.227 451.544 863.984 441.84 863.984 424.411ZM802.891 431.059V403.387C802.891 379.129 819.601 368.708 837.391 368.708C848.531 368.708 859.492 374.996 863.445 385.239H863.984V332.949H877.281V461.067H864.344V445.075H863.984C857.875 457.653 846.555 463.223 835.773 463.223C816.367 463.223 802.891 451.004 802.891 431.059Z" fill="white"/>
<path d="M960.293 408.598V403.568C960.293 389.91 952.207 379.669 937.113 379.669C922.558 379.669 912.675 390.45 912.675 404.825V408.598H960.293ZM899.199 426.568V407.161C899.199 382.364 916.09 368.528 937.831 368.528C957.777 368.528 973.59 381.825 973.59 405.184V419.2H912.675V427.825C912.675 442.56 923.098 451.724 938.91 451.724C949.331 451.724 958.137 446.872 962.987 439.325L971.973 446.333C963.886 458.91 950.949 463.224 938.011 463.224C915.91 463.224 899.199 451.364 899.199 426.568Z" fill="white"/>
<path d="M995.15 370.864H1007.91V386.497H1008.27C1014.56 374.817 1025.88 368.888 1038.28 368.888C1052.29 368.888 1060.38 376.973 1063.79 386.856H1063.97C1070.44 375.356 1081.76 368.888 1094.88 368.888C1112.31 368.888 1123.81 379.848 1123.81 397.457V461.066H1110.51V403.746C1110.51 388.473 1103.68 380.566 1090.92 380.566C1077.45 380.566 1066.67 391.708 1066.31 406.442V461.066H1053.01V403.388C1052.65 388.833 1046.36 380.566 1033.42 380.566C1022.1 380.566 1008.45 389.552 1008.45 406.621V461.066H995.15V370.864Z" fill="white"/>
<path d="M1141.59 496.286V484.786C1145.37 485.684 1149.14 486.223 1152.73 486.223C1160.1 486.223 1165.31 481.731 1167.83 474.903L1173.94 458.911L1139.98 370.864H1154.53L1180.59 442.2H1180.95L1205.92 370.864H1219.58L1180.77 476.34C1175.02 492.512 1164.06 497.543 1152.56 497.543C1149.68 497.543 1145.73 497.184 1141.59 496.286Z" fill="white"/>
<path d="M156.574 422.716C156.186 422.309 155.841 421.848 155.405 421.502C153.329 419.865 151.226 418.261 149.137 416.64C148.68 416.284 148.241 415.905 147.669 415.434C162.564 401.342 179.189 390.061 198.208 381.65C197.424 381.373 196.989 381.173 196.532 381.065C191.041 379.753 185.689 380.308 180.446 382.286C176.017 383.958 172.046 386.462 168.1 389.025C163.028 392.32 157.964 395.634 152.808 398.793C143.658 404.401 133.708 407.716 123.048 408.97C110.982 410.39 99.5624 408.218 88.6051 403.112C81.6211 399.857 75.1878 395.832 69.7811 390.281C69.3358 389.825 68.9184 389.344 68.6064 388.665C68.7904 388.724 68.9918 388.75 69.1558 388.845C76.4118 393.005 84.2584 395.225 92.5464 396.028C102.622 397.004 112.514 396.117 122.069 392.717C127.153 390.909 132.08 388.664 137.08 386.618C145.508 383.17 154.021 379.976 162.881 377.785C171.317 375.7 179.869 374.622 188.549 375.212C192.577 375.484 196.616 376.065 200.565 376.905C205.504 377.957 210.316 377.857 215.21 376.726C222.184 375.116 229.282 374.749 236.408 375.237C244.353 375.781 252.081 377.502 259.673 379.873C269.104 382.817 278.208 386.618 287.277 390.492C293.201 393.022 299.273 394.94 305.674 395.729C319.717 397.458 333.214 395.933 345.774 388.91C345.964 388.804 346.168 388.724 346.601 388.87C346.196 389.308 345.798 389.754 345.382 390.182C339.597 396.13 332.696 400.4 325.133 403.688C318.576 406.537 311.821 408.67 304.65 409.197C297.336 409.733 290.1 409.142 282.969 407.372C275.214 405.446 267.916 402.438 261.166 398.142C256.162 394.957 251.172 391.752 246.196 388.526C242.492 386.126 238.736 383.832 234.584 382.274C229.4 380.328 224.104 379.753 218.669 381.037C218.166 381.156 217.677 381.322 216.753 381.59C226.406 385.894 235.298 390.758 243.734 396.432C252.13 402.078 259.992 408.389 267.461 415.473C264.804 417.521 262.288 419.442 259.796 421.394C259.312 421.773 258.922 422.272 258.489 422.716H257.432C257.136 422.229 256.91 421.677 256.533 421.266C253.512 417.978 250.592 414.585 247.4 411.473C236.072 400.428 223.265 391.482 208.925 384.756C208.013 384.329 207.254 384.209 206.288 384.668C187.801 393.421 171.898 405.546 158.637 421.126C158.234 421.598 157.964 422.184 157.632 422.716H156.574Z" fill="white"/>
<path d="M0 204.687C0.230667 203.671 0.569333 202.667 0.670667 201.639C0.993333 198.366 1.224 195.082 1.50267 191.805C1.53067 191.465 1.63733 191.13 1.70267 190.819C2.59467 190.438 3.10667 190.714 3.36267 191.559C3.61867 192.402 3.96267 193.225 4.13733 194.082C4.32533 195.007 4.86533 195.321 5.72667 195.387C7.308 195.509 8.884 195.689 10.4627 195.829C15.7267 196.297 20.992 196.761 26.2573 197.219C26.6667 197.255 27.08 197.258 27.4907 197.25C31.6413 197.169 33.9773 195.282 34.6493 191.191C34.9107 189.598 34.94 187.901 34.7027 186.306C34.2813 183.486 32.532 181.614 29.728 181.009C27.4987 180.527 25.216 180.263 22.9453 179.994C17.932 179.398 12.912 178.858 7.89333 178.302C7.376 178.246 6.85333 178.243 6.24667 178.21C5.61333 179.377 4.96667 180.489 4.40133 181.639C4.012 182.433 3.48533 182.635 2.468 182.189C2.952 177.915 3.44533 173.569 3.932 169.262C5.00667 168.937 5.488 169.23 5.69467 170.21C5.96 171.463 6.36267 172.689 6.73467 174.03C9.584 174.378 12.372 174.723 15.1627 175.057C19.068 175.522 22.9747 175.978 26.8813 176.441C33.1547 177.182 36.7427 180.654 37.608 187.545C37.9907 190.605 37.612 193.651 36.6187 196.589C34.88 201.733 31.1933 204.337 25.7853 204.011C20.0413 203.667 14.308 203.134 8.56933 202.69C7.05333 202.573 5.53467 202.483 3.92933 202.375C3.2 203.842 2.49867 205.253 1.78 206.697C1.15333 206.735 0.576 206.77 0 206.805V204.687Z" fill="white"/>
<path d="M118.202 149.102C118.657 149.797 118.978 150.39 119.394 150.908C123.74 156.322 128.954 160.768 134.726 164.585C138.557 167.117 142.576 169.31 146.752 171.217C147.125 171.388 147.505 171.546 147.873 171.729C149.506 172.544 149.684 172.945 149.076 174.633C147.964 177.729 146.785 180.801 145.716 183.91C141.524 196.097 138.197 208.517 136.21 221.256C135.36 226.706 134.94 232.224 134.326 237.71C134.288 238.06 134.302 238.42 134.225 238.761C134.086 239.38 133.662 239.645 133.045 239.502C132.649 239.41 132.26 239.262 131.882 239.104C124.561 236.037 117.38 232.689 110.629 228.476C110.178 228.194 109.658 228.026 109.072 227.762C108.777 228.876 109.476 229.162 109.945 229.506C113.304 231.98 116.589 234.57 120.082 236.837C123.724 239.2 127.521 241.338 131.353 243.38C133.178 244.352 133.878 245.637 133.806 247.606C133.388 258.98 134.124 270.282 136.11 281.489C136.704 284.84 137.518 288.152 138.258 291.476C138.361 291.94 138.62 292.369 138.806 292.816C138.962 292.794 139.117 292.773 139.272 292.753C139.286 292.221 139.345 291.685 139.308 291.157C139.046 287.582 138.718 284.012 138.501 280.434C138.001 272.216 137.756 263.992 138.132 255.76C138.237 253.47 138.338 251.18 138.47 248.892C138.502 248.333 138.648 247.781 138.777 247.016C139.541 247.262 140.09 247.398 140.608 247.612C153.881 253.065 167.668 256.63 181.856 258.598C187.26 259.346 192.724 259.661 198.16 260.177C199.212 260.277 200.27 260.348 201.313 260.518C202.525 260.717 203.358 261.392 203.524 262.685C203.628 263.498 203.746 264.317 203.761 265.134C204.05 281.533 204.325 297.932 204.602 314.329C204.608 314.624 204.614 314.918 204.598 315.212C204.501 316.894 203.882 317.562 202.192 317.558C199.43 317.553 196.661 317.569 193.91 317.369C187.468 316.9 181.026 316.377 174.598 315.74C170.804 315.365 167.034 314.726 163.252 314.214C162.885 314.165 162.512 314.174 162.141 314.157C162.101 314.278 162.062 314.401 162.024 314.524C162.732 314.856 163.422 315.232 164.15 315.513C168.058 317.016 172.13 317.908 176.23 318.673C184.434 320.206 192.708 321.229 201.024 321.921C201.608 321.97 202.192 322.05 202.772 322.14C204.536 322.41 204.969 322.828 205.101 324.642C205.268 326.929 205.352 329.22 205.473 331.509C205.6 333.916 205.736 336.322 205.848 338.73C205.882 339.482 205.853 340.237 205.853 341.232C205.157 341.232 204.534 341.241 203.913 341.23C183.216 340.869 163.83 335.504 145.93 325.244C113.578 306.698 91.8836 279.492 81.0476 243.752C77.3383 231.518 75.6743 218.949 75.9503 206.174C76.3836 186.178 81.3596 167.268 90.1036 149.334C98.425 132.264 109.626 117.369 124.113 105.036C141.185 90.5023 160.788 81.3129 182.848 77.3143C193.369 75.4076 203.965 74.8569 214.616 75.3849C221.894 75.7463 229.161 76.4036 236.19 78.4809C238.766 79.2423 241.274 80.2889 243.732 81.3889C245.669 82.2556 247.361 83.5676 248.736 85.2196C251.83 88.9383 252.63 94.2823 247.824 98.3423C245.32 100.458 242.433 101.878 239.406 103.05C233.57 105.313 227.489 106.609 221.322 107.52C215.266 108.413 209.172 108.825 203.049 108.585C193.694 108.22 184.404 107.336 175.45 104.386C173.008 103.582 170.588 102.589 168.337 101.354C166.352 100.265 164.614 98.7209 162.77 97.3729C162.33 97.0529 161.901 96.7183 161.474 96.3969C160.733 97.2343 161.134 97.8623 161.502 98.3316C162.658 99.8009 163.769 101.348 165.138 102.6C168.117 105.324 171.65 107.23 175.365 108.742C178.024 109.824 180.781 110.665 183.496 111.613C183.822 111.728 184.15 111.84 184.616 112C184.318 112.448 184.101 112.836 183.826 113.18C171.477 128.664 161.518 145.581 153.569 163.704C153.216 164.509 152.816 165.294 152.421 166.082C151.986 166.952 151.298 167.238 150.374 166.909C149.71 166.674 149.046 166.44 148.389 166.186C141.961 163.714 135.741 160.814 129.886 157.165C126.386 154.984 123.078 152.549 120.052 149.74C119.65 149.366 119.345 148.745 118.202 149.102Z" fill="white"/>
<path d="M203.673 218.183C203.673 225.119 203.681 232.055 203.669 238.99C203.665 242.163 203.625 245.338 203.596 248.51C203.592 248.921 203.575 249.334 203.524 249.742C203.333 251.27 202.868 251.809 201.379 252.106C200.751 252.23 200.096 252.267 199.453 252.265C179.864 252.179 160.761 249.069 142.144 242.983C139.049 241.973 139.024 241.929 139.299 238.765C140.06 229.978 141.471 221.285 143.231 212.649C145.699 200.545 148.96 188.667 153.452 177.146C154.485 174.493 154.484 174.49 157.251 175.439C166.891 178.749 176.775 181.01 186.891 182.215C190.852 182.687 194.837 182.958 198.812 183.325C199.513 183.389 200.219 183.443 200.912 183.565C202.629 183.862 203.592 184.874 203.805 186.625C203.891 187.322 203.892 188.033 203.892 188.737C203.897 198.553 203.896 208.367 203.896 218.183C203.821 218.183 203.748 218.183 203.673 218.183Z" fill="white"/>
<path d="M211.314 218.432C211.314 208.913 211.314 199.394 211.314 189.874C211.314 189.052 211.277 188.228 211.315 187.406C211.427 185.005 212.682 183.752 215.057 183.602C218.454 183.389 221.857 183.221 225.249 182.936C236.345 182.002 247.201 179.848 257.797 176.413C260.871 175.416 261.087 175.476 262.122 178.485C266.694 191.77 270.346 205.305 272.874 219.13C273.761 223.98 274.459 228.864 275.213 233.736C275.329 234.484 275.333 235.261 275.291 236.02C275.173 238.134 273.986 239.51 272.085 240.252C269.57 241.232 267.046 242.197 264.485 243.044C254.317 246.406 243.922 248.842 233.298 250.172C227.186 250.937 221.035 251.381 214.901 251.966C214.551 252 214.197 252.01 213.845 252.002C212.125 251.969 211.674 251.538 211.555 249.814C211.527 249.405 211.537 248.992 211.537 248.581C211.535 238.532 211.535 228.481 211.535 218.432C211.462 218.432 211.387 218.432 211.314 218.432Z" fill="white"/>
<path d="M210.906 291.238C211.046 281.142 211.155 272.976 211.273 264.81C211.327 261.079 211.862 260.564 215.562 260.436C233.546 259.819 251.202 257.216 268.361 251.639C269.755 251.186 271.137 250.687 272.531 250.231C273.086 250.05 273.654 249.884 274.229 249.782C275.865 249.491 276.471 249.903 276.811 251.574C276.962 252.318 277.051 253.084 277.073 253.843C277.347 263.839 277.115 273.82 276.025 283.766C275.442 289.079 274.543 294.34 273.298 299.547C272.65 302.25 271.214 303.9 268.582 304.932C255.849 309.924 242.751 313.522 229.215 315.452C224.049 316.19 218.846 316.706 213.645 317.172C210.357 317.467 210.181 317.207 210.266 313.975C210.485 305.754 210.727 297.531 210.906 291.238Z" fill="white"/>
<path d="M317.621 206.003C317.584 208.068 317.156 209.643 316.05 210.951C315.217 211.936 314.334 212.888 313.396 213.772C306.145 220.614 298.213 226.563 289.705 231.746C288.857 232.262 287.938 232.674 287.021 233.059C286.229 233.391 285.609 233.088 285.374 232.262C285.104 231.304 284.838 230.331 284.72 229.346C282.926 214.304 279.484 199.635 274.742 185.264C273.584 181.754 272.284 178.288 271.038 174.806C270.193 172.442 270.502 171.595 272.738 170.38C275.626 168.81 278.568 167.334 281.405 165.678C286.246 162.854 290.669 159.459 294.654 155.507C294.738 155.423 294.822 155.342 294.908 155.26C296.769 153.492 297.244 153.543 298.561 155.839C303.277 164.06 307.254 172.631 310.561 181.511C313.166 188.506 315.4 195.618 317.088 202.894C317.352 204.034 317.486 205.204 317.621 206.003Z" fill="white"/>
<path d="M206.045 115.146C205.946 117.554 205.872 119.771 205.76 121.988C205.588 125.391 205.321 128.791 205.217 132.196C204.902 142.535 204.646 152.875 204.366 163.214C204.284 166.268 204.221 169.324 204.11 172.378C204.017 174.92 203.205 175.691 200.63 175.74C194.742 175.852 188.893 175.31 183.066 174.562C175.728 173.62 168.446 172.334 161.297 170.388C160.278 170.111 159.258 169.824 158.265 169.471C157.066 169.044 156.932 168.723 157.297 167.474C157.412 167.08 157.566 166.698 157.725 166.319C165.504 147.819 175.248 130.448 187.39 114.442C188.304 113.238 189.136 112.987 190.626 113.23C194.908 113.924 199.233 114.352 203.542 114.882C204.296 114.974 205.052 115.042 206.045 115.146Z" fill="white"/>
<path d="M229.489 113.659C232.914 118.399 236.116 123.371 239.114 128.492C239.637 129.383 240.153 130.279 240.662 131.179C241.21 132.146 241.75 133.118 242.284 134.094C241.641 134.927 241.024 135.63 240.516 136.404C238.436 139.575 238.558 143.71 240.98 146.604C242.322 148.208 244.072 149.314 246.306 149.31C247.129 149.308 247.953 149.328 248.776 149.323C248.98 149.322 249.389 149.826 249.924 150.659C250.308 151.259 250.758 152.031 251.244 152.91C253.117 156.307 255.513 161.292 256.697 164.103C257.524 166.067 257.074 166.856 255.07 167.611C249.729 169.624 244.224 171.067 238.657 172.286C230.844 173.996 222.976 175.292 214.952 175.43C211.732 175.486 211.117 174.975 211.064 171.736C210.954 165.27 210.94 158.802 210.793 152.336C210.529 140.642 210.196 128.948 209.894 117.254C209.878 116.626 209.893 115.995 209.893 115.322C216.444 114.766 222.804 114.227 229.489 113.659Z" fill="white"/>
<path d="M31.9668 353.528C32.4348 353.647 32.5668 353.64 32.6321 353.703C38.5761 359.451 45.8708 362.751 53.6121 365.186C61.3775 367.628 69.3655 368.966 77.4761 369.492C82.1628 369.796 86.8628 369.926 91.5588 370.06C99.3935 370.287 107.1 371.532 114.799 372.852C117.98 373.398 121.14 374.07 124.317 374.636C125.089 374.774 125.895 374.723 126.684 374.759C126.711 374.646 126.739 374.532 126.765 374.419C126.444 374.25 126.139 374.015 125.796 373.919C123.309 373.22 120.812 372.567 118.327 371.868C111.643 369.99 105.671 366.842 100.836 361.78C99.4641 360.343 98.1455 358.791 97.1175 357.1C93.0268 350.376 89.0548 343.58 85.0521 336.802C83.2601 333.767 81.4988 330.714 79.7281 327.667C79.5948 327.438 79.4961 327.19 79.6121 326.722C80.1308 327.052 80.6535 327.376 81.1668 327.715C88.2041 332.35 94.6655 337.715 100.943 343.314C106.644 348.398 112.385 353.442 118.02 358.6C126.195 366.084 135.765 370.81 146.48 373.364C149.501 374.086 152.523 374.811 155.689 375.57C154.848 376.359 153.861 376.335 153.013 376.34C146.525 376.382 140.375 378.203 134.188 379.818C126.576 381.803 118.98 383.844 111.196 385.064C102.993 386.35 94.7455 387.278 86.4561 386.304C66.1961 383.927 48.9588 375.75 36.0881 359.463C34.6561 357.65 33.4415 355.664 31.9668 353.528Z" fill="white"/>
<path d="M290.577 374.816C291.497 374.731 292.427 374.7 293.336 374.554C301.332 373.258 309.296 371.718 317.327 370.712C322.672 370.043 328.109 370.091 333.508 369.884C344.056 369.479 354.452 368.14 364.541 364.9C370.105 363.114 375.416 360.772 380.196 357.363C381.811 356.211 383.301 354.884 385.181 353.37C384.665 354.27 384.359 354.858 384.003 355.414C378.233 364.411 370.568 371.4 361.291 376.614C349.047 383.495 335.905 386.999 321.823 386.623C312.928 386.384 304.163 385.06 295.524 382.956C288.681 381.29 281.868 379.499 275.031 377.808C271.663 376.976 268.256 376.386 264.761 376.379C263.737 376.376 262.715 376.094 261.691 375.939C261.688 375.807 261.685 375.675 261.683 375.543C263.231 375.176 264.795 374.86 266.325 374.431C270.788 373.184 275.295 372.058 279.68 370.578C286.035 368.435 291.759 365.062 296.809 360.65C303.892 354.463 310.873 348.163 317.912 341.927C323.725 336.778 329.759 331.908 336.249 327.627C336.776 327.28 337.315 326.951 338.064 326.802C337.848 327.171 337.632 327.542 337.417 327.912C334.953 332.188 332.513 336.479 330.02 340.736C327.14 345.655 324.232 350.556 321.303 355.444C315.88 364.494 307.688 369.651 297.661 372.216C295.785 372.696 293.913 373.192 292.047 373.708C291.509 373.856 290.999 374.096 290.476 374.295C290.509 374.468 290.544 374.643 290.577 374.816Z" fill="white"/>
<path d="M279.615 299.332C279.765 298.779 279.893 298.22 280.065 297.675C282.839 288.906 284.513 279.922 285.393 270.775C286.053 263.924 286.447 257.058 286.245 250.184C286.133 246.388 287.69 244.068 291.017 242.391C300.65 237.532 309.634 231.662 317.75 224.514C318.621 223.746 319.473 222.958 320.558 221.978C320.713 222.923 320.837 223.592 320.931 224.267C322.265 233.735 322.306 243.242 321.673 252.758C321.462 255.92 321.274 259.108 320.703 262.216C319.581 268.339 316.63 273.534 312.137 277.876C305.502 284.287 298.041 289.57 290.11 294.218C287.275 295.879 284.349 297.386 281.457 298.948C280.957 299.219 280.419 299.422 279.899 299.656C279.805 299.548 279.71 299.44 279.615 299.332Z" fill="white"/>
<path d="M73.3947 352.065C72.332 350.905 71.2813 349.733 70.204 348.586C62.4427 340.315 57.868 330.493 56.1187 319.343C55.1 312.846 54.256 306.321 53.34 299.806C52.5453 294.154 51.4733 288.567 49.4773 283.194C49.4 282.986 49.3853 282.754 49.328 282.47C49.4933 282.575 49.6093 282.611 49.664 282.69C55.6853 291.343 61.3 300.255 65.0267 310.159C67.0493 315.534 68.504 321.125 70.1253 326.645C71.8627 332.563 73.5467 338.495 75.9133 344.205C78.5933 350.666 82.0733 356.621 86.9733 361.677C87.0933 361.801 87.1773 361.958 87.336 362.179C87.1453 362.214 86.9947 362.294 86.8867 362.255C80.4507 359.935 73.732 358.774 67.0653 357.399C62.0013 356.357 56.9733 355.187 52.1493 353.27C48.0773 351.651 44.324 349.505 40.9347 346.719C30.6227 338.249 22.196 328.274 16.516 316.106C14.3427 311.453 12.788 306.599 11.792 301.563C11.7253 301.223 11.708 300.874 11.832 300.45C12.008 300.757 12.216 301.05 12.356 301.374C15.7707 309.278 20.9693 315.805 27.9173 320.83C31.956 323.749 36.248 326.326 40.4973 328.941C44.4987 331.403 48.6373 333.643 52.6387 336.105C57.056 338.822 61.0707 342.058 64.7867 345.702C66.956 347.83 69.4507 349.629 71.8227 351.549C72.2333 351.881 72.7587 352.071 73.2307 352.329L73.3947 352.065Z" fill="white"/>
<path d="M329.812 362.312C331.146 360.752 332.372 359.408 333.498 357.982C337.884 352.43 340.908 346.137 343.126 339.472C344.995 333.849 346.811 328.192 348.26 322.45C351.568 309.34 357.502 297.497 365.04 286.381C365.858 285.176 366.691 283.984 367.743 282.9C367.668 283.214 367.622 283.541 367.515 283.845C365.411 289.866 364.378 296.116 363.523 302.406C362.535 309.676 361.815 316.984 360.132 324.149C358.032 333.1 353.872 340.94 347.756 347.769C346.48 349.194 345.191 350.609 344.098 352.296C344.583 352.026 345.116 351.818 345.544 351.478C347.612 349.838 349.84 348.344 351.667 346.464C357.008 340.965 363.242 336.72 369.819 332.902C374.543 330.162 379.288 327.456 383.948 324.612C387.968 322.157 391.675 319.269 395.016 315.926C399.007 311.934 402.151 307.364 404.502 302.24C404.722 301.761 404.952 301.286 405.184 300.813C405.206 300.769 405.272 300.749 405.514 300.586C405.446 301.186 405.426 301.66 405.334 302.117C403.427 311.604 399.363 320.137 393.842 328.014C388.643 335.43 382.422 341.884 375.319 347.486C370.151 351.564 364.202 354.037 357.88 355.596C352.642 356.888 347.323 357.85 342.074 359.102C338.198 360.026 334.376 361.181 330.53 362.228C330.368 362.272 330.192 362.269 329.812 362.312Z" fill="white"/>
<path d="M235.279 112.186C236.165 111.922 236.829 111.722 237.493 111.526C242.066 110.181 246.545 108.587 250.619 106.069C251.678 105.415 252.349 105.847 253.155 106.379C262.567 112.598 271.077 119.882 278.593 128.283C282.035 132.131 285.198 136.23 288.439 140.255C289.131 141.114 289.687 142.107 290.167 143.105C290.837 144.498 290.657 145.879 289.607 147.038C288.782 147.949 287.887 148.807 286.965 149.622C281.47 154.47 275.321 158.347 268.866 161.766C268.457 161.982 268.006 162.146 267.555 162.257C266.723 162.461 266.047 162.209 265.625 161.425C265.346 160.907 265.077 160.386 264.811 159.863C261.691 153.743 258.562 147.63 255.467 141.497C255.023 140.615 254.627 139.673 254.426 138.713C254.011 136.743 252.711 135.429 251.358 134.115C250.983 133.753 250.603 133.373 250.321 132.939C245.874 126.081 241.117 119.45 235.926 113.135C235.742 112.911 235.597 112.655 235.279 112.186Z" fill="white"/>
<path d="M327.014 195.644C326.494 193.796 326.045 192.16 325.571 190.53C321.369 176.078 315.582 162.32 307.563 149.545C307.002 148.65 306.425 147.764 305.845 146.881C304.899 145.442 304.803 143.913 305.386 142.333C305.914 140.901 306.514 139.497 307.041 138.065C309.009 132.713 310.119 127.232 309.471 121.493C309.462 121.408 309.562 121.308 309.665 121.112C309.89 121.314 310.111 121.482 310.294 121.685C320.949 133.473 329.146 146.697 333.762 162.001C334.711 165.146 335.663 168.281 335.219 171.669C334.498 177.177 333.142 182.508 331.007 187.626C330.059 189.898 328.929 192.096 327.861 194.317C327.667 194.721 327.378 195.08 327.014 195.644Z" fill="white"/>
<path d="M209.103 341.206C209.035 340.818 208.971 340.647 208.98 340.481C209.279 335.258 209.571 330.034 209.898 324.813C210.024 322.787 210.598 322.269 212.667 322.237C230.77 321.966 248.411 318.906 265.674 313.523C266.612 313.23 267.584 313.049 268.899 312.727C268.706 313.567 268.652 314.123 268.451 314.619C266.211 320.142 263.424 325.37 259.931 330.202C259.512 330.779 258.835 331.278 258.17 331.551C250.32 334.767 242.203 337.097 233.878 338.693C226.482 340.11 219.027 341.029 211.491 341.203C210.734 341.221 209.976 341.206 209.103 341.206Z" fill="white"/>
<path d="M259.716 85.7217C260.227 85.8737 260.508 85.9324 260.771 86.0404C270.579 90.0871 279.903 95.0137 288.344 101.484C290.574 103.192 292.632 105.142 294.642 107.11C298.475 110.864 300.308 115.498 300.458 120.858C300.563 124.651 300.219 128.363 298.999 131.97C298.811 132.524 298.623 133.084 298.375 133.614C297.723 135.012 297.166 135.124 295.986 134.088C295.547 133.702 295.147 133.264 294.764 132.82C284.331 120.686 272.166 110.626 258.43 102.446C257.976 102.175 257.532 101.888 257.094 101.596C257.004 101.536 256.954 101.418 256.806 101.219C257.059 100.83 257.35 100.41 257.611 99.9724C258.392 98.6644 259.328 97.4191 259.906 96.0257C261.552 92.0551 261.367 89.9431 259.716 85.7217Z" fill="white"/>
<path d="M48.6583 326.004C48.2477 325.649 48.0277 325.473 47.825 325.281C43.2583 320.961 38.865 316.439 34.0903 312.364C26.6077 305.979 21.9303 297.992 19.4677 288.593C17.2383 280.087 16.8117 271.424 17.5743 262.704C17.8957 259.025 18.5357 255.375 19.037 251.711C19.073 251.453 19.169 251.204 19.249 250.908C19.4477 251.047 19.5957 251.092 19.6183 251.173C21.829 259.277 25.549 266.747 29.353 274.171C31.897 279.137 34.4957 284.08 37.2383 288.939C41.2997 296.133 43.7637 303.864 45.4623 311.897C46.373 316.201 47.457 320.471 48.457 324.757C48.533 325.081 48.565 325.417 48.6583 326.004Z" fill="white"/>
<path d="M398.039 250.683C398.381 252.613 398.735 254.301 398.97 256.006C400.55 267.459 400.589 278.853 397.366 290.074C394.854 298.814 390.279 306.21 383.323 312.207C378.437 316.422 373.901 321.045 369.206 325.482C369.082 325.599 368.937 325.694 368.601 325.954C368.689 325.425 368.726 325.077 368.805 324.737C370.126 319.019 371.434 313.298 372.781 307.586C374.231 301.441 376.434 295.589 379.441 290.017C383.289 282.885 387.066 275.713 390.719 268.479C393.501 262.975 395.986 257.329 397.578 251.337C397.618 251.186 397.766 251.063 398.039 250.683Z" fill="white"/>
<path d="M346.678 65.2076C346.15 65.4262 345.616 65.6316 345.096 65.8662C337.656 69.2182 330.223 72.5849 322.774 75.9129C322.135 76.1996 321.51 76.9502 320.69 76.3529C319.762 75.6756 320.37 74.8476 320.578 74.1076C322.759 66.3676 324.964 58.6342 327.158 50.8969C327.36 50.1809 327.528 49.4556 327.712 48.7329L327.344 48.5356C322.756 54.2876 318.168 60.0382 313.534 65.8476C314.058 66.9649 314.52 68.0396 315.058 69.0742C315.484 69.8942 315.446 70.5182 314.327 71.0449C311.16 68.7596 307.899 66.4049 304.634 64.0476C304.932 62.9622 305.476 62.7876 306.382 63.1249C307.478 63.5342 308.616 63.8289 310.086 64.2796C310.27 64.0036 310.496 63.5876 310.792 63.2289C316.254 56.6142 321.702 49.9876 327.216 43.4169C327.998 42.4836 328.112 41.7556 327.462 40.7756C327.075 40.1929 326.859 39.5009 326.502 38.8956C326.006 38.0569 326.2 37.4556 327.168 36.9169C330.126 39.0902 333.139 41.3062 336.286 43.6196C333.887 52.0876 331.498 60.5209 328.992 69.3662C337.284 65.5942 345.17 62.0076 352.838 58.5196C355.587 61.1929 358.224 63.7569 360.883 66.3422C360.584 67.1956 360.084 67.5196 359.151 67.1209C358.346 66.7756 357.454 66.6276 356.656 66.2676C355.802 65.8809 355.248 66.1436 354.655 66.7676C352.507 69.0222 350.322 71.2396 348.15 73.4716C344.256 77.4716 340.363 81.4702 336.472 85.4716C336.228 85.7222 336.011 85.9969 335.671 86.3862C336.37 87.7649 337.078 89.1622 337.823 90.6342C337.518 90.9862 337.228 91.3196 336.947 91.6436C333.547 88.1182 330.215 84.6622 326.698 81.0142C326.832 80.4076 327.496 80.2649 328.432 80.5969C329.476 80.9676 330.538 81.2929 331.72 81.6796C336.794 76.2822 341.848 70.9036 346.904 65.5249C346.828 65.4196 346.754 65.3129 346.678 65.2076Z" fill="white"/>
<path d="M134.729 31.0405C135.716 30.6219 136.424 30.3432 137.115 30.0259C142.955 27.3339 142.288 21.4805 139.323 18.1765C138.056 16.7659 136.437 16.2459 134.549 16.4979C132.697 16.7445 131.127 17.6272 129.404 18.6045C131.173 22.7352 132.919 26.8112 134.729 31.0405ZM135.589 33.3899C137.464 37.8045 139.271 42.0552 141.132 46.4379C142.669 45.7152 144.089 45.1565 145.401 44.4085C147.912 42.9779 148.997 40.5405 148.468 37.6779C148.176 36.0925 147.5 34.6579 146.423 33.4445C145.275 32.1512 143.817 31.4712 142.085 31.4125C139.772 31.3339 137.744 32.1872 135.589 33.3899ZM131.923 53.0752C131.203 52.4285 131.089 51.8645 131.792 51.2405C132.319 50.7725 132.808 50.2619 133.309 49.7672C134.587 48.5099 134.591 48.5072 133.915 46.9259C131.884 42.1739 129.847 37.4245 127.816 32.6712C126.477 29.5392 125.111 26.4179 123.829 23.2619C123.437 22.2952 122.897 21.8699 121.856 21.9472C121.04 22.0072 120.212 21.9072 119.391 21.9219C118.591 21.9365 118.191 21.5752 118.157 20.6299C118.491 20.4459 118.867 20.1912 119.279 20.0179C124.151 17.9725 129.017 15.9139 133.909 13.9152C136.259 12.9565 138.653 12.2352 141.275 12.7579C147.184 13.9365 149.741 20.2965 146.165 25.1405C145.443 26.1192 144.464 26.9125 143.583 27.7712C143.22 28.1259 142.807 28.4272 142.271 28.8752C143.887 28.6725 145.269 28.3965 146.66 28.3485C149.852 28.2365 152.401 29.4565 153.971 32.3325C155.584 35.2872 155.644 38.2832 153.925 41.2285C152.955 42.8912 151.561 44.1659 149.884 45.0725C148.389 45.8819 146.835 46.5872 145.28 47.2779C141.363 49.0165 137.432 50.7245 133.503 52.4392C132.972 52.6712 132.428 52.8725 131.923 53.0752Z" fill="white"/>
<path d="M16.5054 153.597C23.9534 156.035 31.4014 158.475 38.9001 160.931C39.7561 159.991 40.5787 159.157 41.3187 158.254C41.9374 157.501 42.5294 157.449 43.3267 158.174C42.1294 161.847 40.9174 165.567 39.7107 169.269C38.636 169.33 38.2054 168.893 38.1587 167.942C38.0987 166.721 37.9627 165.503 37.8547 164.213C28.7641 161.282 19.7947 158.391 10.7707 155.482C9.86272 156.565 9.01605 157.531 8.21738 158.538C7.68405 159.21 7.13605 159.383 6.31738 158.707C6.43205 158.266 6.54005 157.765 6.69338 157.278C7.43605 154.927 8.25605 152.599 8.91738 150.227C9.27472 148.946 10.008 148.334 11.2374 147.918C19.4067 145.154 27.5521 142.319 35.7041 139.507C36.2374 139.323 36.7667 139.127 37.3214 138.762C31.2387 136.287 25.0521 134.195 18.7801 131.918C17.9374 132.815 17.112 133.715 16.2627 134.594C15.54 135.341 15.528 135.329 14.22 134.694C15.576 130.919 16.94 127.126 18.308 123.318C19.236 123.215 19.7547 123.445 19.7734 124.389C19.788 125.211 19.928 126.039 19.86 126.851C19.7454 128.225 20.4387 128.775 21.644 129.201C28.2281 131.523 34.7867 133.919 41.3534 136.295C44.2734 137.351 47.1894 138.417 50.0827 139.469C49.8547 141.853 49.748 141.946 47.7294 142.625C37.9427 145.915 28.1614 149.223 18.38 152.53C17.7734 152.735 17.184 152.993 16.5854 153.226C16.5587 153.349 16.532 153.473 16.5054 153.597Z" fill="white"/>
<path d="M283.776 42.8938C283.81 44.9391 284.155 46.8858 285.131 48.6831C287.05 52.2151 290.776 53.7564 294.539 52.3538C296.099 51.7711 297.644 50.8991 298.912 49.8231C303.158 46.2231 305.836 41.6018 307.058 36.1738C307.484 34.2751 307.452 32.3378 307.027 30.4111C305.776 24.7471 297.282 20.1458 291.292 25.9338C286.519 30.5458 284.33 36.3804 283.776 42.8938ZM292.78 56.2364C289.255 56.1351 284.58 54.1964 280.943 50.1378C277.379 46.1618 276.547 41.4031 277.652 36.2951C278.551 32.1418 280.43 28.4324 283.38 25.3471C287.938 20.5831 293.451 19.1444 299.792 20.8538C302.779 21.6591 305.498 23.0324 307.896 24.9791C312.995 29.1178 314.651 34.4591 312.968 40.7311C311.702 45.4471 309.071 49.3898 305.247 52.4618C302.176 54.9298 298.666 56.2764 292.78 56.2364Z" fill="white"/>
<path d="M116.378 53.9258C116.367 53.7458 116.381 53.2111 116.299 52.6924C115.397 46.9338 112.813 42.0378 108.651 37.9804C107.207 36.5724 105.511 35.5551 103.578 34.9138C97.6075 32.9324 89.9021 38.4764 91.5261 45.6818C93.1008 52.6738 97.1915 57.9391 103.307 61.6191C104.147 62.1244 105.13 62.4311 106.083 62.6938C107.633 63.1218 109.215 63.1404 110.77 62.6751C114.355 61.6004 116.378 58.5564 116.378 53.9258ZM121.669 47.0844C121.973 61.1244 110.862 68.8751 102.331 67.4084C101.07 67.1911 99.7621 66.9138 98.6288 66.3551C91.3581 62.7698 87.3461 56.8071 86.4768 48.8231C86.0008 44.4618 87.5448 40.5844 90.4675 37.3471C93.9141 33.5284 98.0981 30.9564 103.322 30.3831C107.398 29.9364 111.033 31.1004 114.075 33.7898C118.982 38.1271 121.531 43.6311 121.669 47.0844Z" fill="white"/>
<path d="M48.2391 77.1605C50.4631 78.7672 52.7325 80.4072 55.1271 82.1365C54.5938 82.8952 54.1325 83.5525 53.6111 84.2939C51.6431 83.7525 49.7258 83.2365 47.8165 82.6952C47.0418 82.4765 46.3458 82.4125 45.7005 83.0579C42.6645 86.0939 40.5111 89.5792 40.1831 93.9685C39.9978 96.4552 40.6751 98.7765 42.0578 100.817C45.0698 105.258 49.1245 108.343 54.3818 109.618C60.2805 111.049 66.7471 107.515 68.8285 101.686C67.7578 100.905 66.6365 100.079 65.5071 99.2659C64.3645 98.4432 63.2151 97.6339 61.9591 96.7405C60.8578 97.4099 59.7485 98.0459 58.6831 98.7472C57.9685 99.2165 57.3951 99.2179 56.7511 98.2885C59.6591 94.2965 62.6138 90.2419 65.5178 86.2579C65.7698 86.2445 65.9071 86.1925 65.9885 86.2405C66.2845 86.4125 66.5605 86.6192 66.8871 86.8405C66.5751 88.3685 66.2725 89.8539 65.9391 91.4832C68.5285 93.3792 71.1205 95.2779 73.8285 97.2632C73.5271 98.0365 73.2645 98.7365 72.9831 99.4299C71.6605 102.706 70.2098 105.931 67.9685 108.694C66.7925 110.145 65.5085 111.559 64.0618 112.731C59.5925 116.353 54.5458 117.142 49.1591 115.187C44.7471 113.586 41.1138 110.822 38.2738 107.093C35.0511 102.861 34.3405 98.1432 35.9285 93.0885C36.2778 91.9725 36.7338 90.8792 37.2525 89.8312C39.3045 85.6819 44.1965 80.0485 48.2391 77.1605Z" fill="white"/>
<path d="M372.626 84.1517C368.364 87.5024 364.338 90.6664 360.239 93.889C361.112 94.9904 361.808 95.929 362.568 96.8117C363.728 98.1624 365.204 98.8717 367.003 99.005C370.556 99.269 374.199 97.2357 375.772 93.9744C376.726 91.9984 376.742 89.9797 375.556 88.1037C374.719 86.7797 373.692 85.5744 372.626 84.1517ZM340.104 95.405C340.77 94.493 341.356 94.4837 342.078 94.9344C343.02 95.5237 344.008 96.041 345.087 96.6504C345.554 96.3157 346.034 95.9984 346.486 95.645C353.052 90.5104 359.596 85.345 366.202 80.2584C367.252 79.449 367.611 78.6824 367.15 77.4597C366.944 76.917 366.938 76.2997 366.742 75.7517C366.415 74.837 366.726 74.2904 367.712 73.9317C368.014 74.2784 368.37 74.6477 368.68 75.0504C371.37 78.5384 374.118 81.9824 376.707 85.5437C378.043 87.3824 379.356 89.3224 380.222 91.4064C382.703 97.3917 379.491 103.354 373.251 104.649C370.856 105.145 368.587 104.662 366.443 103.525C364.114 102.288 362.284 100.488 360.715 98.3997C359.978 97.4184 359.255 96.425 358.386 95.2477C355.395 97.5197 352.471 99.7397 349.443 102.04C349.74 103.314 349.99 104.568 350.332 105.796C350.582 106.686 350.251 107.124 349.299 107.373C346.252 103.408 343.191 99.4224 340.104 95.405Z" fill="white"/>
<path d="M340.225 187.441C342.551 202.197 342.019 216.606 338.719 230.905C336.642 239.905 333.509 248.518 328.99 256.585C328.873 256.556 328.754 256.528 328.637 256.498C328.794 255.434 328.929 254.366 329.11 253.306C330.925 242.712 331.249 232.049 330.571 221.34C330.438 219.229 330.338 217.116 330.146 215.01C329.933 212.656 330.402 210.45 331.435 208.354C331.954 207.301 332.485 206.248 333.099 205.25C336.213 200.2 338.273 194.729 339.647 188.98C339.729 188.638 339.815 188.297 339.915 187.96C339.946 187.853 340.029 187.762 340.225 187.441Z" fill="white"/>
<path d="M375.455 118.919C376.083 121.092 378.463 125.795 379.337 126.683C382.43 124.134 387.078 119.351 387.594 118.096C383.551 118.37 379.583 118.639 375.455 118.919ZM354.691 115.012C355.374 114.163 356.002 114.072 356.691 114.771C356.733 114.812 356.786 114.843 356.822 114.888C358.459 116.902 360.613 116.976 363.003 116.812C370.969 116.267 378.945 115.88 386.917 115.431C389.607 115.28 392.297 115.126 395.071 114.968C395.505 115.902 395.894 116.739 396.359 117.742C395.874 118.278 395.383 118.842 394.871 119.383C387.765 126.891 380.67 134.411 373.525 141.879C372.635 142.808 372.161 143.718 372.345 144.992C372.427 145.57 372.347 146.167 372.391 146.752C372.453 147.576 372.019 147.927 371.083 148.054C369.229 143.634 367.354 139.164 365.473 134.68C366.143 133.79 366.79 133.831 367.554 134.507C368.341 135.202 369.186 135.828 370.123 136.578C372.565 133.984 374.926 131.475 377.354 128.898C375.834 125.882 374.35 122.958 372.893 120.019C372.617 119.463 372.238 119.25 371.637 119.298C368.426 119.556 365.215 119.802 361.809 120.066C361.809 121.288 361.767 122.442 361.822 123.59C361.865 124.504 361.431 124.859 360.453 124.922C358.542 121.635 356.609 118.311 354.691 115.012Z" fill="white"/>
<path d="M412.105 168.569C409.116 169.352 406.455 170.048 403.58 170.798C403.368 170.042 403.175 169.349 402.949 168.545C404.653 167.354 406.235 166.14 407.928 165.105C409.048 164.421 409.311 163.581 408.931 162.446C408.281 160.505 407.799 158.472 406.881 156.662C404.051 151.084 399.008 148.616 392.845 149.682C389.632 150.24 386.648 151.456 383.948 153.318C377.707 157.624 377.411 164.534 380.06 170.05C380.351 170.657 380.747 170.929 381.396 170.992C383.089 171.154 384.78 171.357 386.471 171.545C386.989 171.602 387.508 171.662 388.128 171.733C388.316 172.426 388.493 173.08 388.719 173.912C385.881 174.528 383.204 175.109 380.389 175.72C378.181 172.085 376.199 168.385 375.255 164.214C374.721 161.858 374.44 159.492 374.807 157.054C375.268 153.984 376.428 151.236 378.675 149.129C383.776 144.346 389.804 142.01 396.853 142.964C401.093 143.537 404.361 145.849 406.908 149.209C409.527 152.666 410.879 156.654 411.459 160.898C411.797 163.384 411.889 165.904 412.105 168.569Z" fill="white"/>
<path d="M267.466 34.7062C268.158 34.8889 268.668 35.0182 269.173 35.1635C269.28 35.1942 269.369 35.2862 269.657 35.4769C268.822 38.0609 267.969 40.7022 267.093 43.4075C261.277 43.5115 255.692 43.0609 250.6 40.2155C245.541 37.3875 242.842 33.0249 242.561 27.2049C242.394 23.7489 242.977 20.4129 244.212 17.1942C246.724 10.6462 251.738 7.09152 258.742 6.85419C261.584 6.75685 264.368 7.16352 267.106 7.86619C270.432 8.71952 273.46 10.2542 276.554 12.0635C275.985 14.8702 275.154 17.5835 274.329 20.4009C273.921 20.3235 273.649 20.2395 273.373 20.2262C272.362 20.1769 271.969 19.6769 271.942 18.6529C271.897 16.9515 271.665 15.2555 271.609 13.5542C271.58 12.6542 271.224 12.1769 270.393 11.8742C266.9 10.6022 263.342 10.1102 259.672 10.9049C257.04 11.4755 254.841 12.8315 253.282 14.9995C249.896 19.7075 248.649 24.9835 249.777 30.6902C250.47 34.2035 252.529 36.8715 255.625 38.7035C257.364 39.7329 259.256 40.3222 261.232 40.7075C262.401 40.9369 263.198 40.6862 263.888 39.6235C264.969 37.9542 266.224 36.3955 267.466 34.7062Z" fill="white"/>
<path d="M416.463 207.679C413.295 207.917 410.27 208.145 407.07 208.387C406.983 207.696 406.907 207.084 406.809 206.303C409.114 205.235 411.383 204.184 413.801 203.065C413.659 200.703 413.519 198.376 413.365 195.799C403.645 196.52 394.073 197.231 384.406 197.948C383.993 199.659 383.598 201.245 383.229 202.839C383.039 203.659 382.65 204.112 381.679 203.775C381.218 197.848 380.754 191.892 380.286 185.885C381.163 185.465 381.694 185.659 382.038 186.593C382.585 188.077 383.211 189.532 383.889 191.207C393.454 190.479 403.023 189.751 412.813 189.007C412.613 186.631 412.433 184.428 412.238 182.227C412.177 181.544 411.613 181.469 411.098 181.329C409.455 180.884 407.815 180.431 406.177 179.969C405.731 179.843 405.298 179.679 404.79 179.509C404.718 178.901 404.65 178.335 404.555 177.545C407.866 177.283 411.061 177.029 414.441 176.761C415.877 187.076 416.771 197.261 416.463 207.679Z" fill="white"/>
<path d="M177.864 21.7846C175.819 18.0593 173.914 14.5913 171.959 11.03C171.114 12.5806 169.199 21.9073 169.415 23.3126C172.112 22.8246 174.808 22.338 177.864 21.7846ZM181.151 37.3886C180.598 36.4166 180.816 35.8366 181.61 35.334C182.494 34.774 183.314 34.1113 184.296 33.3953C182.556 30.25 180.862 27.1873 179.119 24.0366C175.583 24.7126 172.142 25.3713 168.563 26.0553C167.908 29.558 167.263 33.0033 166.578 36.6646C167.727 36.9753 168.772 37.2833 169.831 37.5366C170.687 37.7433 171.235 38.1153 170.896 39.3086C167.295 40.162 163.607 41.0353 159.876 41.918C159.304 41.202 159.292 40.6313 160.034 40.1206C160.131 40.054 160.22 39.9713 160.326 39.9233C162.522 38.9193 163.24 37.0726 163.726 34.8086C165.876 24.7686 168.196 14.7646 170.46 4.74997C170.575 4.24197 170.744 3.74597 170.924 3.11931C171.718 2.99264 172.511 2.86597 173.399 2.72464C173.768 3.3033 174.122 3.83264 174.448 4.37664C179.876 13.3766 185.316 22.37 190.702 31.3953C191.327 32.4433 192.06 33.0886 193.26 33.254C193.839 33.334 194.408 33.4993 194.968 33.67C195.692 33.8913 195.687 33.9113 195.983 35.334C191.056 36.0166 186.146 36.6966 181.151 37.3886Z" fill="white"/>
<path d="M54.8545 67.7998C58.4558 64.2811 62.0985 60.7224 65.7212 57.1838C66.7985 57.4624 66.9998 58.0091 66.5985 58.9064C66.0985 60.0251 65.6612 61.1718 65.1465 62.4278C71.9438 69.3571 78.7172 76.2611 85.6185 83.2958C87.8025 81.1771 89.8958 79.1464 92.0238 77.0838C91.4438 75.2718 90.8905 73.5438 90.3385 71.8158C89.7985 70.1198 89.7998 70.1184 91.2492 68.9038C92.3225 69.6318 96.0145 73.9998 96.8278 75.4278C91.1425 81.2851 85.5052 87.0918 79.8692 92.8984C78.8705 92.5451 78.5212 92.0851 78.9465 91.1478C79.4518 90.0318 79.8705 88.8758 80.3718 87.6224C78.5118 85.7251 76.6732 83.8384 74.8212 81.9638C70.3638 77.4504 65.8732 72.9678 61.4612 68.4091C60.5358 67.4531 59.7172 67.2078 58.5652 67.8398C58.0038 68.1478 57.3492 68.2838 56.7758 68.5744C55.9238 69.0078 55.3265 68.8384 54.8545 67.7998Z" fill="white"/>
<path d="M199.354 35.2107C199.052 34.3627 199.22 33.8667 200 33.572C201.149 33.1387 202.274 32.6387 203.528 32.1187C203.577 29.9987 203.646 27.896 203.669 25.7933C203.744 18.8587 203.776 11.924 203.889 4.99067C203.908 3.88667 203.621 3.22667 202.545 2.89067C201.821 2.664 201.149 2.27334 200.436 2.00667C199.617 1.7 199.344 1.18534 199.75 0.188003C204.75 -0.115997 209.828 0.0493358 214.856 0.0133358C215.341 1.068 214.989 1.54934 214.108 1.87067C213.01 2.272 211.946 2.764 210.652 3.30667V32.6707C211.953 32.728 213.344 32.7973 214.737 32.848C215.5 32.876 216.274 32.7973 217.025 32.9013C218.185 33.0613 218.862 32.66 219.357 31.5733C220.112 29.92 221.029 28.3413 221.925 26.6427H224.122C223.842 29.6173 223.57 32.5107 223.289 35.5C215.242 35.4027 207.341 35.3067 199.354 35.2107Z" fill="white"/>
<path d="M265.829 327.827C266.346 327.02 266.716 326.494 267.037 325.938C269.15 322.279 271.228 318.6 273.372 314.96C274.233 313.502 275.098 312.003 276.217 310.752C277.088 309.78 278.262 308.954 279.461 308.423C290.249 303.654 300.421 297.855 309.732 290.586C309.902 290.452 310.1 290.354 310.401 290.166C306.046 299.168 276.67 324.051 265.829 327.827Z" fill="white"/>
<path d="M63.0508 488.103H73.2934L97.9108 526.695H98.0694V488.103H108.233V544.721H97.9108L73.3734 506.049H73.2148V544.721H63.0508V488.103Z" fill="white"/>
<path d="M143.732 520.423V519.311C143.732 513.752 139.84 511.53 135.87 511.53C131.741 511.53 127.134 513.752 127.134 519.867V520.423H143.732ZM117.289 529.079V521.138C117.289 509.703 125.785 503.35 135.87 503.35C144.684 503.35 153.418 508.512 153.418 519.311V527.171H127.134V529.395C127.134 534.556 131.502 537.574 136.664 537.574C139.92 537.574 143.334 535.431 145.478 532.334L152.942 536.622C149.766 542.974 143.334 545.674 136.188 545.674C126.182 545.674 117.289 540.195 117.289 529.079Z" fill="white"/>
<path d="M164.141 535.113V511.767H158.662V504.063H164.141V491.754H173.829V504.063H182.642V511.767H173.829V532.81C173.829 535.827 175.417 536.702 177.641 536.702C179.625 536.702 180.738 536.621 182.642 536.303V544.562C180.498 545.117 176.926 545.355 175.497 545.355C169.223 545.355 164.141 542.338 164.141 535.113Z" fill="white"/>
<path d="M186.772 504.064H197.016L204.64 532.254H204.798L212.818 504.064H221.235L229.256 532.174H229.415L237.038 504.064H247.122L234.258 544.879H224.888L217.027 516.85H216.868L209.166 544.879H199.716L186.772 504.064Z" fill="white"/>
<path d="M277.3 529.474V519.39C277.3 514.466 273.488 511.606 268.485 511.606C264.436 511.606 259.989 513.752 259.989 519.629V529.632C259.989 534.557 263.8 537.493 268.804 537.493C272.853 537.493 277.3 535.35 277.3 529.474ZM250.143 529.713V520.422C250.143 509.384 259.512 503.349 268.485 503.349C278.332 503.349 287.145 509.86 287.145 520.262V528.6C287.145 539.638 277.776 545.673 268.804 545.673C258.956 545.673 250.143 540.114 250.143 529.713Z" fill="white"/>
<path d="M295.725 504.064H305.174V510.814H305.333C307.714 506.526 313.75 503.27 318.594 503.27C319.626 503.27 320.817 503.27 321.85 503.508V512.402C320.579 512.163 319.546 512.163 318.197 512.163C310.891 512.163 305.411 516.374 305.411 523.916V544.722H295.725V504.064Z" fill="white"/>
<path d="M328.601 488.103H338.289L338.367 520.819L353.217 504.063H364.731L350.199 519.39L365.367 544.721H354.487L343.609 526.139L338.289 531.858V544.721H328.601V488.103Z" fill="white"/>
<path d="M27.2745 626.191C32.9131 626.191 36.4865 623.412 36.4865 618.252C36.4865 613.089 33.2305 610.707 27.3545 610.707H14.0145V626.191H27.2745ZM26.4811 601.812C31.8011 601.812 34.8971 599.113 34.8971 594.508C34.8971 589.584 31.3251 587.519 26.0038 587.519H14.0145V601.812H26.4811ZM3.45312 578.547H27.7518C38.7091 578.547 45.2211 583.391 45.2211 593.157C45.2211 598.239 42.9985 602.449 37.2011 605.148V605.228C43.7118 606.975 46.9691 612.533 46.9691 618.885C46.9691 629.527 38.4705 635.164 29.1011 635.164H3.45312V578.547Z" fill="white"/>
<path d="M78.7328 620.156V618.171H69.2035C65.0755 618.171 62.3755 619.6 62.3755 623.174C62.3755 626.59 65.1541 628.336 69.6795 628.336C77.4621 628.336 78.7328 624.524 78.7328 620.156ZM52.9248 623.65C52.9248 615.788 60.0715 611.104 67.9328 611.104H78.7328V607.371C78.7328 603.083 75.8741 601.256 70.9501 601.256C66.7435 601.256 63.6461 602.687 63.6461 605.306V606.736H54.9115V605.624C54.9115 596.731 63.4075 593.714 71.0301 593.714C80.0835 593.714 88.4208 596.731 88.4208 606.656V626.428C88.4208 628.255 88.6595 634.29 89.1355 635.164H79.5275C79.3675 634.531 79.2101 632.067 79.1301 631.434H78.9715C75.3981 635.164 72.3008 635.959 67.0595 635.959C58.6421 635.959 52.9248 631.352 52.9248 623.65Z" fill="white"/>
<path d="M98.5068 594.508H107.956V599.509H108.115C110.815 595.62 115.103 593.713 119.628 593.713C128.762 593.713 133.843 599.432 133.843 609.12V635.165H124.155V611.581C124.155 605.466 121.535 602.21 116.611 602.21C111.291 602.21 108.194 605.466 108.194 612.376V635.165H98.5068V594.508Z" fill="white"/>
<path d="M169.103 618.885V609.833C169.103 604.909 165.291 602.051 160.288 602.051C156.239 602.051 151.792 604.195 151.792 610.072V619.043C151.792 623.968 155.603 626.907 160.607 626.907C164.656 626.907 169.103 624.761 169.103 618.885ZM142.581 640.96L151.792 637.705C153.697 641.436 156.476 643.025 159.971 643.025C165.848 643.025 169.103 639.293 169.103 633.576V629.288H168.944C166.324 632.861 162.591 634.608 158.065 634.608C148.217 634.608 141.945 629.049 141.945 618.647V610.867C141.945 599.828 148.933 593.713 157.907 593.713C162.671 593.713 166.959 596.253 169.103 599.351H169.261V594.507H178.472V631.748C178.472 641.199 173.152 650.807 159.097 650.807C152.507 650.807 144.645 647.631 142.581 640.96Z" fill="white"/>
<path d="M188.719 624.286V578.547H198.405V624.206C198.405 626.033 199.28 627.541 201.9 627.541C203.647 627.541 204.6 627.383 206.347 627.223V634.609C204.283 635.165 201.105 635.721 198.565 635.721C188.957 635.721 188.719 627.937 188.719 624.286Z" fill="white"/>
<path d="M236.364 620.156V618.171H226.834C222.706 618.171 220.006 619.6 220.006 623.174C220.006 626.59 222.785 628.336 227.312 628.336C235.093 628.336 236.364 624.524 236.364 620.156ZM210.556 623.65C210.556 615.788 217.702 611.104 225.564 611.104H236.364V607.371C236.364 603.083 233.505 601.256 228.582 601.256C224.374 601.256 221.277 602.687 221.277 605.306V606.736H212.542V605.624C212.542 596.731 221.038 593.714 228.661 593.714C237.714 593.714 246.052 596.731 246.052 606.656V626.428C246.052 628.255 246.29 634.29 246.766 635.164H237.158C236.998 634.531 236.84 632.067 236.761 631.434H236.602C233.028 635.164 229.932 635.959 224.69 635.959C216.273 635.959 210.556 631.352 210.556 623.65Z" fill="white"/>
<path d="M281.548 619.76V609.754C281.548 604.83 277.578 601.892 272.575 601.892C268.524 601.892 264.078 604.038 264.078 609.912V619.999C264.078 624.92 267.89 627.779 272.892 627.779C276.943 627.779 281.548 625.635 281.548 619.76ZM254.232 620.076V610.23C254.232 599.194 261.934 593.714 270.987 593.714C275.512 593.714 279.246 596.016 281.31 598.715H281.548V578.547H291.236V635.164H281.787V630.639H281.706C279.404 633.814 273.926 636.116 270.271 636.116C261.378 636.116 254.232 630.479 254.232 620.076Z" fill="white"/>
<path d="M326.257 610.867V609.755C326.257 604.196 322.365 601.973 318.396 601.973C314.266 601.973 309.66 604.196 309.66 610.311V610.867H326.257ZM299.814 619.523V611.581C299.814 600.147 308.31 593.793 318.396 593.793C327.209 593.793 335.944 598.956 335.944 609.755V617.616H309.66V619.839C309.66 625 314.028 628.017 319.189 628.017C322.445 628.017 325.86 625.875 328.004 622.777L335.468 627.065C332.292 633.417 325.86 636.117 318.713 636.117C308.708 636.117 299.814 630.639 299.814 619.523Z" fill="white"/>
<path d="M341.981 628.175L348.811 623.015C351.351 626.351 355.401 628.335 360.007 628.335C363.977 628.335 368.027 626.984 368.027 623.334C368.027 620.156 365.883 619.442 360.404 618.49L355.084 617.535C348.413 616.344 343.967 613.088 343.967 606.975C343.967 598.476 351.431 593.632 360.085 593.632C367.392 593.632 372.633 595.459 376.048 600.303L369.06 605.067C366.677 602.288 363.977 601.098 360.007 601.098C356.195 601.098 353.416 602.527 353.416 605.624C353.416 608.244 356.116 608.722 360.007 609.435L367.233 610.866C374.141 612.215 378.112 616.106 378.112 622.22C378.112 631.591 368.503 636.039 360.165 636.039C352.86 636.039 346.031 634.131 341.981 628.175Z" fill="white"/>
<path d="M386.134 578.547H395.82V599.509H396.06C398.759 595.62 403.047 593.713 407.255 593.713C416.388 593.713 421.47 599.432 421.47 609.12V635.164H411.782V611.58C411.782 605.465 409.162 602.211 404.238 602.211C398.918 602.211 395.82 605.465 395.82 612.375V635.164H386.134V578.547Z" fill="white"/>
<path d="M240.662 131.179L233.487 144.451L251.243 152.909L240.662 131.179Z" fill="white"/>
</svg>
