<svg width="227" height="34" viewBox="0 0 227 34" fill="none" xmlns="http://www.w3.org/2000/svg">
<path d="M18.42 19.005C18.42 21.805 17.68 23.9 16.2 25.29C14.72 26.67 12.695 27.36 10.125 27.36C7.545 27.36 5.515 26.67 4.035 25.29C2.565 23.9 1.83 21.805 1.83 19.005C1.83 18.625 1.83 18.22 1.83 17.79C1.83 17.36 1.83 16.91 1.83 16.44V4.875H6.495V17.1C6.495 17.48 6.495 17.835 6.495 18.165C6.495 18.495 6.495 18.8 6.495 19.08C6.495 20.64 6.78 21.79 7.35 22.53C7.92 23.26 8.845 23.625 10.125 23.625C11.395 23.625 12.32 23.26 12.9 22.53C13.48 21.79 13.77 20.64 13.77 19.08V4.875H18.42V19.005ZM26.6484 27H22.1034V4.875H29.3334L36.7434 25.32L35.9634 25.515V4.875H40.4934V27H33.2184L25.8084 6.615L26.6484 6.42V27ZM53.029 27.36C51.279 27.36 49.684 26.925 48.244 26.055C46.814 25.175 45.674 23.895 44.824 22.215C43.984 20.525 43.564 18.45 43.564 15.99C43.564 13.54 44.009 11.465 44.899 9.765C45.789 8.065 46.984 6.77 48.484 5.88C49.994 4.99 51.679 4.545 53.539 4.545C55.089 4.545 56.399 4.795 57.469 5.295C58.549 5.795 59.424 6.435 60.094 7.215C60.774 7.995 61.269 8.82 61.579 9.69C61.889 10.55 62.044 11.345 62.044 12.075C62.044 12.105 62.044 12.135 62.044 12.165C62.044 12.195 62.044 12.225 62.044 12.255H57.514C57.514 12.225 57.514 12.195 57.514 12.165C57.514 12.135 57.514 12.105 57.514 12.075C57.514 11.615 57.429 11.16 57.259 10.71C57.089 10.25 56.834 9.84 56.494 9.48C56.164 9.12 55.749 8.83 55.249 8.61C54.759 8.39 54.189 8.28 53.539 8.28C52.659 8.28 51.819 8.53 51.019 9.03C50.219 9.53 49.564 10.345 49.054 11.475C48.544 12.595 48.289 14.1 48.289 15.99C48.289 17.43 48.429 18.64 48.709 19.62C48.999 20.6 49.384 21.385 49.864 21.975C50.344 22.555 50.889 22.975 51.499 23.235C52.119 23.495 52.759 23.625 53.419 23.625C54.329 23.625 55.089 23.475 55.699 23.175C56.319 22.865 56.804 22.485 57.154 22.035C57.504 21.585 57.729 21.14 57.829 20.7V19.26H53.449V15.9H61.954V27H59.509L59.089 24.555C59.009 24.745 58.839 24.995 58.579 25.305C58.319 25.615 57.949 25.93 57.469 26.25C56.999 26.56 56.394 26.82 55.654 27.03C54.924 27.25 54.049 27.36 53.029 27.36ZM83.8022 18.915C83.8022 19.875 83.6172 20.85 83.2472 21.84C82.8872 22.83 82.3372 23.74 81.5972 24.57C80.8672 25.4 79.9372 26.075 78.8072 26.595C77.6872 27.105 76.3572 27.36 74.8172 27.36C72.7672 27.36 71.0172 26.875 69.5672 25.905C68.1172 24.925 67.0072 23.575 66.2372 21.855C65.4772 20.135 65.0972 18.16 65.0972 15.93C65.0972 13.7 65.4772 11.73 66.2372 10.02C67.0072 8.31 68.1172 6.97 69.5672 6C71.0172 5.03 72.7672 4.545 74.8172 4.545C76.5272 4.545 77.9822 4.855 79.1822 5.475C80.3922 6.095 81.3572 6.9 82.0772 7.89C82.8072 8.88 83.3022 9.925 83.5622 11.025C83.7222 11.695 83.8022 12.34 83.8022 12.96H79.1372C79.1372 12.66 79.1122 12.37 79.0622 12.09C78.9622 11.36 78.7322 10.71 78.3722 10.14C78.0122 9.57 77.5322 9.12 76.9322 8.79C76.3422 8.45 75.6372 8.28 74.8172 8.28C73.8572 8.28 73.0022 8.555 72.2522 9.105C71.5022 9.655 70.9122 10.495 70.4822 11.625C70.0522 12.755 69.8372 14.19 69.8372 15.93C69.8372 17.68 70.0522 19.125 70.4822 20.265C70.9122 21.395 71.5022 22.24 72.2522 22.8C73.0022 23.35 73.8572 23.625 74.8172 23.625C75.5072 23.625 76.1172 23.5 76.6472 23.25C77.1872 23 77.6372 22.655 77.9972 22.215C78.3672 21.775 78.6472 21.27 78.8372 20.7C79.0372 20.13 79.1372 19.535 79.1372 18.915H83.8022ZM91.3945 27H86.8495V4.875H94.0795L101.49 25.32L100.71 25.515V4.875H105.24V27H97.9645L90.5545 6.615L91.3945 6.42V27ZM117.655 4.875C119.205 4.875 120.475 5.09 121.465 5.52C122.465 5.95 123.205 6.57 123.685 7.38C124.165 8.18 124.405 9.125 124.405 10.215C124.405 11.305 124.19 12.235 123.76 13.005C123.33 13.765 122.785 14.355 122.125 14.775C121.465 15.185 120.795 15.415 120.115 15.465C120.825 15.485 121.555 15.67 122.305 16.02C123.055 16.36 123.685 16.915 124.195 17.685C124.705 18.445 124.96 19.46 124.96 20.73C124.96 21.93 124.715 23.005 124.225 23.955C123.745 24.895 122.97 25.64 121.9 26.19C120.83 26.73 119.4 27 117.61 27H108.91V4.875H117.655ZM113.365 15.12L111.82 13.815H116.23C117.41 13.815 118.295 13.565 118.885 13.065C119.475 12.555 119.77 11.87 119.77 11.01C119.77 10.43 119.645 9.955 119.395 9.585C119.145 9.205 118.775 8.925 118.285 8.745C117.795 8.565 117.19 8.475 116.47 8.475H111.265L113.365 6.255V15.12ZM116.71 23.385C117.85 23.385 118.715 23.125 119.305 22.605C119.905 22.075 120.205 21.36 120.205 20.46C120.205 19.95 120.115 19.505 119.935 19.125C119.765 18.745 119.52 18.43 119.2 18.18C118.88 17.92 118.49 17.725 118.03 17.595C117.58 17.455 117.08 17.385 116.53 17.385H111.82L113.365 16.095V25.605L111.265 23.385H116.71Z" fill="white"/>
<path d="M132.764 18.22C131.877 18.22 131.099 18.0807 130.432 17.802C129.772 17.5233 129.259 17.1237 128.892 16.603C128.525 16.075 128.342 15.4443 128.342 14.711C128.342 13.9483 128.54 13.314 128.936 12.808C129.332 12.2947 129.889 11.895 130.608 11.609C131.327 11.323 132.163 11.1323 133.116 11.037C134.553 10.8903 135.576 10.7473 136.185 10.608C136.794 10.4613 137.098 10.2267 137.098 9.904C137.098 9.89667 137.098 9.893 137.098 9.893C137.098 9.88567 137.098 9.87833 137.098 9.871C137.098 9.19633 136.823 8.694 136.273 8.364C135.723 8.02667 134.927 7.858 133.886 7.858C132.801 7.858 131.957 8.04867 131.356 8.43C130.755 8.804 130.454 9.41267 130.454 10.256H128.606C128.606 9.38333 128.83 8.64267 129.277 8.034C129.724 7.418 130.344 6.94867 131.136 6.626C131.935 6.30333 132.856 6.142 133.897 6.142C134.85 6.142 135.708 6.28867 136.471 6.582C137.241 6.868 137.85 7.297 138.297 7.869C138.752 8.43367 138.979 9.134 138.979 9.97C138.979 10.124 138.979 10.278 138.979 10.432C138.979 10.5787 138.979 10.729 138.979 10.883V15.8C138.979 16.0567 138.99 16.306 139.012 16.548C139.034 16.79 139.071 17.0027 139.122 17.186C139.188 17.406 139.261 17.5857 139.342 17.725C139.423 17.857 139.489 17.9487 139.54 18H137.659C137.622 17.9633 137.567 17.879 137.494 17.747C137.421 17.6077 137.351 17.4463 137.285 17.263C137.234 17.1163 137.193 16.933 137.164 16.713C137.135 16.4857 137.12 16.251 137.12 16.009L137.428 16.218C137.201 16.614 136.867 16.9623 136.427 17.263C135.994 17.5637 135.47 17.7983 134.854 17.967C134.238 18.1357 133.541 18.22 132.764 18.22ZM133.061 16.537C133.816 16.537 134.498 16.4233 135.107 16.196C135.716 15.9613 136.2 15.6167 136.559 15.162C136.918 14.7073 137.098 14.1427 137.098 13.468V11.147L137.516 11.851C137.047 12.0343 136.46 12.1847 135.756 12.302C135.059 12.412 134.33 12.5037 133.567 12.577C132.46 12.6797 131.624 12.874 131.059 13.16C130.502 13.446 130.223 13.9263 130.223 14.601C130.223 15.239 130.454 15.723 130.916 16.053C131.378 16.3757 132.093 16.537 133.061 16.537ZM147.633 18.22C146.519 18.22 145.507 17.978 144.597 17.494C143.688 17.0027 142.966 16.3023 142.43 15.393C141.902 14.4837 141.638 13.402 141.638 12.148C141.638 10.894 141.902 9.81967 142.43 8.925C142.966 8.023 143.688 7.33367 144.597 6.857C145.507 6.38033 146.519 6.142 147.633 6.142C148.484 6.142 149.243 6.274 149.91 6.538C150.578 6.79467 151.142 7.13933 151.604 7.572C152.066 8.00467 152.418 8.48133 152.66 9.002C152.91 9.51533 153.034 10.0287 153.034 10.542C153.034 10.5493 153.034 10.5603 153.034 10.575C153.034 10.5897 153.034 10.6043 153.034 10.619H151.175C151.175 10.5823 151.172 10.542 151.164 10.498C151.157 10.4467 151.15 10.3953 151.142 10.344C151.084 9.85267 150.897 9.42367 150.581 9.057C150.266 8.683 149.855 8.38967 149.349 8.177C148.843 7.96433 148.268 7.858 147.622 7.858C146.896 7.858 146.222 8.01567 145.598 8.331C144.982 8.639 144.484 9.112 144.102 9.75C143.728 10.3807 143.541 11.18 143.541 12.148C143.541 13.1087 143.728 13.9117 144.102 14.557C144.476 15.2023 144.971 15.69 145.587 16.02C146.211 16.3427 146.889 16.504 147.622 16.504C148.414 16.504 149.067 16.3793 149.58 16.13C150.094 15.8807 150.479 15.5507 150.735 15.14C150.999 14.722 151.146 14.2747 151.175 13.798H153.034C153.034 14.326 152.917 14.854 152.682 15.382C152.448 15.9027 152.103 16.3793 151.648 16.812C151.194 17.2373 150.629 17.5783 149.954 17.835C149.287 18.0917 148.513 18.22 147.633 18.22ZM160.028 18.22C159.14 18.22 158.363 18.0807 157.696 17.802C157.036 17.5233 156.522 17.1237 156.156 16.603C155.789 16.075 155.606 15.4443 155.606 14.711C155.606 13.9483 155.804 13.314 156.2 12.808C156.596 12.2947 157.153 11.895 157.872 11.609C158.59 11.323 159.426 11.1323 160.38 11.037C161.817 10.8903 162.84 10.7473 163.449 10.608C164.057 10.4613 164.362 10.2267 164.362 9.904C164.362 9.89667 164.362 9.893 164.362 9.893C164.362 9.88567 164.362 9.87833 164.362 9.871C164.362 9.19633 164.087 8.694 163.537 8.364C162.987 8.02667 162.191 7.858 161.15 7.858C160.064 7.858 159.221 8.04867 158.62 8.43C158.018 8.804 157.718 9.41267 157.718 10.256H155.87C155.87 9.38333 156.093 8.64267 156.541 8.034C156.988 7.418 157.608 6.94867 158.4 6.626C159.199 6.30333 160.119 6.142 161.161 6.142C162.114 6.142 162.972 6.28867 163.735 6.582C164.505 6.868 165.113 7.297 165.561 7.869C166.015 8.43367 166.243 9.134 166.243 9.97C166.243 10.124 166.243 10.278 166.243 10.432C166.243 10.5787 166.243 10.729 166.243 10.883V15.8C166.243 16.0567 166.254 16.306 166.276 16.548C166.298 16.79 166.334 17.0027 166.386 17.186C166.452 17.406 166.525 17.5857 166.606 17.725C166.686 17.857 166.752 17.9487 166.804 18H164.923C164.886 17.9633 164.831 17.879 164.758 17.747C164.684 17.6077 164.615 17.4463 164.549 17.263C164.497 17.1163 164.457 16.933 164.428 16.713C164.398 16.4857 164.384 16.251 164.384 16.009L164.692 16.218C164.464 16.614 164.131 16.9623 163.691 17.263C163.258 17.5637 162.734 17.7983 162.118 17.967C161.502 18.1357 160.805 18.22 160.028 18.22ZM160.325 16.537C161.08 16.537 161.762 16.4233 162.371 16.196C162.979 15.9613 163.463 15.6167 163.823 15.162C164.182 14.7073 164.362 14.1427 164.362 13.468V11.147L164.78 11.851C164.31 12.0343 163.724 12.1847 163.02 12.302C162.323 12.412 161.593 12.5037 160.831 12.577C159.723 12.6797 158.887 12.874 158.323 13.16C157.765 13.446 157.487 13.9263 157.487 14.601C157.487 15.239 157.718 15.723 158.18 16.053C158.642 16.3757 159.357 16.537 160.325 16.537ZM174.171 18.22C173.21 18.22 172.33 17.989 171.531 17.527C170.732 17.0577 170.094 16.372 169.617 15.47C169.14 14.5607 168.902 13.4533 168.902 12.148C168.902 10.8647 169.144 9.77567 169.628 8.881C170.112 7.98633 170.754 7.308 171.553 6.846C172.352 6.37667 173.225 6.142 174.171 6.142C175.073 6.142 175.916 6.35833 176.701 6.791C177.493 7.21633 178.131 7.81033 178.615 8.573C179.099 9.33567 179.341 10.2193 179.341 11.224C179.341 11.246 179.341 11.268 179.341 11.29C179.341 11.312 179.341 11.334 179.341 11.356L177.999 11.411C177.999 11.389 177.999 11.367 177.999 11.345C177.999 11.3157 177.999 11.29 177.999 11.268C177.999 10.63 177.83 10.0543 177.493 9.541C177.163 9.02767 176.727 8.62067 176.184 8.32C175.641 8.012 175.058 7.858 174.435 7.858C173.394 7.858 172.532 8.21 171.85 8.914C171.168 9.61067 170.827 10.6887 170.827 12.148C170.827 13.6 171.168 14.6817 171.85 15.393C172.539 16.097 173.401 16.449 174.435 16.449C175.088 16.449 175.682 16.2913 176.217 15.976C176.76 15.6607 177.192 15.239 177.515 14.711C177.838 14.1757 177.999 13.578 177.999 12.918L179.341 12.951C179.341 13.9483 179.11 14.8467 178.648 15.646C178.186 16.438 177.563 17.065 176.778 17.527C176.001 17.989 175.132 18.22 174.171 18.22ZM177.999 18V0.806999H179.88V18H177.999ZM183.772 12.907V11.235H192.803L192.473 11.785C192.473 11.741 192.473 11.7007 192.473 11.664C192.473 11.62 192.473 11.5797 192.473 11.543C192.473 10.8683 192.33 10.2523 192.044 9.695C191.766 9.13033 191.348 8.67933 190.79 8.342C190.233 8.00467 189.544 7.836 188.722 7.836C187.894 7.836 187.164 8.012 186.533 8.364C185.903 8.716 185.411 9.21467 185.059 9.86C184.707 10.498 184.531 11.2607 184.531 12.148C184.531 13.05 184.7 13.8273 185.037 14.48C185.382 15.1327 185.87 15.635 186.5 15.987C187.131 16.339 187.879 16.515 188.744 16.515C189.36 16.515 189.896 16.4527 190.35 16.328C190.805 16.196 191.179 16.0237 191.472 15.811C191.773 15.591 192 15.3527 192.154 15.096C192.308 14.8393 192.4 14.5827 192.429 14.326H194.299C194.263 14.7953 194.116 15.261 193.859 15.723C193.603 16.185 193.24 16.6067 192.77 16.988C192.301 17.362 191.725 17.6627 191.043 17.89C190.361 18.1173 189.577 18.231 188.689 18.231C187.516 18.231 186.482 17.9743 185.587 17.461C184.693 16.9477 183.989 16.2363 183.475 15.327C182.969 14.4177 182.716 13.3727 182.716 12.192C182.716 10.9967 182.973 9.948 183.486 9.046C184 8.13667 184.707 7.42533 185.609 6.912C186.511 6.39867 187.542 6.142 188.7 6.142C189.881 6.142 190.904 6.39867 191.769 6.912C192.635 7.42533 193.302 8.12933 193.771 9.024C194.241 9.91133 194.475 10.9233 194.475 12.06C194.475 12.1773 194.472 12.3313 194.464 12.522C194.457 12.7127 194.446 12.841 194.431 12.907H183.772ZM204.573 18V12.841C204.573 12.3863 204.573 11.994 204.573 11.664C204.573 11.3267 204.573 11.0443 204.573 10.817C204.573 10.531 204.551 10.223 204.507 9.893C204.47 9.55567 204.379 9.24033 204.232 8.947C204.085 8.64633 203.854 8.40067 203.539 8.21C203.231 8.01933 202.802 7.924 202.252 7.924C201.695 7.924 201.225 8.034 200.844 8.254C200.463 8.46667 200.155 8.749 199.92 9.101C199.685 9.453 199.517 9.84167 199.414 10.267C199.311 10.685 199.26 11.0993 199.26 11.51L198.204 11.081C198.204 10.201 198.387 9.387 198.754 8.639C199.121 7.891 199.634 7.28967 200.294 6.835C200.961 6.373 201.742 6.142 202.637 6.142C203.524 6.142 204.247 6.32167 204.804 6.681C205.361 7.04033 205.772 7.53533 206.036 8.166C206.3 8.79667 206.432 9.52267 206.432 10.344C206.432 10.6373 206.432 11.015 206.432 11.477C206.432 11.9317 206.432 12.4523 206.432 13.039V18H204.573ZM197.39 18V6.318H199.26V18H197.39ZM211.734 18V12.841C211.734 12.3423 211.734 11.9317 211.734 11.609C211.734 11.279 211.734 11.0003 211.734 10.773C211.734 10.487 211.716 10.179 211.679 9.849C211.642 9.519 211.551 9.211 211.404 8.925C211.257 8.63167 211.023 8.39333 210.7 8.21C210.385 8.01933 209.941 7.924 209.369 7.924C208.804 7.924 208.331 8.03033 207.95 8.243C207.576 8.45567 207.275 8.73433 207.048 9.079C206.828 9.42367 206.67 9.79767 206.575 10.201C206.48 10.597 206.432 10.9783 206.432 11.345L205.376 10.938C205.376 10.102 205.552 9.321 205.904 8.595C206.263 7.86167 206.769 7.27133 207.422 6.824C208.082 6.36933 208.863 6.142 209.765 6.142C210.608 6.142 211.312 6.307 211.877 6.637C212.449 6.967 212.878 7.43267 213.164 8.034C213.457 8.628 213.604 9.33567 213.604 10.157C213.604 10.465 213.604 10.8463 213.604 11.301C213.604 11.7557 213.604 12.269 213.604 12.841V18H211.734ZM216.777 22.928C216.484 22.928 216.216 22.9097 215.974 22.873C215.732 22.8437 215.582 22.8143 215.523 22.785V21.157C215.619 21.201 215.776 21.2377 215.996 21.267C216.216 21.2963 216.436 21.311 216.656 21.311C217.126 21.311 217.522 21.212 217.844 21.014C218.167 20.8233 218.438 20.5593 218.658 20.222C218.878 19.892 219.058 19.518 219.197 19.1L219.549 18.066L215.523 6.318H217.481L220.715 16.383H220.451L223.619 6.318H225.544L221.265 19.001C221.023 19.7123 220.73 20.365 220.385 20.959C220.048 21.553 219.593 22.0297 219.021 22.389C218.457 22.7483 217.709 22.928 216.777 22.928Z" fill="white"/>
<rect x="129" y="20" width="23" height="3" fill="#02B1D9"/>
</svg>
