<svg width="817" height="328" viewBox="0 0 817 328" fill="none" xmlns="http://www.w3.org/2000/svg">
<path d="M135.4 129.6C135 129.3 134.9 127.6 134.9 127.6C133.8 119.1 131.7 110.5 128.4 102.1C128.2 101.6 128.1 101.3 128.1 101C128.1 100.6 128.3 100.2 129.3 99.7C133.6 97.7 137.1 95.2 139.7 92.6C140.1 92.2 140.4 92 140.6 92C140.8 92 141 92.2 141.4 92.8C145.3 99.5 148.2 107 150.2 114.9C150.4 115.8 150.5 116.5 150.5 117C150.5 118.1 150.1 118.9 149.1 119.9C146.5 122.5 141.9 126.2 137.1 129.1C136.9 129.1 135.7 129.8 135.4 129.6ZM131.2 139.4C131.2 139.4 131.2 137.9 130.7 137.6C130.2 137.3 129 137.8 129 137.8C120.6 140.8 111.4 142.3 101.8 142.6C100 142.7 100.1 143.1 100 144.6C99.9 153.1 99.7 161.1 99.5 168.4C99.5 168.4 99.4 169.1 99.7 169.4C99.9 169.6 100.7 169.6 100.7 169.6C110.3 169 119.4 166.9 127.7 163.5C128.9 163 129.1 162.2 129.5 160.8C131.8 151.6 131.2 139.4 131.2 139.4ZM127.5 95.8C131.3 93.8 134.8 91.4 137 89.1C137.5 88.6 137.7 88.2 137.7 87.7C137.7 87.2 137.5 86.7 137 85.9C131.9 78.8 125.8 73.2 119.2 69C117.3 70.3 114.3 71.5 111.2 72.2C116.6 78.8 121.4 86.3 125.3 94.8C125.7 95.6 125.9 96.1 126.2 96.2C126.6 96.3 127.1 96 127.5 95.8ZM120.9 98.6C121.4 98.4 121.7 98.3 121.9 97.9C122 97.5 121.7 96.6 121.7 96.6C118 87.5 113.5 79.2 108.7 72.8C106.1 73.3 101.1 73.6 99.3 73.6C99.6 82.8 99.8 91.9 99.9 100.7C99.9 101.5 100 101.9 100.3 102.1C100.5 102.3 100.9 102.4 101.3 102.4C107.3 102.3 115.9 100.5 120.9 98.6ZM127.4 167.5C127.4 167.3 127.2 167.3 127.2 167.3C127 167.3 126.7 167.4 126 167.6C115.5 170.9 106.4 171.7 100.5 171.8C99.7 171.8 99.5 172.1 99.4 173L98.9 180.8C98.9 180.8 110.7 181.1 122.8 176C124.5 173.8 125.9 171.2 127.1 168.3C127.2 168 127.3 167.8 127.4 167.5ZM151.9 124.4C151.9 124.2 151.7 124.4 151.7 124.4C148.9 127.2 143.8 131 137.8 134C135.9 135 135.7 135.7 135.6 137.4C135.7 147.1 134.5 154.5 132.4 160.8C132.4 160.8 132.2 161.3 132.8 161C133.4 160.7 142.1 156.5 148.1 150.4C150.1 148.4 151.7 145.4 152 142.2C153.3 131.6 151.9 124.4 151.9 124.4ZM154.9 112C158.9 105.1 158.9 99.4 158.9 99.4C158.9 99 158.9 98.7 158.8 98.5C157 90.6 152.8 83.1 146.5 76.2C146.6 76.9 146.6 77.5 146.6 78.2C146.6 80.6 146.1 83.1 144.9 85.7C144.5 86.6 144.3 87.2 144.3 87.7C144.3 88.2 144.5 88.5 144.8 89.1C144.9 88.9 151.3 97.6 154.9 112ZM63.6 131.6C64.2 121.8 66.9 111.5 70.6 101.7C70.7 101.5 70.7 101.3 70.7 101.2C70.7 100.9 70.5 100.7 70 100.5C63.8 97.8 59.1 94.1 56 90.1C56 90.1 55.8 89.9 56 89.7C56.2 89.5 56.4 89.7 56.4 89.7C59.9 93.1 65 95.9 70.9 98.1C71.2 98.2 71.3 98.2 71.5 98.2C71.8 98.2 72 98 72.4 97.2C76.4 88 81.6 79.3 87.5 72.1C82.5 70.9 77.4 68.2 76.2 65.3C76.2 65.3 76 65 76.3 64.8C76.6 64.7 76.8 65 76.8 65C82.3 71 98.4 70.6 98.4 70.6C105.1 70.6 119 68.3 119 62.6C119 57.5 111.6 54.8 98.2 54.6C57.6 54.6 35.8 89.8 35.8 117.7C35.8 151.4 64.4 180.8 97.5 180.8C97.5 180.3 97.1 172.9 97.1 172.9C97.1 172.1 96.9 171.8 95.9 171.7C95.9 171.7 81.5 170.6 76.8 168.2C76.6 168.1 76.7 167.9 77 167.9C77 167.9 86.7 169.6 96 169.6C96 169.6 97 169.7 97 168.5C97 167.5 96.6 144.6 96.6 144.6C96.5 142.9 96.3 142.6 94.6 142.5C84.6 142 74.8 139.9 66.3 136.3C66.1 136.2 66 136.2 65.8 136.2C65.6 136.3 65.6 136.7 65.6 136.7C64.8 147.3 66 157.6 66 157.6C66 157.8 66 157.9 65.8 157.9C65.6 157.9 65.6 157.7 65.6 157.7C64.1 152 63.3 145.8 63.3 139.2C63.3 138.7 63.4 136 63.4 136C63.4 135.3 63.1 134.8 62.5 134.5C58.5 132.5 54.9 130 51.7 127.5C51.7 127.5 51.5 127.3 51.7 127.1C51.9 127 52 127.1 52 127.1C55.3 129.2 59.1 131 63 132.6H63.5C63.5 132.5 63.5 132.2 63.6 131.6ZM141.5 82.2C142.6 79.4 142.8 75.5 141.6 72.7C140.5 70.1 137 67.4 137 67.4C131.6 63.2 125.6 60.6 122.8 59.5C123.3 60.4 123.6 61.3 123.6 62.2C123.6 63.8 122.8 65.4 121.4 67.1C128.5 71.2 134.4 76.1 139.6 82.1C139.6 82.1 140.4 83.1 140.9 83.1C141.2 83 141.5 82.2 141.5 82.2ZM156.8 128.7C156.8 133 156.4 137.3 155.6 141.3C159.1 135.3 161.9 126.5 161.9 116.3C161.9 113.4 161.7 110.5 161.2 107.5C160.6 110.5 159.6 113.5 157.9 116.3C156.8 118.2 156.3 119.5 156.5 120.8C156.7 125 156.8 128.7 156.8 128.7ZM129.6 168.1C128.5 170.4 127.2 172.6 125.8 174.6C133.3 170.9 141.8 163.6 147.6 156.1C143.1 159.7 138 162.8 132.2 165.2C131.1 165.8 130.1 167.1 129.6 168.1ZM96.6 108C96.6 106.7 96 106 94.8 105.9C87.4 105.6 80.3 104.2 74 102C73.7 101.9 73.5 101.8 73.3 101.8C73.1 101.8 72.9 101.9 72.8 102.4C67 117 65.8 132.8 65.8 132.8C65.7 133.5 65.9 133.7 66.4 133.9C66.4 133.9 78.7 138.6 94.5 138.6C94.5 138.6 95.6 138.6 95.9 138.3C96.3 137.9 96.4 137.6 96.3 136.3C96.5 128.6 96.6 108 96.6 108ZM74.6 98C74.2 98.8 74.4 99.1 74.4 99.1C74.5 99.3 74.8 99.4 74.8 99.4C79.5 101 88.6 102.5 95 102.5C95.7 102.5 96.1 102.4 96.4 102.1C96.7 101.8 96.8 101.3 96.9 100.5C97.1 91.7 97.3 82.5 97.8 73.6C95.1 73.5 91.7 73.1 89.4 72.6C83.4 80.1 78.5 88.6 74.6 98ZM101.5 138.5C105.9 138.3 117.2 137.5 128.6 133.1C130.2 132.5 130.5 131.8 130.5 130.6C130.5 130.3 130.5 130 130.4 129.6C129.3 120.9 127.2 112.2 124.3 103.5C123.9 102.4 123.7 102.2 123.4 102.2C123.2 102.2 122.9 102.3 122.5 102.4C116.2 104.5 109.3 105.7 102 105.9C100.6 106 100.2 106.9 100.2 107.9C100.2 112.4 100.3 119.5 100.3 129.1C100.3 131.5 100.3 134.8 100.3 137.1C100.3 137.1 100.3 137.8 100.6 138.2C100.6 138.5 101 138.6 101.5 138.5ZM5.3 160.7C10.1 173.5 22 174.6 30 182.4C31.5 183.9 33 185.3 34.7 186.2L34.8 186.1C32.9 184.1 30.8 181.9 29.5 179.3C24.8 171.6 26.5 160.7 22.9 152.4C26.1 156.9 29 161.6 30.9 166.8C33.8 175.2 34.9 184.7 41.5 191C34.3 188.2 25.9 188.8 19.5 183.7C12.9 178.4 6.6 170.1 5.3 160.7ZM72.1 197.5C73.1 197.5 73.9 197.2 73.9 197.2C67.7 195.8 62.4 194.7 57.1 190.2C50.1 184.3 44.7 178.4 36.9 173.6C37.9 174.2 42.3 183.3 46 188.7C48.6 192.5 52.7 194.6 56.4 195.5C59.5 196.3 60.2 196.6 60.2 196.6C60.2 196.6 59.7 196.9 58.5 196.6C58.5 196.6 48.2 194.5 42.6 194.5C20.4 194.5 14.6 186 14.6 186C21.2 197.9 34.8 202.4 43.7 202.4C56.5 202.3 66 197.5 72.1 197.5ZM153.8 202.3C162.7 202.3 176.3 197.9 182.9 185.9C182.9 185.9 177.1 194.4 154.9 194.4C149.3 194.4 139 196.5 139 196.5C137.8 196.8 137.3 196.5 137.3 196.5C137.3 196.5 138 196.2 141.1 195.4C144.7 194.5 148.9 192.4 151.5 188.6C155.2 183.2 159.6 174.1 160.6 173.5C152.8 178.3 147.4 184.3 140.4 190.1C135.1 194.5 129.8 195.7 123.6 197.1C123.6 197.1 124.4 197.4 125.4 197.4C131.6 197.5 141.1 202.3 153.8 202.3ZM15.6 166.7C17.8 168.6 22.3 172.7 23.1 173.9C23.1 173.9 22.6 172.2 22.1 170.1C21.6 168 20.9 162.9 18.8 158.5C17.2 155 10.4 143.8 9.1 137.6C9.1 137.6 4.2 157 15.6 166.7ZM156 191C163.2 188.2 171.5 188.8 177.9 183.7C184.6 178.4 191 170.1 192.3 160.7C187.5 173.5 175.6 174.5 167.5 182.3C166 183.8 164.5 185.2 162.8 186.1L162.7 186C164.5 184 166.7 181.8 168 179.2C172.7 171.5 171 160.6 174.6 152.3C171.4 156.8 168.5 161.5 166.6 166.7C163.7 175.2 162.6 184.6 156 191ZM138.3 205C127.2 200.5 115.7 194.8 102.4 197.5C100.9 197.8 99.7 198.1 98.3 198.1C97 198.1 95.8 197.8 94.3 197.5C80.9 194.8 69.4 200.5 58.3 205C50 208 39.2 207.5 31.9 202.9C35.5 207.1 40.3 209.7 45.3 211.5C54.5 214.9 65.5 212.6 73.1 207.6C79.7 204.2 85.3 197.4 93.9 199.9C85.1 203.7 77.1 209.1 69.8 216L74.3 219.5C74.3 219.5 82.8 208 98.2 201.1C113.5 208 122.1 219.5 122.1 219.5L126.7 216C119.4 209.1 111.4 203.8 102.6 199.9C111.2 197.3 116.9 204.1 123.4 207.6C131.1 212.6 142 214.9 151.3 211.5C156.3 209.7 161.1 207.1 164.7 202.9C157.4 207.6 146.6 208.1 138.3 205ZM182 166.7C193.4 157 188.6 137.6 188.6 137.6C187.3 143.8 180.5 155.1 178.9 158.5C176.8 162.9 176.1 168 175.6 170.1C175.1 172.2 174.6 173.9 174.6 173.9C175.3 172.7 179.8 168.6 182 166.7ZM2 111.6C5.4 111.9 8.7 112.2 12.1 112.5C14.8 112.7 16.2 111.7 16.4 109.1C16.5 107.9 16.4 107 15.9 106.2C15.3 105.2 14.4 104.7 12.5 104.5C9.3 104.1 6 103.8 2.8 103.4C2.4 104.1 2.1 104.8 1.7 105.5C1.5 105.5 1.2 105.5 1 105.4C1.2 103.3 1.5 101.2 1.7 99.1C1.9 99.1 2.2 99.2 2.4 99.2C2.6 100 2.8 100.7 3 101.5C6.1 101.9 9.2 102.2 12.3 102.6C14.6 102.9 16 103.7 16.9 105.3C17.6 106.6 17.9 108.1 17.7 110C17.3 114 15.2 116.1 11.8 115.8C8.4 115.5 5.1 115.3 1.7 115C1.3 115.7 1 116.4 0.700001 117.1C0.500001 117.1 0.2 117.1 0 117C0.2 114.4 0.4 111.9 0.6 109.3C0.8 109.3 1.1 109.3 1.3 109.4C1.6 110.2 1.8 110.9 2 111.6ZM7.4 91.8C11 93 14.7 94.2 18.3 95.4C18.8 94.9 19.3 94.3 19.8 93.8C20 93.9 20.2 93.9 20.5 94C19.9 95.8 19.3 97.6 18.7 99.4C18.5 99.3 18.2 99.3 18 99.2C17.9 98.4 17.9 97.7 17.8 96.9C13.5 95.5 9.2 94.1 4.9 92.7C4.4 93.3 3.9 93.9 3.4 94.5C3.3 94.5 3 94.5 2.8 94.4C3.3 92.8 3.8 91.2 4.4 89.5C8.9 87.9 13.4 86.3 17.9 84.8C14.9 83.7 11.8 82.6 8.8 81.6C8.3 82.1 7.8 82.7 7.3 83.3C7.1 83.2 6.9 83.2 6.6 83.1C7.2 81.2 7.9 79.3 8.6 77.5C8.8 77.6 9 77.7 9.2 77.7C9.2 78.5 9.2 79.3 9.3 80.1C14.1 81.8 18.9 83.6 23.7 85.3C23.6 85.7 23.4 86.1 23.3 86.5C18 88.1 12.7 89.9 7.4 91.8ZM31.1 62.4L34.9 65.1C34 67.4 33.3 68.8 32.4 70.1C29.3 74.4 25 75.3 20.7 72.2C16.4 69.2 15 64.8 18.7 59.6C19.5 58.4 20.8 57.2 22.4 55.7L22.7 55.4L26 57.8L25.3 58.8L22 58.1C21.5 58.4 21.2 58.7 20.9 59.1C17.7 63.1 18.7 66.8 22.6 69.6C26.1 72.1 29.8 71.5 32.1 68.3C32.5 67.7 32.6 67.3 32.6 67.3L29.3 65L27.3 66.2L26.7 65.8L31 59.9L31.6 60.3L31.1 62.4ZM38 60.6L28.4 50.9L26.3 51.7L25.8 51.2L31.1 46L31.6 46.5L30.7 48.6L40.4 58.5L43.4 55.5L42.4 52.2L43.1 51.4L45.8 54.7C45.8 54.7 41.6 58.7 37.5 63L37 62.5L38 60.6ZM42.7 47.2C39.6 42.7 40.3 37.9 45 34.9C49.3 32.2 53.5 33.4 56 37.5C58.7 42 58 46.9 53.7 49.7C49.8 52.3 45.5 51.2 42.7 47.2ZM45.2 44.9C47.8 48.6 51.1 49.8 53.4 48.4C55.6 47 55.7 43.5 53.4 39.6C51.2 36 48.1 34.4 45.4 36.2C42.4 38 42.6 41.3 45.2 44.9ZM63.7 42.1L58.3 29.5H56.1L55.8 28.9L63.4 25.7C65.2 25 66.3 24.9 67.5 25.3C68.6 25.7 69.3 26.4 69.7 27.4C70.5 29.5 69.4 31.6 66.7 33C70 31.8 72.2 32.5 73.2 34.9C73.7 36.2 73.5 37.6 72.8 38.7C72.1 39.8 71 40.5 68.9 41.4L62.4 44.3L62.1 43.7L63.7 42.1ZM63.8 33.8L64.8 33.4C66.7 32.6 67.5 30.9 66.7 29C66 27.1 64.5 26.4 62.6 27.2L61.2 27.9L63.8 33.8ZM66.8 41.1L67.7 40.7C69 40.2 69.6 39.8 70 38.9C70.4 38.1 70.4 37.1 70 36.2C69.2 34.1 67.5 33.5 65.3 34.4L64.1 34.9L66.8 41.1ZM79.8 31.4L78.9 36.5L81 37L81.1 37.7L75.6 39L75.5 38.3L77.2 37.1L81 20.5L82.2 20.3L90.8 34.6L92.8 35.1L92.9 35.8L85.8 36.8L85.7 36.1L87.4 34.9L84.9 30.4L79.8 31.4ZM80 30.2L84.2 29.4L81.3 24.1L80 30.2ZM96.4 34.3L96.5 20.7L94.4 19.8V19.1C98.3 19 101.8 19 101.8 19V19.7L99.7 20.6L99.5 34.5L103.4 34.6L105 31.6H106L105.6 35.9C105.6 35.9 99.3 35.6 94.1 35.8V35.1L96.4 34.3ZM124.5 38.5L126.6 35.6L127.7 35.9L126.4 39.8H126C123.7 39.7 122.4 39.6 120.9 39.2C116 37.9 113.9 34.1 115 29.1C116.2 23.9 119.9 21.4 126.1 22.9C127.6 23.2 129.1 24 130.9 25L129.8 29L128.7 28.8L128.4 25.2C128.4 25.2 127.8 24.9 127.1 24.7C121.7 23.3 119.1 25.9 118.2 30C117.2 34.2 119 37.4 122.7 38.5C123.5 38.3 123.9 38.4 124.5 38.5ZM155.8 52L167.3 46.8L171.1 50.6L170.6 51.1L168.4 50.4L159 60.1L160.1 62.2L159.6 62.7C157.1 60.2 154.6 57.8 154.6 57.8L155.1 57.2L157.2 57.9L164.8 49.9L152.1 55.5L151.6 55.1L155.4 41.7L148.5 50.4L149.5 52.4L149 52.9L144.2 49.5L144.7 49L146.9 49.7L155.5 39.3L154.5 37.3L155 36.8L159.4 40L155.8 52ZM169.8 64.2L165.5 67.4L166 69.6L165.5 70C163.4 67.1 161 64.2 161 64.2L161.6 63.8L163.5 64.9L174.1 56.6L173.6 54.5L174.2 54.1L178.6 59.8C180.1 61.8 180.5 63 180.6 64.4C180.6 65.8 180 67 178.8 67.9C176.3 69.7 173.2 68.8 170.9 65.7L169.8 64.2ZM171.2 64.2C172 65.3 172.6 65.7 173.3 65.9C174.4 66.1 175.6 66 176.6 65.2C177.6 64.5 178.2 63.6 178.3 62.7C178.4 61.8 178.2 61.1 177.5 60.2L176.5 59L170.6 63.6L171.2 64.2ZM176.5 75.6L171.4 76L171.5 78.1L170.9 78.4C169.6 76 168.1 73.5 168.1 73.5L168.7 73.1L170.3 74.5L187.3 73.5L187.9 74.9L176.5 86.9L176.6 89L176 89.3C174.6 85.9 173.3 82.8 173.3 82.8L173.9 82.5L175.5 83.8L178.9 80.2L176.5 75.6ZM177.8 75.5L179.7 79.3L184 75.1L177.8 75.5ZM180.3 100.1L184 100.5L184.3 101.6L180.3 102.4L180.1 102.1C178.9 100.1 178.4 98.9 178 97.5C176.6 92.5 178.8 89 183.8 87.3C189 85.6 193.3 88.2 194.7 93.7C195.1 95.2 195.3 97 195.3 99L191.3 100L191 98.9L193.9 96.9C193.9 96.5 193.8 95.9 193.7 95.4C192.4 90.8 189 89 184.7 90.4C180.5 91.8 178.6 94.6 179.7 98.5C179.8 99.1 180 99.5 180.3 100.1ZM195.9 111.9L182.2 112.9L181.5 115.7L180.8 115.8C180.7 111.3 180.1 107.2 180.1 107.2L180.8 107.1L181.9 109.8L195.6 108.8L195.3 105.3L191.8 104.3L191.7 103.3L196.4 102.9C196.4 102.9 197.5 110.3 197.5 117.6L192.8 118L192.7 117L196 115.5L195.9 111.9ZM132.3 34C134.6 29 139.2 27.2 144.1 29.8C148.7 32.1 149.7 36.4 147.4 40.6C144.9 45.2 140.2 47.1 135.7 44.8C131.5 42.7 130.2 38.5 132.3 34ZM135.5 34.9C133.6 39 134.2 42.5 136.6 43.7C138.9 44.9 142 43.2 144.2 39.4C146.2 35.7 146 32.2 143.1 30.7C140.1 29.1 137.4 30.9 135.5 34.9ZM135.4 129.6C135 129.3 134.9 127.6 134.9 127.6C133.8 119.1 131.7 110.5 128.4 102.1C128.2 101.6 128.1 101.3 128.1 101C128.1 100.6 128.3 100.2 129.3 99.7C133.6 97.7 137.1 95.2 139.7 92.6C140.1 92.2 140.4 92 140.6 92C140.8 92 141 92.2 141.4 92.8C145.3 99.5 148.2 107 150.2 114.9C150.4 115.8 150.5 116.5 150.5 117C150.5 118.1 150.1 118.9 149.1 119.9C146.5 122.5 141.9 126.2 137.1 129.1C136.9 129.1 135.7 129.8 135.4 129.6ZM131.2 139.4C131.2 139.4 131.2 137.9 130.7 137.6C130.2 137.3 129 137.8 129 137.8C120.6 140.8 111.4 142.3 101.8 142.6C100 142.7 100.1 143.1 100 144.6C99.9 153.1 99.7 161.1 99.5 168.4C99.5 168.4 99.4 169.1 99.7 169.4C99.9 169.6 100.7 169.6 100.7 169.6C110.3 169 119.4 166.9 127.7 163.5C128.9 163 129.1 162.2 129.5 160.8C131.8 151.6 131.2 139.4 131.2 139.4ZM127.5 95.8C131.3 93.8 134.8 91.4 137 89.1C137.5 88.6 137.7 88.2 137.7 87.7C137.7 87.2 137.5 86.7 137 85.9C131.9 78.8 125.8 73.2 119.2 69C117.3 70.3 114.3 71.5 111.2 72.2C116.6 78.8 121.4 86.3 125.3 94.8C125.7 95.6 125.9 96.1 126.2 96.2C126.6 96.3 127.1 96 127.5 95.8ZM120.9 98.6C121.4 98.4 121.7 98.3 121.9 97.9C122 97.5 121.7 96.6 121.7 96.6C118 87.5 113.5 79.2 108.7 72.8C106.1 73.3 101.1 73.6 99.3 73.6C99.6 82.8 99.8 91.9 99.9 100.7C99.9 101.5 100 101.9 100.3 102.1C100.5 102.3 100.9 102.4 101.3 102.4C107.3 102.3 115.9 100.5 120.9 98.6ZM127.4 167.5C127.4 167.3 127.2 167.3 127.2 167.3C127 167.3 126.7 167.4 126 167.6C115.5 170.9 106.4 171.7 100.5 171.8C99.7 171.8 99.5 172.1 99.4 173L98.9 180.8C98.9 180.8 110.7 181.1 122.8 176C124.5 173.8 125.9 171.2 127.1 168.3C127.2 168 127.3 167.8 127.4 167.5ZM151.9 124.4C151.9 124.2 151.7 124.4 151.7 124.4C148.9 127.2 143.8 131 137.8 134C135.9 135 135.7 135.7 135.6 137.4C135.7 147.1 134.5 154.5 132.4 160.8C132.4 160.8 132.2 161.3 132.8 161C133.4 160.7 142.1 156.5 148.1 150.4C150.1 148.4 151.7 145.4 152 142.2C153.3 131.6 151.9 124.4 151.9 124.4ZM154.9 112C158.9 105.1 158.9 99.4 158.9 99.4C158.9 99 158.9 98.7 158.8 98.5C157 90.6 152.8 83.1 146.5 76.2C146.6 76.9 146.6 77.5 146.6 78.2C146.6 80.6 146.1 83.1 144.9 85.7C144.5 86.6 144.3 87.2 144.3 87.7C144.3 88.2 144.5 88.5 144.8 89.1C144.9 88.9 151.3 97.6 154.9 112ZM63.6 131.6C64.2 121.8 66.9 111.5 70.6 101.7C70.7 101.5 70.7 101.3 70.7 101.2C70.7 100.9 70.5 100.7 70 100.5C63.8 97.8 59.1 94.1 56 90.1C56 90.1 55.8 89.9 56 89.7C56.2 89.5 56.4 89.7 56.4 89.7C59.9 93.1 65 95.9 70.9 98.1C71.2 98.2 71.3 98.2 71.5 98.2C71.8 98.2 72 98 72.4 97.2C76.4 88 81.6 79.3 87.5 72.1C82.5 70.9 77.4 68.2 76.2 65.3C76.2 65.3 76 65 76.3 64.8C76.6 64.7 76.8 65 76.8 65C82.3 71 98.4 70.6 98.4 70.6C105.1 70.6 119 68.3 119 62.6C119 57.5 111.6 54.8 98.2 54.6C57.6 54.6 35.8 89.8 35.8 117.7C35.8 151.4 64.4 180.8 97.5 180.8C97.5 180.3 97.1 172.9 97.1 172.9C97.1 172.1 96.9 171.8 95.9 171.7C95.9 171.7 81.5 170.6 76.8 168.2C76.6 168.1 76.7 167.9 77 167.9C77 167.9 86.7 169.6 96 169.6C96 169.6 97 169.7 97 168.5C97 167.5 96.6 144.6 96.6 144.6C96.5 142.9 96.3 142.6 94.6 142.5C84.6 142 74.8 139.9 66.3 136.3C66.1 136.2 66 136.2 65.8 136.2C65.6 136.3 65.6 136.7 65.6 136.7C64.8 147.3 66 157.6 66 157.6C66 157.8 66 157.9 65.8 157.9C65.6 157.9 65.6 157.7 65.6 157.7C64.1 152 63.3 145.8 63.3 139.2C63.3 138.7 63.4 136 63.4 136C63.4 135.3 63.1 134.8 62.5 134.5C58.5 132.5 54.9 130 51.7 127.5C51.7 127.5 51.5 127.3 51.7 127.1C51.9 127 52 127.1 52 127.1C55.3 129.2 59.1 131 63 132.6H63.5C63.5 132.5 63.5 132.2 63.6 131.6ZM141.5 82.2C142.6 79.4 142.8 75.5 141.6 72.7C140.5 70.1 137 67.4 137 67.4C131.6 63.2 125.6 60.6 122.8 59.5C123.3 60.4 123.6 61.3 123.6 62.2C123.6 63.8 122.8 65.4 121.4 67.1C128.5 71.2 134.4 76.1 139.6 82.1C139.6 82.1 140.4 83.1 140.9 83.1C141.2 83 141.5 82.2 141.5 82.2ZM156.8 128.7C156.8 133 156.4 137.3 155.6 141.3C159.1 135.3 161.9 126.5 161.9 116.3C161.9 113.4 161.7 110.5 161.2 107.5C160.6 110.5 159.6 113.5 157.9 116.3C156.8 118.2 156.3 119.5 156.5 120.8C156.7 125 156.8 128.7 156.8 128.7ZM129.6 168.1C128.5 170.4 127.2 172.6 125.8 174.6C133.3 170.9 141.8 163.6 147.6 156.1C143.1 159.7 138 162.8 132.2 165.2C131.1 165.8 130.1 167.1 129.6 168.1ZM96.6 108C96.6 106.7 96 106 94.8 105.9C87.4 105.6 80.3 104.2 74 102C73.7 101.9 73.5 101.8 73.3 101.8C73.1 101.8 72.9 101.9 72.8 102.4C67 117 65.8 132.8 65.8 132.8C65.7 133.5 65.9 133.7 66.4 133.9C66.4 133.9 78.7 138.6 94.5 138.6C94.5 138.6 95.6 138.6 95.9 138.3C96.3 137.9 96.4 137.6 96.3 136.3C96.5 128.6 96.6 108 96.6 108ZM74.6 98C74.2 98.8 74.4 99.1 74.4 99.1C74.5 99.3 74.8 99.4 74.8 99.4C79.5 101 88.6 102.5 95 102.5C95.7 102.5 96.1 102.4 96.4 102.1C96.7 101.8 96.8 101.3 96.9 100.5C97.1 91.7 97.3 82.5 97.8 73.6C95.1 73.5 91.7 73.1 89.4 72.6C83.4 80.1 78.5 88.6 74.6 98ZM101.5 138.5C105.9 138.3 117.2 137.5 128.6 133.1C130.2 132.5 130.5 131.8 130.5 130.6C130.5 130.3 130.5 130 130.4 129.6C129.3 120.9 127.2 112.2 124.3 103.5C123.9 102.4 123.7 102.2 123.4 102.2C123.2 102.2 122.9 102.3 122.5 102.4C116.2 104.5 109.3 105.7 102 105.9C100.6 106 100.2 106.9 100.2 107.9C100.2 112.4 100.3 119.5 100.3 129.1C100.3 131.5 100.3 134.8 100.3 137.1C100.3 137.1 100.3 137.8 100.6 138.2C100.6 138.5 101 138.6 101.5 138.5ZM5.3 160.7C10.1 173.5 22 174.6 30 182.4C31.5 183.9 33 185.3 34.7 186.2L34.8 186.1C32.9 184.1 30.8 181.9 29.5 179.3C24.8 171.6 26.5 160.7 22.9 152.4C26.1 156.9 29 161.6 30.9 166.8C33.8 175.2 34.9 184.7 41.5 191C34.3 188.2 25.9 188.8 19.5 183.7C12.9 178.4 6.6 170.1 5.3 160.7ZM72.1 197.5C73.1 197.5 73.9 197.2 73.9 197.2C67.7 195.8 62.4 194.7 57.1 190.2C50.1 184.3 44.7 178.4 36.9 173.6C37.9 174.2 42.3 183.3 46 188.7C48.6 192.5 52.7 194.6 56.4 195.5C59.5 196.3 60.2 196.6 60.2 196.6C60.2 196.6 59.7 196.9 58.5 196.6C58.5 196.6 48.2 194.5 42.6 194.5C20.4 194.5 14.6 186 14.6 186C21.2 197.9 34.8 202.4 43.7 202.4C56.5 202.3 66 197.5 72.1 197.5ZM153.8 202.3C162.7 202.3 176.3 197.9 182.9 185.9C182.9 185.9 177.1 194.4 154.9 194.4C149.3 194.4 139 196.5 139 196.5C137.8 196.8 137.3 196.5 137.3 196.5C137.3 196.5 138 196.2 141.1 195.4C144.7 194.5 148.9 192.4 151.5 188.6C155.2 183.2 159.6 174.1 160.6 173.5C152.8 178.3 147.4 184.3 140.4 190.1C135.1 194.5 129.8 195.7 123.6 197.1C123.6 197.1 124.4 197.4 125.4 197.4C131.6 197.5 141.1 202.3 153.8 202.3ZM15.6 166.7C17.8 168.6 22.3 172.7 23.1 173.9C23.1 173.9 22.6 172.2 22.1 170.1C21.6 168 20.9 162.9 18.8 158.5C17.2 155 10.4 143.8 9.1 137.6C9.1 137.6 4.2 157 15.6 166.7ZM156 191C163.2 188.2 171.5 188.8 177.9 183.7C184.6 178.4 191 170.1 192.3 160.7C187.5 173.5 175.6 174.5 167.5 182.3C166 183.8 164.5 185.2 162.8 186.1L162.7 186C164.5 184 166.7 181.8 168 179.2C172.7 171.5 171 160.6 174.6 152.3C171.4 156.8 168.5 161.5 166.6 166.7C163.7 175.2 162.6 184.6 156 191ZM138.3 205C127.2 200.5 115.7 194.8 102.4 197.5C100.9 197.8 99.7 198.1 98.3 198.1C97 198.1 95.8 197.8 94.3 197.5C80.9 194.8 69.4 200.5 58.3 205C50 208 39.2 207.5 31.9 202.9C35.5 207.1 40.3 209.7 45.3 211.5C54.5 214.9 65.5 212.6 73.1 207.6C79.7 204.2 85.3 197.4 93.9 199.9C85.1 203.7 77.1 209.1 69.8 216L74.3 219.5C74.3 219.5 82.8 208 98.2 201.1C113.5 208 122.1 219.5 122.1 219.5L126.7 216C119.4 209.1 111.4 203.8 102.6 199.9C111.2 197.3 116.9 204.1 123.4 207.6C131.1 212.6 142 214.9 151.3 211.5C156.3 209.7 161.1 207.1 164.7 202.9C157.4 207.6 146.6 208.1 138.3 205ZM182 166.7C193.4 157 188.6 137.6 188.6 137.6C187.3 143.8 180.5 155.1 178.9 158.5C176.8 162.9 176.1 168 175.6 170.1C175.1 172.2 174.6 173.9 174.6 173.9C175.3 172.7 179.8 168.6 182 166.7ZM2 111.6C5.4 111.9 8.7 112.2 12.1 112.5C14.8 112.7 16.2 111.7 16.4 109.1C16.5 107.9 16.4 107 15.9 106.2C15.3 105.2 14.4 104.7 12.5 104.5C9.3 104.1 6 103.8 2.8 103.4C2.4 104.1 2.1 104.8 1.7 105.5C1.5 105.5 1.2 105.5 1 105.4C1.2 103.3 1.5 101.2 1.7 99.1C1.9 99.1 2.2 99.2 2.4 99.2C2.6 100 2.8 100.7 3 101.5C6.1 101.9 9.2 102.2 12.3 102.6C14.6 102.9 16 103.7 16.9 105.3C17.6 106.6 17.9 108.1 17.7 110C17.3 114 15.2 116.1 11.8 115.8C8.4 115.5 5.1 115.3 1.7 115C1.3 115.7 1 116.4 0.700001 117.1C0.500001 117.1 0.2 117.1 0 117C0.2 114.4 0.4 111.9 0.6 109.3C0.8 109.3 1.1 109.3 1.3 109.4C1.6 110.2 1.8 110.9 2 111.6ZM7.4 91.8C11 93 14.7 94.2 18.3 95.4C18.8 94.9 19.3 94.3 19.8 93.8C20 93.9 20.2 93.9 20.5 94C19.9 95.8 19.3 97.6 18.7 99.4C18.5 99.3 18.2 99.3 18 99.2C17.9 98.4 17.9 97.7 17.8 96.9C13.5 95.5 9.2 94.1 4.9 92.7C4.4 93.3 3.9 93.9 3.4 94.5C3.3 94.5 3 94.5 2.8 94.4C3.3 92.8 3.8 91.2 4.4 89.5C8.9 87.9 13.4 86.3 17.9 84.8C14.9 83.7 11.8 82.6 8.8 81.6C8.3 82.1 7.8 82.7 7.3 83.3C7.1 83.2 6.9 83.2 6.6 83.1C7.2 81.2 7.9 79.3 8.6 77.5C8.8 77.6 9 77.7 9.2 77.7C9.2 78.5 9.2 79.3 9.3 80.1C14.1 81.8 18.9 83.6 23.7 85.3C23.6 85.7 23.4 86.1 23.3 86.5C18 88.1 12.7 89.9 7.4 91.8ZM31.1 62.4L34.9 65.1C34 67.4 33.3 68.8 32.4 70.1C29.3 74.4 25 75.3 20.7 72.2C16.4 69.2 15 64.8 18.7 59.6C19.5 58.4 20.8 57.2 22.4 55.7L22.7 55.4L26 57.8L25.3 58.8L22 58.1C21.5 58.4 21.2 58.7 20.9 59.1C17.7 63.1 18.7 66.8 22.6 69.6C26.1 72.1 29.8 71.5 32.1 68.3C32.5 67.7 32.6 67.3 32.6 67.3L29.3 65L27.3 66.2L26.7 65.8L31 59.9L31.6 60.3L31.1 62.4ZM38 60.6L28.4 50.9L26.3 51.7L25.8 51.2L31.1 46L31.6 46.5L30.7 48.6L40.4 58.5L43.4 55.5L42.4 52.2L43.1 51.4L45.8 54.7C45.8 54.7 41.6 58.7 37.5 63L37 62.5L38 60.6ZM42.7 47.2C39.6 42.7 40.3 37.9 45 34.9C49.3 32.2 53.5 33.4 56 37.5C58.7 42 58 46.9 53.7 49.7C49.8 52.3 45.5 51.2 42.7 47.2ZM45.2 44.9C47.8 48.6 51.1 49.8 53.4 48.4C55.6 47 55.7 43.5 53.4 39.6C51.2 36 48.1 34.4 45.4 36.2C42.4 38 42.6 41.3 45.2 44.9ZM63.7 42.1L58.3 29.5H56.1L55.8 28.9L63.4 25.7C65.2 25 66.3 24.9 67.5 25.3C68.6 25.7 69.3 26.4 69.7 27.4C70.5 29.5 69.4 31.6 66.7 33C70 31.8 72.2 32.5 73.2 34.9C73.7 36.2 73.5 37.6 72.8 38.7C72.1 39.8 71 40.5 68.9 41.4L62.4 44.3L62.1 43.7L63.7 42.1ZM63.8 33.8L64.8 33.4C66.7 32.6 67.5 30.9 66.7 29C66 27.1 64.5 26.4 62.6 27.2L61.2 27.9L63.8 33.8ZM66.8 41.1L67.7 40.7C69 40.2 69.6 39.8 70 38.9C70.4 38.1 70.4 37.1 70 36.2C69.2 34.1 67.5 33.5 65.3 34.4L64.1 34.9L66.8 41.1ZM79.8 31.4L78.9 36.5L81 37L81.1 37.7L75.6 39L75.5 38.3L77.2 37.1L81 20.5L82.2 20.3L90.8 34.6L92.8 35.1L92.9 35.8L85.8 36.8L85.7 36.1L87.4 34.9L84.9 30.4L79.8 31.4ZM80 30.2L84.2 29.4L81.3 24.1L80 30.2ZM96.4 34.3L96.5 20.7L94.4 19.8V19.1C98.3 19 101.8 19 101.8 19V19.7L99.7 20.6L99.5 34.5L103.4 34.6L105 31.6H106L105.6 35.9C105.6 35.9 99.3 35.6 94.1 35.8V35.1L96.4 34.3ZM124.5 38.5L126.6 35.6L127.7 35.9L126.4 39.8H126C123.7 39.7 122.4 39.6 120.9 39.2C116 37.9 113.9 34.1 115 29.1C116.2 23.9 119.9 21.4 126.1 22.9C127.6 23.2 129.1 24 130.9 25L129.8 29L128.7 28.8L128.4 25.2C128.4 25.2 127.8 24.9 127.1 24.7C121.7 23.3 119.1 25.9 118.2 30C117.2 34.2 119 37.4 122.7 38.5C123.5 38.3 123.9 38.4 124.5 38.5ZM155.8 52L167.3 46.8L171.1 50.6L170.6 51.1L168.4 50.4L159 60.1L160.1 62.2L159.6 62.7C157.1 60.2 154.6 57.8 154.6 57.8L155.1 57.2L157.2 57.9L164.8 49.9L152.1 55.5L151.6 55.1L155.4 41.7L148.5 50.4L149.5 52.4L149 52.9L144.2 49.5L144.7 49L146.9 49.7L155.5 39.3L154.5 37.3L155 36.8L159.4 40L155.8 52ZM169.8 64.2L165.5 67.4L166 69.6L165.5 70C163.4 67.1 161 64.2 161 64.2L161.6 63.8L163.5 64.9L174.1 56.6L173.6 54.5L174.2 54.1L178.6 59.8C180.1 61.8 180.5 63 180.6 64.4C180.6 65.8 180 67 178.8 67.9C176.3 69.7 173.2 68.8 170.9 65.7L169.8 64.2ZM171.2 64.2C172 65.3 172.6 65.7 173.3 65.9C174.4 66.1 175.6 66 176.6 65.2C177.6 64.5 178.2 63.6 178.3 62.7C178.4 61.8 178.2 61.1 177.5 60.2L176.5 59L170.6 63.6L171.2 64.2ZM176.5 75.6L171.4 76L171.5 78.1L170.9 78.4C169.6 76 168.1 73.5 168.1 73.5L168.7 73.1L170.3 74.5L187.3 73.5L187.9 74.9L176.5 86.9L176.6 89L176 89.3C174.6 85.9 173.3 82.8 173.3 82.8L173.9 82.5L175.5 83.8L178.9 80.2L176.5 75.6ZM177.8 75.5L179.7 79.3L184 75.1L177.8 75.5ZM180.3 100.1L184 100.5L184.3 101.6L180.3 102.4L180.1 102.1C178.9 100.1 178.4 98.9 178 97.5C176.6 92.5 178.8 89 183.8 87.3C189 85.6 193.3 88.2 194.7 93.7C195.1 95.2 195.3 97 195.3 99L191.3 100L191 98.9L193.9 96.9C193.9 96.5 193.8 95.9 193.7 95.4C192.4 90.8 189 89 184.7 90.4C180.5 91.8 178.6 94.6 179.7 98.5C179.8 99.1 180 99.5 180.3 100.1ZM195.9 111.9L182.2 112.9L181.5 115.7L180.8 115.8C180.7 111.3 180.1 107.2 180.1 107.2L180.8 107.1L181.9 109.8L195.6 108.8L195.3 105.3L191.8 104.3L191.7 103.3L196.4 102.9C196.4 102.9 197.5 110.3 197.5 117.6L192.8 118L192.7 117L196 115.5L195.9 111.9ZM132.3 34C134.6 29 139.2 27.2 144.1 29.8C148.7 32.1 149.7 36.4 147.4 40.6C144.9 45.2 140.2 47.1 135.7 44.8C131.5 42.7 130.2 38.5 132.3 34ZM135.5 34.9C133.6 39 134.2 42.5 136.6 43.7C138.9 44.9 142 43.2 144.2 39.4C146.2 35.7 146 32.2 143.1 30.7C140.1 29.1 137.4 30.9 135.5 34.9Z" fill="white"/>
<path d="M55.3438 241.25V264H52.3125L40.8594 246.453V264H37.8438V241.25H40.8594L52.3594 258.844V241.25H55.3438ZM67.2656 264.312C66.0885 264.312 65.0208 264.115 64.0625 263.719C63.1146 263.312 62.2969 262.745 61.6094 262.016C60.9323 261.286 60.4115 260.422 60.0469 259.422C59.6823 258.422 59.5 257.328 59.5 256.141V255.484C59.5 254.109 59.7031 252.885 60.1094 251.812C60.5156 250.729 61.0677 249.812 61.7656 249.062C62.4635 248.312 63.2552 247.745 64.1406 247.359C65.026 246.974 65.9427 246.781 66.8906 246.781C68.099 246.781 69.1406 246.99 70.0156 247.406C70.901 247.823 71.625 248.406 72.1875 249.156C72.75 249.896 73.1667 250.771 73.4375 251.781C73.7083 252.781 73.8438 253.875 73.8438 255.062V256.359H61.2188V254H70.9531V253.781C70.9115 253.031 70.7552 252.302 70.4844 251.594C70.224 250.885 69.8073 250.302 69.2344 249.844C68.6615 249.385 67.8802 249.156 66.8906 249.156C66.2344 249.156 65.6302 249.297 65.0781 249.578C64.526 249.849 64.0521 250.255 63.6562 250.797C63.2604 251.339 62.9531 252 62.7344 252.781C62.5156 253.562 62.4062 254.464 62.4062 255.484V256.141C62.4062 256.943 62.5156 257.698 62.7344 258.406C62.9635 259.104 63.2917 259.719 63.7188 260.25C64.1562 260.781 64.6823 261.198 65.2969 261.5C65.9219 261.802 66.6302 261.953 67.4219 261.953C68.4427 261.953 69.3073 261.745 70.0156 261.328C70.724 260.911 71.3438 260.354 71.875 259.656L73.625 261.047C73.2604 261.599 72.7969 262.125 72.2344 262.625C71.6719 263.125 70.9792 263.531 70.1562 263.844C69.3438 264.156 68.3802 264.312 67.2656 264.312ZM84.2969 247.094V249.312H75.1562V247.094H84.2969ZM78.25 242.984H81.1406V259.812C81.1406 260.385 81.2292 260.818 81.4062 261.109C81.5833 261.401 81.8125 261.594 82.0938 261.688C82.375 261.781 82.6771 261.828 83 261.828C83.2396 261.828 83.4896 261.807 83.75 261.766C84.0208 261.714 84.224 261.672 84.3594 261.641L84.375 264C84.1458 264.073 83.8438 264.141 83.4688 264.203C83.1042 264.276 82.6615 264.312 82.1406 264.312C81.4323 264.312 80.7812 264.172 80.1875 263.891C79.5938 263.609 79.1198 263.141 78.7656 262.484C78.4219 261.818 78.25 260.922 78.25 259.797V242.984ZM91.9688 261L96.3125 247.094H98.2188L97.8438 249.859L93.4219 264H91.5625L91.9688 261ZM89.0469 247.094L92.75 261.156L93.0156 264H91.0625L86.1562 247.094H89.0469ZM102.375 261.047L105.906 247.094H108.781L103.875 264H101.938L102.375 261.047ZM98.6406 247.094L102.891 260.766L103.375 264H101.531L96.9844 249.828L96.6094 247.094H98.6406ZM110.984 255.734V255.375C110.984 254.156 111.161 253.026 111.516 251.984C111.87 250.932 112.38 250.021 113.047 249.25C113.714 248.469 114.521 247.865 115.469 247.438C116.417 247 117.479 246.781 118.656 246.781C119.844 246.781 120.911 247 121.859 247.438C122.818 247.865 123.63 248.469 124.297 249.25C124.974 250.021 125.49 250.932 125.844 251.984C126.198 253.026 126.375 254.156 126.375 255.375V255.734C126.375 256.953 126.198 258.083 125.844 259.125C125.49 260.167 124.974 261.078 124.297 261.859C123.63 262.63 122.823 263.234 121.875 263.672C120.938 264.099 119.875 264.312 118.688 264.312C117.5 264.312 116.432 264.099 115.484 263.672C114.536 263.234 113.724 262.63 113.047 261.859C112.38 261.078 111.87 260.167 111.516 259.125C111.161 258.083 110.984 256.953 110.984 255.734ZM113.875 255.375V255.734C113.875 256.578 113.974 257.375 114.172 258.125C114.37 258.865 114.667 259.521 115.062 260.094C115.469 260.667 115.974 261.12 116.578 261.453C117.182 261.776 117.885 261.938 118.688 261.938C119.479 261.938 120.172 261.776 120.766 261.453C121.37 261.12 121.87 260.667 122.266 260.094C122.661 259.521 122.958 258.865 123.156 258.125C123.365 257.375 123.469 256.578 123.469 255.734V255.375C123.469 254.542 123.365 253.755 123.156 253.016C122.958 252.266 122.656 251.604 122.25 251.031C121.854 250.448 121.354 249.99 120.75 249.656C120.156 249.323 119.458 249.156 118.656 249.156C117.865 249.156 117.167 249.323 116.562 249.656C115.969 249.99 115.469 250.448 115.062 251.031C114.667 251.604 114.37 252.266 114.172 253.016C113.974 253.755 113.875 254.542 113.875 255.375ZM132.891 249.75V264H130V247.094H132.812L132.891 249.75ZM138.172 247L138.156 249.688C137.917 249.635 137.688 249.604 137.469 249.594C137.26 249.573 137.021 249.562 136.75 249.562C136.083 249.562 135.495 249.667 134.984 249.875C134.474 250.083 134.042 250.375 133.688 250.75C133.333 251.125 133.052 251.573 132.844 252.094C132.646 252.604 132.516 253.167 132.453 253.781L131.641 254.25C131.641 253.229 131.74 252.271 131.938 251.375C132.146 250.479 132.464 249.688 132.891 249C133.318 248.302 133.859 247.76 134.516 247.375C135.182 246.979 135.974 246.781 136.891 246.781C137.099 246.781 137.339 246.807 137.609 246.859C137.88 246.901 138.068 246.948 138.172 247ZM143.75 240V264H140.844V240H143.75ZM154.078 247.094L146.703 254.984L142.578 259.266L142.344 256.188L145.297 252.656L150.547 247.094H154.078ZM151.438 264L145.406 255.938L146.906 253.359L154.844 264H151.438ZM26.0625 291.359H20.2969L20.2656 288.938H25.5C26.3646 288.938 27.1198 288.792 27.7656 288.5C28.4115 288.208 28.9115 287.792 29.2656 287.25C29.6302 286.698 29.8125 286.042 29.8125 285.281C29.8125 284.448 29.651 283.771 29.3281 283.25C29.0156 282.719 28.5312 282.333 27.875 282.094C27.2292 281.844 26.4062 281.719 25.4062 281.719H20.9688V302H17.9531V279.25H25.4062C26.5729 279.25 27.6146 279.37 28.5312 279.609C29.4479 279.839 30.224 280.203 30.8594 280.703C31.5052 281.193 31.9948 281.818 32.3281 282.578C32.6615 283.339 32.8281 284.25 32.8281 285.312C32.8281 286.25 32.5885 287.099 32.1094 287.859C31.6302 288.609 30.9635 289.224 30.1094 289.703C29.2656 290.182 28.276 290.49 27.1406 290.625L26.0625 291.359ZM25.9219 302H19.1094L20.8125 299.547H25.9219C26.8802 299.547 27.6927 299.38 28.3594 299.047C29.0365 298.714 29.5521 298.245 29.9062 297.641C30.2604 297.026 30.4375 296.302 30.4375 295.469C30.4375 294.625 30.2865 293.896 29.9844 293.281C29.6823 292.667 29.2083 292.193 28.5625 291.859C27.9167 291.526 27.0833 291.359 26.0625 291.359H21.7656L21.7969 288.938H27.6719L28.3125 289.812C29.4062 289.906 30.3333 290.219 31.0938 290.75C31.8542 291.271 32.4323 291.938 32.8281 292.75C33.2344 293.562 33.4375 294.458 33.4375 295.438C33.4375 296.854 33.125 298.052 32.5 299.031C31.8854 300 31.0156 300.74 29.8906 301.25C28.7656 301.75 27.4427 302 25.9219 302ZM47.4219 299.109V290.406C47.4219 289.74 47.2865 289.161 47.0156 288.672C46.7552 288.172 46.3594 287.786 45.8281 287.516C45.2969 287.245 44.6406 287.109 43.8594 287.109C43.1302 287.109 42.4896 287.234 41.9375 287.484C41.3958 287.734 40.9688 288.062 40.6562 288.469C40.3542 288.875 40.2031 289.312 40.2031 289.781H37.3125C37.3125 289.177 37.4688 288.578 37.7812 287.984C38.0938 287.391 38.5417 286.854 39.125 286.375C39.7188 285.885 40.4271 285.5 41.25 285.219C42.0833 284.927 43.0104 284.781 44.0312 284.781C45.2604 284.781 46.3438 284.99 47.2812 285.406C48.2292 285.823 48.9688 286.453 49.5 287.297C50.0417 288.13 50.3125 289.177 50.3125 290.438V298.312C50.3125 298.875 50.3594 299.474 50.4531 300.109C50.5573 300.745 50.7083 301.292 50.9062 301.75V302H47.8906C47.7448 301.667 47.6302 301.224 47.5469 300.672C47.4635 300.109 47.4219 299.589 47.4219 299.109ZM47.9219 291.75L47.9531 293.781H45.0312C44.2083 293.781 43.474 293.849 42.8281 293.984C42.1823 294.109 41.6406 294.302 41.2031 294.562C40.7656 294.823 40.4323 295.151 40.2031 295.547C39.974 295.932 39.8594 296.385 39.8594 296.906C39.8594 297.438 39.9792 297.922 40.2188 298.359C40.4583 298.797 40.8177 299.146 41.2969 299.406C41.7865 299.656 42.3854 299.781 43.0938 299.781C43.9792 299.781 44.7604 299.594 45.4375 299.219C46.1146 298.844 46.651 298.385 47.0469 297.844C47.4531 297.302 47.6719 296.776 47.7031 296.266L48.9375 297.656C48.8646 298.094 48.6667 298.578 48.3438 299.109C48.0208 299.641 47.5885 300.151 47.0469 300.641C46.5156 301.12 45.8802 301.521 45.1406 301.844C44.4115 302.156 43.5885 302.312 42.6719 302.312C41.526 302.312 40.5208 302.089 39.6562 301.641C38.8021 301.193 38.1354 300.594 37.6562 299.844C37.1875 299.083 36.9531 298.234 36.9531 297.297C36.9531 296.391 37.1302 295.594 37.4844 294.906C37.8385 294.208 38.349 293.63 39.0156 293.172C39.6823 292.703 40.4844 292.349 41.4219 292.109C42.3594 291.87 43.4062 291.75 44.5625 291.75H47.9219ZM57.75 288.703V302H54.8594V285.094H57.5938L57.75 288.703ZM57.0625 292.906L55.8594 292.859C55.8698 291.703 56.0417 290.635 56.375 289.656C56.7083 288.667 57.1771 287.807 57.7812 287.078C58.3854 286.349 59.1042 285.786 59.9375 285.391C60.7812 284.984 61.7135 284.781 62.7344 284.781C63.5677 284.781 64.3177 284.896 64.9844 285.125C65.651 285.344 66.2188 285.698 66.6875 286.188C67.1667 286.677 67.5312 287.312 67.7812 288.094C68.0312 288.865 68.1562 289.807 68.1562 290.922V302H65.25V290.891C65.25 290.005 65.1198 289.297 64.8594 288.766C64.599 288.224 64.2188 287.833 63.7188 287.594C63.2188 287.344 62.6042 287.219 61.875 287.219C61.1562 287.219 60.5 287.37 59.9062 287.672C59.3229 287.974 58.8177 288.391 58.3906 288.922C57.974 289.453 57.6458 290.062 57.4062 290.75C57.1771 291.427 57.0625 292.146 57.0625 292.906ZM83.5 285.094H86.125V301.641C86.125 303.13 85.8229 304.401 85.2188 305.453C84.6146 306.505 83.7708 307.302 82.6875 307.844C81.6146 308.396 80.375 308.672 78.9688 308.672C78.3854 308.672 77.6979 308.578 76.9062 308.391C76.125 308.214 75.3542 307.906 74.5938 307.469C73.8438 307.042 73.2135 306.464 72.7031 305.734L74.2188 304.016C74.9271 304.87 75.6667 305.464 76.4375 305.797C77.2188 306.13 77.9896 306.297 78.75 306.297C79.6667 306.297 80.4583 306.125 81.125 305.781C81.7917 305.438 82.3073 304.927 82.6719 304.25C83.0469 303.583 83.2344 302.76 83.2344 301.781V288.812L83.5 285.094ZM71.8594 293.734V293.406C71.8594 292.115 72.0104 290.943 72.3125 289.891C72.625 288.828 73.0677 287.917 73.6406 287.156C74.224 286.396 74.9271 285.812 75.75 285.406C76.5729 284.99 77.5 284.781 78.5312 284.781C79.5938 284.781 80.5208 284.969 81.3125 285.344C82.1146 285.708 82.7917 286.245 83.3438 286.953C83.9062 287.651 84.349 288.495 84.6719 289.484C84.9948 290.474 85.2188 291.594 85.3438 292.844V294.281C85.2292 295.521 85.0052 296.635 84.6719 297.625C84.349 298.615 83.9062 299.458 83.3438 300.156C82.7917 300.854 82.1146 301.391 81.3125 301.766C80.5104 302.13 79.5729 302.312 78.5 302.312C77.4896 302.312 76.5729 302.099 75.75 301.672C74.9375 301.245 74.2396 300.646 73.6562 299.875C73.0729 299.104 72.625 298.198 72.3125 297.156C72.0104 296.104 71.8594 294.964 71.8594 293.734ZM74.75 293.406V293.734C74.75 294.578 74.8333 295.37 75 296.109C75.1771 296.849 75.4427 297.5 75.7969 298.062C76.1615 298.625 76.625 299.068 77.1875 299.391C77.75 299.703 78.4219 299.859 79.2031 299.859C80.1615 299.859 80.9531 299.656 81.5781 299.25C82.2031 298.844 82.6979 298.307 83.0625 297.641C83.4375 296.974 83.7292 296.25 83.9375 295.469V291.703C83.8229 291.13 83.6458 290.578 83.4062 290.047C83.1771 289.505 82.875 289.026 82.5 288.609C82.1354 288.182 81.6823 287.844 81.1406 287.594C80.599 287.344 79.9635 287.219 79.2344 287.219C78.4427 287.219 77.7604 287.385 77.1875 287.719C76.625 288.042 76.1615 288.49 75.7969 289.062C75.4427 289.625 75.1771 290.281 75 291.031C74.8333 291.771 74.75 292.562 74.75 293.406ZM93.6562 278V302H90.75V278H93.6562ZM108.266 299.109V290.406C108.266 289.74 108.13 289.161 107.859 288.672C107.599 288.172 107.203 287.786 106.672 287.516C106.141 287.245 105.484 287.109 104.703 287.109C103.974 287.109 103.333 287.234 102.781 287.484C102.24 287.734 101.812 288.062 101.5 288.469C101.198 288.875 101.047 289.312 101.047 289.781H98.1562C98.1562 289.177 98.3125 288.578 98.625 287.984C98.9375 287.391 99.3854 286.854 99.9688 286.375C100.562 285.885 101.271 285.5 102.094 285.219C102.927 284.927 103.854 284.781 104.875 284.781C106.104 284.781 107.188 284.99 108.125 285.406C109.073 285.823 109.812 286.453 110.344 287.297C110.885 288.13 111.156 289.177 111.156 290.438V298.312C111.156 298.875 111.203 299.474 111.297 300.109C111.401 300.745 111.552 301.292 111.75 301.75V302H108.734C108.589 301.667 108.474 301.224 108.391 300.672C108.307 300.109 108.266 299.589 108.266 299.109ZM108.766 291.75L108.797 293.781H105.875C105.052 293.781 104.318 293.849 103.672 293.984C103.026 294.109 102.484 294.302 102.047 294.562C101.609 294.823 101.276 295.151 101.047 295.547C100.818 295.932 100.703 296.385 100.703 296.906C100.703 297.438 100.823 297.922 101.062 298.359C101.302 298.797 101.661 299.146 102.141 299.406C102.63 299.656 103.229 299.781 103.938 299.781C104.823 299.781 105.604 299.594 106.281 299.219C106.958 298.844 107.495 298.385 107.891 297.844C108.297 297.302 108.516 296.776 108.547 296.266L109.781 297.656C109.708 298.094 109.51 298.578 109.188 299.109C108.865 299.641 108.432 300.151 107.891 300.641C107.359 301.12 106.724 301.521 105.984 301.844C105.255 302.156 104.432 302.312 103.516 302.312C102.37 302.312 101.365 302.089 100.5 301.641C99.6458 301.193 98.9792 300.594 98.5 299.844C98.0312 299.083 97.7969 298.234 97.7969 297.297C97.7969 296.391 97.974 295.594 98.3281 294.906C98.6823 294.208 99.1927 293.63 99.8594 293.172C100.526 292.703 101.328 292.349 102.266 292.109C103.203 291.87 104.25 291.75 105.406 291.75H108.766ZM126.359 298.719V278H129.266V302H126.609L126.359 298.719ZM114.984 293.734V293.406C114.984 292.115 115.141 290.943 115.453 289.891C115.776 288.828 116.229 287.917 116.812 287.156C117.406 286.396 118.109 285.812 118.922 285.406C119.745 284.99 120.661 284.781 121.672 284.781C122.734 284.781 123.661 284.969 124.453 285.344C125.255 285.708 125.932 286.245 126.484 286.953C127.047 287.651 127.49 288.495 127.812 289.484C128.135 290.474 128.359 291.594 128.484 292.844V294.281C128.37 295.521 128.146 296.635 127.812 297.625C127.49 298.615 127.047 299.458 126.484 300.156C125.932 300.854 125.255 301.391 124.453 301.766C123.651 302.13 122.714 302.312 121.641 302.312C120.651 302.312 119.745 302.099 118.922 301.672C118.109 301.245 117.406 300.646 116.812 299.875C116.229 299.104 115.776 298.198 115.453 297.156C115.141 296.104 114.984 294.964 114.984 293.734ZM117.891 293.406V293.734C117.891 294.578 117.974 295.37 118.141 296.109C118.318 296.849 118.589 297.5 118.953 298.062C119.318 298.625 119.781 299.068 120.344 299.391C120.906 299.703 121.578 299.859 122.359 299.859C123.318 299.859 124.104 299.656 124.719 299.25C125.344 298.844 125.844 298.307 126.219 297.641C126.594 296.974 126.885 296.25 127.094 295.469V291.703C126.969 291.13 126.786 290.578 126.547 290.047C126.318 289.505 126.016 289.026 125.641 288.609C125.276 288.182 124.823 287.844 124.281 287.594C123.75 287.344 123.12 287.219 122.391 287.219C121.599 287.219 120.917 287.385 120.344 287.719C119.781 288.042 119.318 288.49 118.953 289.062C118.589 289.625 118.318 290.281 118.141 291.031C117.974 291.771 117.891 292.562 117.891 293.406ZM140.781 302.312C139.604 302.312 138.536 302.115 137.578 301.719C136.63 301.312 135.812 300.745 135.125 300.016C134.448 299.286 133.927 298.422 133.562 297.422C133.198 296.422 133.016 295.328 133.016 294.141V293.484C133.016 292.109 133.219 290.885 133.625 289.812C134.031 288.729 134.583 287.812 135.281 287.062C135.979 286.312 136.771 285.745 137.656 285.359C138.542 284.974 139.458 284.781 140.406 284.781C141.615 284.781 142.656 284.99 143.531 285.406C144.417 285.823 145.141 286.406 145.703 287.156C146.266 287.896 146.682 288.771 146.953 289.781C147.224 290.781 147.359 291.875 147.359 293.062V294.359H134.734V292H144.469V291.781C144.427 291.031 144.271 290.302 144 289.594C143.74 288.885 143.323 288.302 142.75 287.844C142.177 287.385 141.396 287.156 140.406 287.156C139.75 287.156 139.146 287.297 138.594 287.578C138.042 287.849 137.568 288.255 137.172 288.797C136.776 289.339 136.469 290 136.25 290.781C136.031 291.562 135.922 292.464 135.922 293.484V294.141C135.922 294.943 136.031 295.698 136.25 296.406C136.479 297.104 136.807 297.719 137.234 298.25C137.672 298.781 138.198 299.198 138.812 299.5C139.438 299.802 140.146 299.953 140.938 299.953C141.958 299.953 142.823 299.745 143.531 299.328C144.24 298.911 144.859 298.354 145.391 297.656L147.141 299.047C146.776 299.599 146.312 300.125 145.75 300.625C145.188 301.125 144.495 301.531 143.672 301.844C142.859 302.156 141.896 302.312 140.781 302.312ZM160.578 297.516C160.578 297.099 160.484 296.714 160.297 296.359C160.12 295.995 159.75 295.667 159.188 295.375C158.635 295.073 157.802 294.812 156.688 294.594C155.75 294.396 154.901 294.161 154.141 293.891C153.391 293.62 152.75 293.292 152.219 292.906C151.698 292.521 151.297 292.068 151.016 291.547C150.734 291.026 150.594 290.417 150.594 289.719C150.594 289.052 150.74 288.422 151.031 287.828C151.333 287.234 151.755 286.708 152.297 286.25C152.849 285.792 153.51 285.432 154.281 285.172C155.052 284.911 155.911 284.781 156.859 284.781C158.214 284.781 159.37 285.021 160.328 285.5C161.286 285.979 162.021 286.62 162.531 287.422C163.042 288.214 163.297 289.094 163.297 290.062H160.406C160.406 289.594 160.266 289.141 159.984 288.703C159.714 288.255 159.312 287.885 158.781 287.594C158.26 287.302 157.62 287.156 156.859 287.156C156.057 287.156 155.406 287.281 154.906 287.531C154.417 287.771 154.057 288.078 153.828 288.453C153.609 288.828 153.5 289.224 153.5 289.641C153.5 289.953 153.552 290.234 153.656 290.484C153.771 290.724 153.969 290.948 154.25 291.156C154.531 291.354 154.927 291.542 155.438 291.719C155.948 291.896 156.599 292.073 157.391 292.25C158.776 292.562 159.917 292.938 160.812 293.375C161.708 293.812 162.375 294.349 162.812 294.984C163.25 295.62 163.469 296.391 163.469 297.297C163.469 298.036 163.312 298.714 163 299.328C162.698 299.943 162.255 300.474 161.672 300.922C161.099 301.359 160.411 301.703 159.609 301.953C158.818 302.193 157.927 302.312 156.938 302.312C155.448 302.312 154.188 302.047 153.156 301.516C152.125 300.984 151.344 300.297 150.812 299.453C150.281 298.609 150.016 297.719 150.016 296.781H152.922C152.964 297.573 153.193 298.203 153.609 298.672C154.026 299.13 154.536 299.458 155.141 299.656C155.745 299.844 156.344 299.938 156.938 299.938C157.729 299.938 158.391 299.833 158.922 299.625C159.464 299.417 159.875 299.13 160.156 298.766C160.438 298.401 160.578 297.984 160.578 297.516ZM170.156 278V302H167.266V278H170.156ZM169.469 292.906L168.266 292.859C168.276 291.703 168.448 290.635 168.781 289.656C169.115 288.667 169.583 287.807 170.188 287.078C170.792 286.349 171.51 285.786 172.344 285.391C173.188 284.984 174.12 284.781 175.141 284.781C175.974 284.781 176.724 284.896 177.391 285.125C178.057 285.344 178.625 285.698 179.094 286.188C179.573 286.677 179.938 287.312 180.188 288.094C180.438 288.865 180.562 289.807 180.562 290.922V302H177.656V290.891C177.656 290.005 177.526 289.297 177.266 288.766C177.005 288.224 176.625 287.833 176.125 287.594C175.625 287.344 175.01 287.219 174.281 287.219C173.562 287.219 172.906 287.37 172.312 287.672C171.729 287.974 171.224 288.391 170.797 288.922C170.38 289.453 170.052 290.062 169.812 290.75C169.583 291.427 169.469 292.146 169.469 292.906Z" fill="white"/>
<path d="M258.193 30.4688V130H237.754V30.4688H258.193ZM286.768 30.4688H304.131L329.697 103.545L355.264 30.4688H372.627L336.67 130H322.725L286.768 30.4688ZM277.402 30.4688H294.697L297.842 101.699V130H277.402V30.4688ZM364.697 30.4688H382.061V130H361.553V101.699L364.697 30.4688ZM438.799 94.5215H413.438V78.5254H438.799C442.718 78.5254 445.908 77.8874 448.369 76.6113C450.83 75.2897 452.63 73.4668 453.77 71.1426C454.909 68.8184 455.479 66.1979 455.479 63.2812C455.479 60.319 454.909 57.5618 453.77 55.0098C452.63 52.4577 450.83 50.4069 448.369 48.8574C445.908 47.3079 442.718 46.5332 438.799 46.5332H420.547V130H400.039V30.4688H438.799C446.592 30.4688 453.268 31.8815 458.828 34.707C464.434 37.487 468.717 41.3379 471.68 46.2598C474.642 51.1816 476.123 56.8099 476.123 63.1445C476.123 69.5703 474.642 75.1302 471.68 79.8242C468.717 84.5182 464.434 88.1413 458.828 90.6934C453.268 93.2454 446.592 94.5215 438.799 94.5215ZM519.395 47.4902L492.324 130H470.518L507.5 30.4688H521.377L519.395 47.4902ZM541.885 130L514.746 47.4902L512.559 30.4688H526.572L563.76 130H541.885ZM540.654 92.9492V109.014H488.086V92.9492H540.654ZM629.453 96.9824H649.893C649.482 103.682 647.637 109.629 644.355 114.824C641.12 120.02 636.585 124.076 630.752 126.992C624.964 129.909 617.992 131.367 609.834 131.367C603.454 131.367 597.734 130.273 592.676 128.086C587.617 125.853 583.288 122.663 579.688 118.516C576.133 114.368 573.421 109.355 571.553 103.477C569.684 97.5977 568.75 91.0124 568.75 83.7207V76.8164C568.75 69.5247 569.707 62.9395 571.621 57.0605C573.581 51.1361 576.361 46.1003 579.961 41.9531C583.607 37.806 587.959 34.6159 593.018 32.3828C598.076 30.1497 603.727 29.0332 609.971 29.0332C618.265 29.0332 625.26 30.5371 630.957 33.5449C636.699 36.5527 641.143 40.6999 644.287 45.9863C647.477 51.2728 649.391 57.2884 650.029 64.0332H629.521C629.294 60.0228 628.496 56.6276 627.129 53.8477C625.762 51.0221 623.688 48.903 620.908 47.4902C618.174 46.0319 614.528 45.3027 609.971 45.3027C606.553 45.3027 603.568 45.9408 601.016 47.2168C598.464 48.4928 596.322 50.4297 594.59 53.0273C592.858 55.625 591.559 58.9062 590.693 62.8711C589.873 66.7904 589.463 71.3932 589.463 76.6797V83.7207C589.463 88.8704 589.85 93.4049 590.625 97.3242C591.4 101.198 592.585 104.479 594.18 107.168C595.82 109.811 597.917 111.816 600.469 113.184C603.066 114.505 606.188 115.166 609.834 115.166C614.118 115.166 617.65 114.482 620.43 113.115C623.21 111.748 625.329 109.72 626.787 107.031C628.291 104.342 629.18 100.993 629.453 96.9824ZM705.811 30.4688V130H685.371V30.4688H705.811ZM736.436 30.4688V46.5332H655.225V30.4688H736.436ZM276.855 211.49L249.785 294H227.979L264.961 194.469H278.838L276.855 211.49ZM299.346 294L272.207 211.49L270.02 194.469H284.033L321.221 294H299.346ZM298.115 256.949V273.014H245.547V256.949H298.115ZM359.775 279.986C362.191 279.986 364.333 279.531 366.201 278.619C368.07 277.662 369.528 276.34 370.576 274.654C371.67 272.923 372.24 270.895 372.285 268.57H390.811C390.765 273.766 389.375 278.391 386.641 282.447C383.906 286.458 380.238 289.625 375.635 291.949C371.032 294.228 365.882 295.367 360.186 295.367C354.443 295.367 349.43 294.41 345.146 292.496C340.908 290.582 337.376 287.939 334.551 284.566C331.725 281.148 329.606 277.184 328.193 272.672C326.781 268.115 326.074 263.238 326.074 258.043V256.061C326.074 250.82 326.781 245.943 328.193 241.432C329.606 236.874 331.725 232.91 334.551 229.537C337.376 226.119 340.908 223.453 345.146 221.539C349.385 219.625 354.352 218.668 360.049 218.668C366.11 218.668 371.419 219.83 375.977 222.154C380.579 224.479 384.18 227.805 386.777 232.135C389.421 236.419 390.765 241.5 390.811 247.379H372.285C372.24 244.918 371.715 242.685 370.713 240.68C369.756 238.674 368.343 237.079 366.475 235.895C364.652 234.664 362.396 234.049 359.707 234.049C356.836 234.049 354.489 234.664 352.666 235.895C350.843 237.079 349.43 238.72 348.428 240.816C347.425 242.867 346.719 245.214 346.309 247.857C345.944 250.455 345.762 253.189 345.762 256.061V258.043C345.762 260.914 345.944 263.671 346.309 266.314C346.673 268.958 347.357 271.305 348.359 273.355C349.408 275.406 350.843 277.024 352.666 278.209C354.489 279.394 356.859 279.986 359.775 279.986ZM442.148 277.32V244.371C442.148 242.001 441.761 239.973 440.986 238.287C440.212 236.555 439.004 235.211 437.363 234.254C435.768 233.297 433.695 232.818 431.143 232.818C428.955 232.818 427.064 233.206 425.469 233.98C423.874 234.71 422.643 235.781 421.777 237.193C420.911 238.561 420.479 240.178 420.479 242.047H400.791C400.791 238.902 401.52 235.917 402.979 233.092C404.437 230.266 406.556 227.783 409.336 225.641C412.116 223.453 415.42 221.744 419.248 220.514C423.122 219.283 427.451 218.668 432.236 218.668C437.979 218.668 443.083 219.625 447.549 221.539C452.015 223.453 455.524 226.324 458.076 230.152C460.674 233.98 461.973 238.766 461.973 244.508V276.158C461.973 280.214 462.223 283.541 462.725 286.139C463.226 288.691 463.955 290.924 464.912 292.838V294H445.02C444.062 291.995 443.333 289.488 442.832 286.48C442.376 283.427 442.148 280.374 442.148 277.32ZM444.746 248.951L444.883 260.094H433.877C431.279 260.094 429.023 260.39 427.109 260.982C425.195 261.575 423.623 262.418 422.393 263.512C421.162 264.56 420.251 265.79 419.658 267.203C419.111 268.616 418.838 270.165 418.838 271.852C418.838 273.538 419.225 275.064 420 276.432C420.775 277.753 421.891 278.801 423.35 279.576C424.808 280.305 426.517 280.67 428.477 280.67C431.439 280.67 434.014 280.077 436.201 278.893C438.389 277.708 440.075 276.249 441.26 274.518C442.49 272.786 443.128 271.145 443.174 269.596L448.369 277.936C447.64 279.804 446.637 281.741 445.361 283.746C444.131 285.751 442.559 287.643 440.645 289.42C438.73 291.152 436.429 292.587 433.74 293.727C431.051 294.82 427.861 295.367 424.17 295.367C419.476 295.367 415.215 294.433 411.387 292.564C407.604 290.65 404.596 288.03 402.363 284.703C400.176 281.331 399.082 277.503 399.082 273.219C399.082 269.345 399.811 265.904 401.27 262.896C402.728 259.889 404.87 257.359 407.695 255.309C410.566 253.212 414.144 251.64 418.428 250.592C422.712 249.498 427.679 248.951 433.33 248.951H444.746ZM520.83 277.867V189H540.654V294H522.812L520.83 277.867ZM474.072 257.906V256.471C474.072 250.82 474.71 245.693 475.986 241.09C477.262 236.441 479.131 232.454 481.592 229.127C484.053 225.8 487.083 223.225 490.684 221.402C494.284 219.579 498.385 218.668 502.988 218.668C507.318 218.668 511.1 219.579 514.336 221.402C517.617 223.225 520.397 225.823 522.676 229.195C525 232.522 526.868 236.464 528.281 241.021C529.694 245.533 530.719 250.478 531.357 255.855V259C530.719 264.15 529.694 268.935 528.281 273.355C526.868 277.776 525 281.65 522.676 284.977C520.397 288.258 517.617 290.81 514.336 292.633C511.055 294.456 507.227 295.367 502.852 295.367C498.249 295.367 494.147 294.433 490.547 292.564C486.992 290.696 483.984 288.076 481.523 284.703C479.108 281.331 477.262 277.366 475.986 272.809C474.71 268.251 474.072 263.284 474.072 257.906ZM493.76 256.471V257.906C493.76 260.96 493.988 263.808 494.443 266.451C494.945 269.094 495.742 271.441 496.836 273.492C497.975 275.497 499.434 277.07 501.211 278.209C503.034 279.303 505.244 279.85 507.842 279.85C511.214 279.85 513.994 279.098 516.182 277.594C518.369 276.044 520.033 273.925 521.172 271.236C522.357 268.548 523.04 265.449 523.223 261.939V252.984C523.086 250.113 522.676 247.538 521.992 245.26C521.354 242.936 520.397 240.953 519.121 239.312C517.891 237.672 516.341 236.396 514.473 235.484C512.65 234.573 510.485 234.117 507.979 234.117C505.426 234.117 503.239 234.71 501.416 235.895C499.593 237.034 498.112 238.606 496.973 240.611C495.879 242.617 495.059 244.986 494.512 247.721C494.01 250.41 493.76 253.326 493.76 256.471ZM590.078 295.367C584.336 295.367 579.186 294.456 574.629 292.633C570.072 290.764 566.198 288.189 563.008 284.908C559.863 281.627 557.448 277.822 555.762 273.492C554.076 269.117 553.232 264.469 553.232 259.547V256.812C553.232 251.207 554.03 246.08 555.625 241.432C557.22 236.783 559.499 232.75 562.461 229.332C565.469 225.914 569.115 223.294 573.398 221.471C577.682 219.602 582.513 218.668 587.891 218.668C593.132 218.668 597.78 219.534 601.836 221.266C605.892 222.997 609.287 225.458 612.021 228.648C614.801 231.839 616.898 235.667 618.311 240.133C619.723 244.553 620.43 249.475 620.43 254.898V263.102H561.641V249.977H601.084V248.473C601.084 245.738 600.583 243.3 599.58 241.158C598.623 238.971 597.165 237.239 595.205 235.963C593.245 234.687 590.739 234.049 587.686 234.049C585.088 234.049 582.855 234.618 580.986 235.758C579.118 236.897 577.591 238.492 576.406 240.543C575.267 242.594 574.401 245.009 573.809 247.789C573.262 250.523 572.988 253.531 572.988 256.812V259.547C572.988 262.509 573.398 265.243 574.219 267.75C575.085 270.257 576.292 272.421 577.842 274.244C579.437 276.067 581.351 277.48 583.584 278.482C585.863 279.485 588.438 279.986 591.309 279.986C594.863 279.986 598.167 279.303 601.221 277.936C604.32 276.523 606.986 274.404 609.219 271.578L618.789 281.969C617.24 284.202 615.12 286.344 612.432 288.395C609.788 290.445 606.598 292.132 602.861 293.453C599.124 294.729 594.863 295.367 590.078 295.367ZM651.328 235.348V294H631.572V220.035H650.098L651.328 235.348ZM648.594 254.42H643.125C643.125 249.27 643.74 244.531 644.971 240.201C646.247 235.826 648.092 232.044 650.508 228.854C652.969 225.618 655.999 223.111 659.6 221.334C663.2 219.557 667.37 218.668 672.109 218.668C675.391 218.668 678.398 219.169 681.133 220.172C683.867 221.129 686.214 222.656 688.174 224.752C690.179 226.803 691.729 229.492 692.822 232.818C693.916 236.1 694.463 240.042 694.463 244.645V294H674.775V246.832C674.775 243.46 674.32 240.862 673.408 239.039C672.497 237.216 671.198 235.94 669.512 235.211C667.871 234.482 665.889 234.117 663.564 234.117C661.012 234.117 658.779 234.641 656.865 235.689C654.997 236.738 653.447 238.196 652.217 240.064C650.986 241.887 650.075 244.029 649.482 246.49C648.89 248.951 648.594 251.594 648.594 254.42ZM692.617 252.164L685.576 253.053C685.576 248.222 686.169 243.733 687.354 239.586C688.584 235.439 690.384 231.793 692.754 228.648C695.169 225.504 698.154 223.066 701.709 221.334C705.264 219.557 709.365 218.668 714.014 218.668C717.568 218.668 720.804 219.192 723.721 220.24C726.637 221.243 729.121 222.861 731.172 225.094C733.268 227.281 734.863 230.152 735.957 233.707C737.096 237.262 737.666 241.614 737.666 246.764V294H717.91V246.764C717.91 243.346 717.454 240.748 716.543 238.971C715.677 237.148 714.401 235.895 712.715 235.211C711.074 234.482 709.115 234.117 706.836 234.117C704.466 234.117 702.393 234.596 700.615 235.553C698.838 236.464 697.357 237.74 696.172 239.381C694.987 241.021 694.098 242.936 693.506 245.123C692.913 247.265 692.617 249.612 692.617 252.164ZM774.854 285.66L794.473 220.035H815.596L785.859 305.143C785.221 307.011 784.355 309.016 783.262 311.158C782.214 313.3 780.778 315.328 778.955 317.242C777.178 319.202 774.922 320.797 772.188 322.027C769.499 323.258 766.195 323.873 762.275 323.873C760.407 323.873 758.88 323.759 757.695 323.531C756.51 323.303 755.098 322.984 753.457 322.574V308.15C753.958 308.15 754.482 308.15 755.029 308.15C755.576 308.196 756.1 308.219 756.602 308.219C759.199 308.219 761.318 307.923 762.959 307.33C764.6 306.738 765.921 305.826 766.924 304.596C767.926 303.411 768.724 301.861 769.316 299.947L774.854 285.66ZM766.65 220.035L782.715 273.629L785.518 294.479L772.119 295.914L745.527 220.035H766.65Z" fill="white"/>
</svg>
