<svg width="482" height="198" viewBox="0 0 482 198" fill="none" xmlns="http://www.w3.org/2000/svg">
<path d="M23.1612 60.4202C28.0928 50.5296 34.9423 41.7187 43.3112 34.5002C51.6915 27.2412 61.382 21.6509 71.8612 18.0302C82.4098 14.3602 93.5871 12.8419 104.732 13.565C115.878 14.2881 126.765 17.2379 136.751 22.2402C137.107 22.3866 137.428 22.6047 137.696 22.8809C137.964 23.157 138.171 23.4854 138.307 23.8454C138.442 24.2054 138.501 24.5894 138.481 24.9734C138.462 25.3575 138.363 25.7333 138.192 26.0775C138.02 26.4218 137.78 26.727 137.485 26.9742C137.191 27.2214 136.848 27.4053 136.479 27.5143C136.111 27.6234 135.723 27.6554 135.342 27.6082C134.96 27.5611 134.592 27.4358 134.261 27.2402C124.958 22.338 114.768 19.3494 104.291 18.4512C93.8135 17.5529 83.2627 18.7631 73.2612 22.0102C52.803 28.5077 35.7 42.7536 25.6112 61.7002C25.5277 61.8636 25.4127 62.0088 25.2728 62.1275C25.1329 62.2461 24.9709 62.336 24.7962 62.3917C24.6214 62.4475 24.4373 62.4681 24.2545 62.4524C24.0718 62.4367 23.8939 62.385 23.7312 62.3002C23.4068 62.1312 23.1607 61.8427 23.045 61.4956C22.9293 61.1486 22.9531 60.7701 23.1112 60.4402L23.1612 60.4202Z" fill="url(#paint0_linear_176_354)"/>
<path d="M69.1022 155.63C73.0277 157.534 77.1308 159.048 81.3522 160.15C85.5335 161.224 89.826 161.804 94.1422 161.88C102.784 161.947 111.365 160.432 119.462 157.41C119.81 157.277 120.182 157.214 120.554 157.226C120.927 157.238 121.293 157.324 121.632 157.479C121.971 157.635 122.276 157.857 122.528 158.131C122.78 158.406 122.975 158.728 123.1 159.079C123.226 159.43 123.281 159.803 123.261 160.175C123.241 160.547 123.147 160.912 122.984 161.247C122.821 161.583 122.593 161.882 122.312 162.128C122.032 162.374 121.706 162.562 121.352 162.68L121.202 162.73C112.392 165.5 103.15 166.635 93.9322 166.08C89.3355 165.743 84.7926 164.881 80.3922 163.51C76.0437 162.126 71.8405 160.32 67.8422 158.12C67.5342 157.94 67.3068 157.648 67.2066 157.305C67.1064 156.963 67.141 156.594 67.3032 156.276C67.4655 155.958 67.7431 155.714 68.0794 155.594C68.4157 155.474 68.7851 155.487 69.1122 155.63H69.1022Z" fill="url(#paint1_linear_176_354)"/>
<path d="M7.8414 52.6302C12.1138 44.6818 17.4385 37.3457 23.6714 30.8202C29.8926 24.3414 36.9998 18.7762 44.7814 14.2902C52.4841 9.84878 60.7201 6.40451 69.2914 4.04019C77.7902 1.63781 86.5532 0.294306 95.3814 0.0401892C95.752 0.0347842 96.1098 0.175499 96.3774 0.431888C96.645 0.688277 96.8009 1.03972 96.8114 1.41019C96.8308 1.7751 96.7067 2.13312 96.4656 2.40779C96.2246 2.68245 95.8857 2.85199 95.5214 2.88019C87.005 3.58498 78.6082 5.33823 70.5214 8.10019C62.4806 10.788 54.8128 14.4842 47.7014 19.1002C40.672 23.6648 34.3226 29.1995 28.8414 35.5402C23.4042 41.8754 18.8526 48.9198 15.3114 56.4802C14.834 57.488 13.9758 58.2649 12.9256 58.64C11.8754 59.0151 10.7192 58.9576 9.7114 58.4802C8.70358 58.0028 7.92668 57.1446 7.5516 56.0944C7.17653 55.0442 7.23401 53.888 7.7114 52.8802C7.73868 52.8138 7.77217 52.7502 7.8114 52.6902L7.8414 52.6302Z" fill="url(#paint2_linear_176_354)"/>
<path d="M52.3023 188.71C44.7613 184.643 37.7685 179.633 31.4923 173.8C25.2524 167.982 19.8086 161.365 15.3023 154.12C8.64145 143.342 3.97695 131.452 1.53229 119.02C0.677927 114.889 0.166187 110.695 0.00228596 106.48C-0.0189314 106.109 0.108219 105.744 0.355767 105.467C0.603315 105.189 0.950983 105.021 1.32229 105C1.69359 104.979 2.05811 105.106 2.33567 105.354C2.61322 105.601 2.78107 105.949 2.80229 106.32C3.19042 110.332 3.90614 114.305 4.94229 118.2C5.93252 122.137 7.15805 126.01 8.61229 129.8C11.5085 137.311 15.3099 144.44 19.9323 151.03C24.5232 157.554 29.9532 163.444 36.0823 168.55C42.1804 173.616 48.9017 177.88 56.0823 181.24C56.6095 181.451 57.0886 181.766 57.4905 182.168C57.8924 182.569 58.2087 183.047 58.4204 183.574C58.6322 184.101 58.7348 184.665 58.7223 185.233C58.7097 185.801 58.5822 186.36 58.3474 186.877C58.1125 187.394 57.7753 187.858 57.3561 188.241C56.9369 188.624 56.4443 188.918 55.9083 189.105C55.3722 189.292 54.8037 189.369 54.2372 189.33C53.6707 189.292 53.1179 189.138 52.6123 188.88L52.4123 188.78L52.3023 188.71Z" fill="url(#paint3_linear_176_354)"/>
<path d="M48.2912 166.12C42.4678 161.7 37.1071 156.701 32.2912 151.2C27.4176 145.638 23.3141 139.446 20.0912 132.79C16.8848 126.066 14.7007 118.9 13.6112 111.53C12.5554 104.169 12.4177 96.7052 13.2012 89.3101C13.2235 88.9342 13.3214 88.5668 13.489 88.2297C13.6567 87.8926 13.8905 87.5927 14.1767 87.3481C14.4628 87.1034 14.7954 86.919 15.1544 86.8058C15.5135 86.6926 15.8917 86.653 16.2664 86.6893C16.6412 86.7257 17.0047 86.8372 17.3353 87.0172C17.666 87.1973 17.9569 87.4422 18.1907 87.7372C18.4246 88.0323 18.5965 88.3715 18.6962 88.7345C18.7959 89.0975 18.8214 89.477 18.7712 89.8501C18.7712 89.8501 18.7712 89.9201 18.7712 89.9501C17.7903 96.8855 17.6727 103.916 18.4212 110.88C19.2257 117.83 21.0626 124.622 23.8712 131.03C26.7335 137.474 30.4538 143.502 34.9312 148.95C39.4491 154.447 44.5115 159.472 50.0412 163.95C50.3127 164.187 50.4826 164.519 50.5154 164.878C50.5482 165.237 50.4414 165.594 50.2173 165.876C49.9932 166.158 49.669 166.343 49.3121 166.392C48.9553 166.441 48.5932 166.351 48.3012 166.14L48.2912 166.12Z" fill="url(#paint4_linear_176_354)"/>
<path d="M51.2013 54.6901C47.0426 59.6156 43.537 65.0572 40.7713 70.8801C38.0297 76.65 36.198 82.8097 35.3413 89.1401C34.5152 95.4344 34.6873 101.82 35.8513 108.06C37.0456 114.293 39.0457 120.344 41.8013 126.06C41.9589 126.392 42.0495 126.752 42.068 127.12C42.0864 127.487 42.0324 127.854 41.9089 128.201C41.7854 128.547 41.5948 128.866 41.3482 129.138C41.1015 129.411 40.8036 129.633 40.4713 129.79C40.1391 129.948 39.7791 130.038 39.4118 130.057C39.0445 130.075 38.6773 130.021 38.3309 129.898C37.9845 129.774 37.6659 129.584 37.3931 129.337C37.1204 129.09 36.8989 128.792 36.7413 128.46C36.7397 128.427 36.7397 128.393 36.7413 128.36C33.9968 122.143 32.074 115.594 31.0213 108.88C29.9992 102.131 30.0532 95.2624 31.1813 88.5301C32.3194 81.8394 34.4885 75.3658 37.6113 69.3401C40.7042 63.379 44.5599 57.8458 49.0813 52.8801C49.3317 52.6296 49.6678 52.4832 50.0217 52.4706C50.3757 52.458 50.7213 52.58 50.9889 52.8121C51.2565 53.0442 51.4262 53.3691 51.4638 53.7213C51.5013 54.0735 51.404 54.4268 51.1913 54.7101L51.2013 54.6901Z" fill="url(#paint5_linear_176_354)"/>
<path d="M59.9114 41.7701C64.3983 38.8537 69.2282 36.5026 74.2914 34.7701C79.3253 33.0711 84.5408 31.9669 89.8314 31.4801C100.35 30.5163 110.951 31.882 120.881 35.4801C121.055 35.5399 121.216 35.6333 121.354 35.7551C121.492 35.8769 121.604 36.0247 121.685 36.1899C121.766 36.3552 121.813 36.5348 121.825 36.7184C121.836 36.9021 121.811 37.0861 121.751 37.2601C121.692 37.4341 121.598 37.5947 121.476 37.7325C121.355 37.8704 121.207 37.983 121.042 38.0638C120.876 38.1446 120.697 38.192 120.513 38.2034C120.329 38.2148 120.145 38.1899 119.971 38.1301C110.386 35.1373 100.258 34.3007 90.3114 35.6801C85.4015 36.351 80.5882 37.5997 75.9714 39.4001C71.3819 41.1823 67.0345 43.5341 63.0314 46.4001C62.4305 46.7494 61.7212 46.8627 61.0413 46.718C60.3615 46.5734 59.7598 46.181 59.3533 45.6173C58.9467 45.0536 58.7643 44.3588 58.8416 43.6681C58.9189 42.9773 59.2503 42.3401 59.7714 41.8801L59.8714 41.8101L59.9114 41.7701Z" fill="url(#paint6_linear_176_354)"/>
<path d="M170.271 169.46C164.72 174.544 158.692 179.082 152.271 183.01C145.859 186.928 139.026 190.112 131.901 192.5C124.808 194.854 117.46 196.355 110.011 196.97C102.631 197.573 95.2072 197.369 87.8714 196.36C87.5014 196.323 87.1613 196.14 86.926 195.853C86.6906 195.565 86.5793 195.195 86.6164 194.825C86.6535 194.455 86.8361 194.115 87.124 193.88C87.4118 193.644 87.7814 193.533 88.1514 193.57C95.2848 194.096 102.454 193.837 109.531 192.8C116.541 191.765 123.403 189.899 129.971 187.24C136.495 184.586 142.695 181.197 148.451 177.14C154.213 173.084 159.571 168.483 164.451 163.4C164.821 162.953 165.28 162.588 165.798 162.327C166.316 162.067 166.882 161.916 167.461 161.885C168.04 161.854 168.62 161.943 169.162 162.147C169.705 162.35 170.2 162.664 170.616 163.069C171.032 163.473 171.359 163.96 171.577 164.497C171.796 165.034 171.9 165.611 171.885 166.191C171.87 166.77 171.734 167.341 171.487 167.865C171.241 168.39 170.888 168.858 170.451 169.24L170.271 169.42V169.46Z" fill="url(#paint7_linear_176_354)"/>
<path d="M146.911 166.88C141.792 170.944 136.113 174.248 130.051 176.69C124.025 179.173 117.758 181.026 111.351 182.22C104.91 183.444 98.3532 183.951 91.8007 183.73C85.11 183.561 78.4962 182.26 72.2407 179.88C71.8873 179.753 71.5631 179.556 71.2874 179.301C71.0117 179.046 70.7901 178.738 70.6358 178.396C70.4815 178.053 70.3977 177.683 70.3894 177.308C70.381 176.932 70.4483 176.559 70.5872 176.21C70.7261 175.861 70.9338 175.543 71.1979 175.276C71.4621 175.009 71.7772 174.798 72.1246 174.655C72.472 174.513 72.8446 174.441 73.2202 174.446C73.5957 174.45 73.9666 174.53 74.3107 174.68H74.3907C80.0066 177.039 85.9807 178.432 92.0607 178.8C98.2597 179.241 104.489 178.986 110.631 178.04C116.812 177.127 122.882 175.572 128.741 173.4C134.612 171.283 140.149 168.333 145.181 164.64C145.473 164.445 145.829 164.367 146.176 164.422C146.524 164.477 146.838 164.661 147.056 164.937C147.274 165.213 147.38 165.561 147.353 165.912C147.326 166.263 147.168 166.59 146.911 166.83V166.88Z" fill="url(#paint8_linear_176_354)"/>
<path d="M122.531 0.180039C129.15 2.09498 135.546 4.70974 141.611 7.98004C147.628 11.2102 153.321 15.011 158.611 19.33C169.171 27.8592 177.848 38.4865 184.091 50.54C184.259 50.8703 184.289 51.2537 184.174 51.6061C184.06 51.9585 183.811 52.2511 183.481 52.42C183.16 52.5876 182.786 52.625 182.438 52.5245C182.09 52.4239 181.794 52.1931 181.611 51.88C174.845 40.7816 165.845 31.2121 155.181 23.78C149.938 20.0733 144.348 16.8818 138.491 14.25C132.697 11.6311 126.639 9.63981 120.421 8.31004C119.881 8.19645 119.369 7.97766 118.914 7.66616C118.459 7.35467 118.069 6.95657 117.768 6.4946C117.467 6.03263 117.259 5.51583 117.158 4.97371C117.056 4.43159 117.062 3.87477 117.176 3.33504C117.29 2.79531 117.508 2.28323 117.82 1.82805C118.131 1.37288 118.529 0.983509 118.991 0.682183C119.453 0.380857 119.97 0.173473 120.512 0.0718724C121.054 -0.0297278 121.611 -0.0235545 122.151 0.090039L122.431 0.150039L122.531 0.180039Z" fill="url(#paint9_linear_176_354)"/>
<path d="M23.1612 60.4202C28.0928 50.5296 34.9423 41.7187 43.3112 34.5002C51.6915 27.2412 61.382 21.6509 71.8612 18.0302C82.4098 14.3602 93.5871 12.8419 104.732 13.565C115.878 14.2881 126.765 17.2379 136.751 22.2402C137.107 22.3866 137.428 22.6047 137.696 22.8809C137.964 23.157 138.171 23.4854 138.307 23.8454C138.442 24.2054 138.501 24.5894 138.481 24.9734C138.462 25.3575 138.363 25.7333 138.192 26.0775C138.02 26.4218 137.78 26.727 137.485 26.9742C137.191 27.2214 136.848 27.4053 136.479 27.5143C136.111 27.6234 135.723 27.6554 135.342 27.6082C134.96 27.5611 134.592 27.4358 134.261 27.2402C124.958 22.338 114.768 19.3494 104.291 18.4512C93.8135 17.5529 83.2627 18.7631 73.2612 22.0102C52.803 28.5077 35.7 42.7536 25.6112 61.7002C25.5277 61.8636 25.4127 62.0088 25.2728 62.1275C25.1329 62.2461 24.9709 62.336 24.7962 62.3917C24.6214 62.4475 24.4373 62.4681 24.2545 62.4524C24.0718 62.4367 23.8939 62.385 23.7312 62.3002C23.4068 62.1312 23.1607 61.8427 23.045 61.4956C22.9293 61.1486 22.9531 60.7701 23.1112 60.4402L23.1612 60.4202Z" fill="url(#paint10_linear_176_354)"/>
<path d="M69.1022 155.63C73.0277 157.534 77.1308 159.048 81.3522 160.15C85.5335 161.224 89.826 161.804 94.1422 161.88C102.784 161.947 111.365 160.432 119.462 157.41C119.81 157.277 120.182 157.214 120.554 157.226C120.927 157.238 121.293 157.324 121.632 157.479C121.971 157.635 122.276 157.857 122.528 158.131C122.78 158.406 122.975 158.728 123.1 159.079C123.226 159.43 123.281 159.803 123.261 160.175C123.241 160.547 123.147 160.912 122.984 161.247C122.821 161.583 122.593 161.882 122.312 162.128C122.032 162.374 121.706 162.562 121.352 162.68L121.202 162.73C112.392 165.5 103.15 166.635 93.9322 166.08C89.3355 165.743 84.7926 164.881 80.3922 163.51C76.0437 162.126 71.8405 160.32 67.8422 158.12C67.5342 157.94 67.3068 157.648 67.2066 157.305C67.1064 156.963 67.141 156.594 67.3032 156.276C67.4655 155.958 67.7431 155.714 68.0794 155.594C68.4157 155.474 68.7851 155.487 69.1122 155.63H69.1022Z" fill="url(#paint11_linear_176_354)"/>
<path d="M7.8414 52.6302C12.1138 44.6818 17.4385 37.3457 23.6714 30.8202C29.8926 24.3414 36.9998 18.7762 44.7814 14.2902C52.4841 9.84878 60.7201 6.40451 69.2914 4.04019C77.7902 1.63781 86.5532 0.294306 95.3814 0.0401892C95.752 0.0347842 96.1098 0.175499 96.3774 0.431888C96.645 0.688277 96.8009 1.03972 96.8114 1.41019C96.8308 1.7751 96.7067 2.13312 96.4656 2.40779C96.2246 2.68245 95.8857 2.85199 95.5214 2.88019C87.005 3.58498 78.6082 5.33823 70.5214 8.10019C62.4806 10.788 54.8128 14.4842 47.7014 19.1002C40.672 23.6648 34.3226 29.1995 28.8414 35.5402C23.4042 41.8754 18.8526 48.9198 15.3114 56.4802C14.834 57.488 13.9758 58.2649 12.9256 58.64C11.8754 59.0151 10.7192 58.9576 9.7114 58.4802C8.70358 58.0028 7.92668 57.1446 7.5516 56.0944C7.17653 55.0442 7.23401 53.888 7.7114 52.8802C7.73868 52.8138 7.77217 52.7502 7.8114 52.6902L7.8414 52.6302Z" fill="url(#paint12_linear_176_354)"/>
<path d="M52.3023 188.71C44.7613 184.643 37.7685 179.633 31.4923 173.8C25.2524 167.982 19.8086 161.365 15.3023 154.12C8.64145 143.342 3.97695 131.452 1.53229 119.02C0.677927 114.889 0.166187 110.695 0.00228596 106.48C-0.0189314 106.109 0.108219 105.744 0.355767 105.467C0.603315 105.189 0.950983 105.021 1.32229 105C1.69359 104.979 2.05811 105.106 2.33567 105.354C2.61322 105.601 2.78107 105.949 2.80229 106.32C3.19042 110.332 3.90614 114.305 4.94229 118.2C5.93252 122.137 7.15805 126.01 8.61229 129.8C11.5085 137.311 15.3099 144.44 19.9323 151.03C24.5232 157.554 29.9532 163.444 36.0823 168.55C42.1804 173.616 48.9017 177.88 56.0823 181.24C56.6095 181.451 57.0886 181.766 57.4905 182.168C57.8924 182.569 58.2087 183.047 58.4204 183.574C58.6322 184.101 58.7348 184.665 58.7223 185.233C58.7097 185.801 58.5822 186.36 58.3474 186.877C58.1125 187.394 57.7753 187.858 57.3561 188.241C56.9369 188.624 56.4443 188.918 55.9083 189.105C55.3722 189.292 54.8037 189.369 54.2372 189.33C53.6707 189.292 53.1179 189.138 52.6123 188.88L52.4123 188.78L52.3023 188.71Z" fill="url(#paint13_linear_176_354)"/>
<path d="M48.2912 166.12C42.4678 161.7 37.1071 156.701 32.2912 151.2C27.4176 145.638 23.3141 139.446 20.0912 132.79C16.8848 126.066 14.7007 118.9 13.6112 111.53C12.5554 104.169 12.4177 96.7052 13.2012 89.3101C13.2235 88.9342 13.3214 88.5668 13.489 88.2297C13.6567 87.8926 13.8905 87.5927 14.1767 87.3481C14.4628 87.1034 14.7954 86.919 15.1544 86.8058C15.5135 86.6926 15.8917 86.653 16.2664 86.6893C16.6412 86.7257 17.0047 86.8372 17.3353 87.0172C17.666 87.1973 17.9569 87.4422 18.1907 87.7372C18.4246 88.0323 18.5965 88.3715 18.6962 88.7345C18.7959 89.0975 18.8214 89.477 18.7712 89.8501C18.7712 89.8501 18.7712 89.9201 18.7712 89.9501C17.7903 96.8855 17.6727 103.916 18.4212 110.88C19.2257 117.83 21.0626 124.622 23.8712 131.03C26.7335 137.474 30.4538 143.502 34.9312 148.95C39.4491 154.447 44.5115 159.472 50.0412 163.95C50.3127 164.187 50.4826 164.519 50.5154 164.878C50.5482 165.237 50.4414 165.594 50.2173 165.876C49.9932 166.158 49.669 166.343 49.3121 166.392C48.9553 166.441 48.5932 166.351 48.3012 166.14L48.2912 166.12Z" fill="url(#paint14_linear_176_354)"/>
<path d="M51.2013 54.6901C47.0426 59.6156 43.537 65.0572 40.7713 70.8801C38.0297 76.65 36.198 82.8097 35.3413 89.1401C34.5152 95.4344 34.6873 101.82 35.8513 108.06C37.0456 114.293 39.0457 120.344 41.8013 126.06C41.9589 126.392 42.0495 126.752 42.068 127.12C42.0864 127.487 42.0324 127.854 41.9089 128.201C41.7854 128.547 41.5948 128.866 41.3482 129.138C41.1015 129.411 40.8036 129.633 40.4713 129.79C40.1391 129.948 39.7791 130.038 39.4118 130.057C39.0445 130.075 38.6773 130.021 38.3309 129.898C37.9845 129.774 37.6659 129.584 37.3931 129.337C37.1204 129.09 36.8989 128.792 36.7413 128.46C36.7397 128.427 36.7397 128.393 36.7413 128.36C33.9968 122.143 32.074 115.594 31.0213 108.88C29.9992 102.131 30.0532 95.2624 31.1813 88.5301C32.3194 81.8394 34.4885 75.3658 37.6113 69.3401C40.7042 63.379 44.5599 57.8458 49.0813 52.8801C49.3317 52.6296 49.6678 52.4832 50.0217 52.4706C50.3757 52.458 50.7213 52.58 50.9889 52.8121C51.2565 53.0442 51.4262 53.3691 51.4638 53.7213C51.5013 54.0735 51.404 54.4268 51.1913 54.7101L51.2013 54.6901Z" fill="url(#paint15_linear_176_354)"/>
<path d="M59.9114 41.7701C64.3983 38.8537 69.2282 36.5026 74.2914 34.7701C79.3253 33.0711 84.5408 31.9669 89.8314 31.4801C100.35 30.5163 110.951 31.882 120.881 35.4801C121.055 35.5399 121.216 35.6333 121.354 35.7551C121.492 35.8769 121.604 36.0247 121.685 36.1899C121.766 36.3552 121.813 36.5348 121.825 36.7184C121.836 36.9021 121.811 37.0861 121.751 37.2601C121.692 37.4341 121.598 37.5947 121.476 37.7325C121.355 37.8704 121.207 37.983 121.042 38.0638C120.876 38.1446 120.697 38.192 120.513 38.2034C120.329 38.2148 120.145 38.1899 119.971 38.1301C110.386 35.1373 100.258 34.3007 90.3114 35.6801C85.4015 36.351 80.5882 37.5997 75.9714 39.4001C71.3819 41.1823 67.0345 43.5341 63.0314 46.4001C62.4305 46.7494 61.7212 46.8627 61.0413 46.718C60.3615 46.5734 59.7598 46.181 59.3533 45.6173C58.9467 45.0536 58.7643 44.3588 58.8416 43.6681C58.9189 42.9773 59.2503 42.3401 59.7714 41.8801L59.8714 41.8101L59.9114 41.7701Z" fill="url(#paint16_linear_176_354)"/>
<path d="M170.271 169.46C164.72 174.544 158.692 179.082 152.271 183.01C145.859 186.928 139.026 190.112 131.901 192.5C124.808 194.854 117.46 196.355 110.011 196.97C102.631 197.573 95.2072 197.369 87.8714 196.36C87.5014 196.323 87.1613 196.14 86.926 195.853C86.6906 195.565 86.5793 195.195 86.6164 194.825C86.6535 194.455 86.8361 194.115 87.124 193.88C87.4118 193.644 87.7814 193.533 88.1514 193.57C95.2848 194.096 102.454 193.837 109.531 192.8C116.541 191.765 123.403 189.899 129.971 187.24C136.495 184.586 142.695 181.197 148.451 177.14C154.213 173.084 159.571 168.483 164.451 163.4C164.821 162.953 165.28 162.588 165.798 162.327C166.316 162.067 166.882 161.916 167.461 161.885C168.04 161.854 168.62 161.943 169.162 162.147C169.705 162.35 170.2 162.664 170.616 163.069C171.032 163.473 171.359 163.96 171.577 164.497C171.796 165.034 171.9 165.611 171.885 166.191C171.87 166.77 171.734 167.341 171.487 167.865C171.241 168.39 170.888 168.858 170.451 169.24L170.271 169.42V169.46Z" fill="url(#paint17_linear_176_354)"/>
<path d="M146.911 166.88C141.792 170.944 136.113 174.248 130.051 176.69C124.025 179.173 117.758 181.026 111.351 182.22C104.91 183.444 98.3532 183.951 91.8007 183.73C85.11 183.561 78.4962 182.26 72.2407 179.88C71.8873 179.753 71.5631 179.556 71.2874 179.301C71.0117 179.046 70.7901 178.738 70.6358 178.396C70.4815 178.053 70.3977 177.683 70.3894 177.308C70.381 176.932 70.4483 176.559 70.5872 176.21C70.7261 175.861 70.9338 175.543 71.1979 175.276C71.4621 175.009 71.7772 174.798 72.1246 174.655C72.472 174.513 72.8446 174.441 73.2202 174.446C73.5957 174.45 73.9666 174.53 74.3107 174.68H74.3907C80.0066 177.039 85.9807 178.432 92.0607 178.8C98.2597 179.241 104.489 178.986 110.631 178.04C116.812 177.127 122.882 175.572 128.741 173.4C134.612 171.283 140.149 168.333 145.181 164.64C145.473 164.445 145.829 164.367 146.176 164.422C146.524 164.477 146.838 164.661 147.056 164.937C147.274 165.213 147.38 165.561 147.353 165.912C147.326 166.263 147.168 166.59 146.911 166.83V166.88Z" fill="url(#paint18_linear_176_354)"/>
<path d="M122.531 0.180039C129.15 2.09498 135.546 4.70974 141.611 7.98004C147.628 11.2102 153.321 15.011 158.611 19.33C169.171 27.8592 177.848 38.4865 184.091 50.54C184.259 50.8703 184.289 51.2537 184.174 51.6061C184.06 51.9585 183.811 52.2511 183.481 52.42C183.16 52.5876 182.786 52.625 182.438 52.5245C182.09 52.4239 181.794 52.1931 181.611 51.88C174.845 40.7816 165.845 31.2121 155.181 23.78C149.938 20.0733 144.348 16.8818 138.491 14.25C132.697 11.6311 126.639 9.63981 120.421 8.31004C119.881 8.19645 119.369 7.97766 118.914 7.66616C118.459 7.35467 118.069 6.95657 117.768 6.4946C117.467 6.03263 117.259 5.51583 117.158 4.97371C117.056 4.43159 117.062 3.87477 117.176 3.33504C117.29 2.79531 117.508 2.28323 117.82 1.82805C118.131 1.37288 118.529 0.983509 118.991 0.682183C119.453 0.380857 119.97 0.173473 120.512 0.0718724C121.054 -0.0297278 121.611 -0.0235545 122.151 0.090039L122.431 0.150039L122.531 0.180039Z" fill="url(#paint19_linear_176_354)"/>
<path d="M23.1612 60.4202C28.0928 50.5296 34.9423 41.7187 43.3112 34.5002C51.6915 27.2412 61.382 21.6509 71.8612 18.0302C82.4098 14.3602 93.5871 12.8419 104.732 13.565C115.878 14.2881 126.765 17.2379 136.751 22.2402C137.107 22.3866 137.428 22.6047 137.696 22.8809C137.964 23.157 138.171 23.4854 138.307 23.8454C138.442 24.2054 138.501 24.5894 138.481 24.9734C138.462 25.3575 138.363 25.7333 138.192 26.0775C138.02 26.4218 137.78 26.727 137.485 26.9742C137.191 27.2214 136.848 27.4053 136.479 27.5143C136.111 27.6234 135.723 27.6554 135.342 27.6082C134.96 27.5611 134.592 27.4358 134.261 27.2402C124.958 22.338 114.768 19.3494 104.291 18.4512C93.8135 17.5529 83.2627 18.7631 73.2612 22.0102C52.803 28.5077 35.7 42.7536 25.6112 61.7002C25.5277 61.8636 25.4127 62.0088 25.2728 62.1275C25.1329 62.2461 24.9709 62.336 24.7962 62.3917C24.6214 62.4475 24.4373 62.4681 24.2545 62.4524C24.0718 62.4367 23.8939 62.385 23.7312 62.3002C23.4068 62.1312 23.1607 61.8427 23.045 61.4956C22.9293 61.1486 22.9531 60.7701 23.1112 60.4402L23.1612 60.4202Z" fill="url(#paint20_linear_176_354)"/>
<path d="M69.1022 155.63C73.0277 157.534 77.1308 159.048 81.3522 160.15C85.5335 161.224 89.826 161.804 94.1422 161.88C102.784 161.947 111.365 160.432 119.462 157.41C119.81 157.277 120.182 157.214 120.554 157.226C120.927 157.238 121.293 157.324 121.632 157.479C121.971 157.635 122.276 157.857 122.528 158.131C122.78 158.406 122.975 158.728 123.1 159.079C123.226 159.43 123.281 159.803 123.261 160.175C123.241 160.547 123.147 160.912 122.984 161.247C122.821 161.583 122.593 161.882 122.312 162.128C122.032 162.374 121.706 162.562 121.352 162.68L121.202 162.73C112.392 165.5 103.15 166.635 93.9322 166.08C89.3355 165.743 84.7926 164.881 80.3922 163.51C76.0437 162.126 71.8405 160.32 67.8422 158.12C67.5342 157.94 67.3068 157.648 67.2066 157.305C67.1064 156.963 67.141 156.594 67.3032 156.276C67.4655 155.958 67.7431 155.714 68.0794 155.594C68.4157 155.474 68.7851 155.487 69.1122 155.63H69.1022Z" fill="url(#paint21_linear_176_354)"/>
<path d="M7.8414 52.6302C12.1138 44.6818 17.4385 37.3457 23.6714 30.8202C29.8926 24.3414 36.9998 18.7762 44.7814 14.2902C52.4841 9.84878 60.7201 6.40451 69.2914 4.04019C77.7902 1.63781 86.5532 0.294306 95.3814 0.0401892C95.752 0.0347842 96.1098 0.175499 96.3774 0.431888C96.645 0.688277 96.8009 1.03972 96.8114 1.41019C96.8308 1.7751 96.7067 2.13312 96.4656 2.40779C96.2246 2.68245 95.8857 2.85199 95.5214 2.88019C87.005 3.58498 78.6082 5.33823 70.5214 8.10019C62.4806 10.788 54.8128 14.4842 47.7014 19.1002C40.672 23.6648 34.3226 29.1995 28.8414 35.5402C23.4042 41.8754 18.8526 48.9198 15.3114 56.4802C14.834 57.488 13.9758 58.2649 12.9256 58.64C11.8754 59.0151 10.7192 58.9576 9.7114 58.4802C8.70358 58.0028 7.92668 57.1446 7.5516 56.0944C7.17653 55.0442 7.23401 53.888 7.7114 52.8802C7.73868 52.8138 7.77217 52.7502 7.8114 52.6902L7.8414 52.6302Z" fill="url(#paint22_linear_176_354)"/>
<path d="M52.3023 188.71C44.7613 184.643 37.7685 179.633 31.4923 173.8C25.2524 167.982 19.8086 161.365 15.3023 154.12C8.64145 143.342 3.97695 131.452 1.53229 119.02C0.677927 114.889 0.166187 110.695 0.00228596 106.48C-0.0189314 106.109 0.108219 105.744 0.355767 105.467C0.603315 105.189 0.950983 105.021 1.32229 105C1.69359 104.979 2.05811 105.106 2.33567 105.354C2.61322 105.601 2.78107 105.949 2.80229 106.32C3.19042 110.332 3.90614 114.305 4.94229 118.2C5.93252 122.137 7.15805 126.01 8.61229 129.8C11.5085 137.311 15.3099 144.44 19.9323 151.03C24.5232 157.554 29.9532 163.444 36.0823 168.55C42.1804 173.616 48.9017 177.88 56.0823 181.24C56.6095 181.451 57.0886 181.766 57.4905 182.168C57.8924 182.569 58.2087 183.047 58.4204 183.574C58.6322 184.101 58.7348 184.665 58.7223 185.233C58.7097 185.801 58.5822 186.36 58.3474 186.877C58.1125 187.394 57.7753 187.858 57.3561 188.241C56.9369 188.624 56.4443 188.918 55.9083 189.105C55.3722 189.292 54.8037 189.369 54.2372 189.33C53.6707 189.292 53.1179 189.138 52.6123 188.88L52.4123 188.78L52.3023 188.71Z" fill="url(#paint23_linear_176_354)"/>
<path d="M48.2912 166.12C42.4678 161.7 37.1071 156.701 32.2912 151.2C27.4176 145.638 23.3141 139.446 20.0912 132.79C16.8848 126.066 14.7007 118.9 13.6112 111.53C12.5554 104.169 12.4177 96.7052 13.2012 89.3101C13.2235 88.9342 13.3214 88.5668 13.489 88.2297C13.6567 87.8926 13.8905 87.5927 14.1767 87.3481C14.4628 87.1034 14.7954 86.919 15.1544 86.8058C15.5135 86.6926 15.8917 86.653 16.2664 86.6893C16.6412 86.7257 17.0047 86.8372 17.3353 87.0172C17.666 87.1973 17.9569 87.4422 18.1907 87.7372C18.4246 88.0323 18.5965 88.3715 18.6962 88.7345C18.7959 89.0975 18.8214 89.477 18.7712 89.8501C18.7712 89.8501 18.7712 89.9201 18.7712 89.9501C17.7903 96.8855 17.6727 103.916 18.4212 110.88C19.2257 117.83 21.0626 124.622 23.8712 131.03C26.7335 137.474 30.4538 143.502 34.9312 148.95C39.4491 154.447 44.5115 159.472 50.0412 163.95C50.3127 164.187 50.4826 164.519 50.5154 164.878C50.5482 165.237 50.4414 165.594 50.2173 165.876C49.9932 166.158 49.669 166.343 49.3121 166.392C48.9553 166.441 48.5932 166.351 48.3012 166.14L48.2912 166.12Z" fill="url(#paint24_linear_176_354)"/>
<path d="M51.2013 54.6901C47.0426 59.6156 43.537 65.0572 40.7713 70.8801C38.0297 76.65 36.198 82.8097 35.3413 89.1401C34.5152 95.4344 34.6873 101.82 35.8513 108.06C37.0456 114.293 39.0457 120.344 41.8013 126.06C41.9589 126.392 42.0495 126.752 42.068 127.12C42.0864 127.487 42.0324 127.854 41.9089 128.201C41.7854 128.547 41.5948 128.866 41.3482 129.138C41.1015 129.411 40.8036 129.633 40.4713 129.79C40.1391 129.948 39.7791 130.038 39.4118 130.057C39.0445 130.075 38.6773 130.021 38.3309 129.898C37.9845 129.774 37.6659 129.584 37.3931 129.337C37.1204 129.09 36.8989 128.792 36.7413 128.46C36.7397 128.427 36.7397 128.393 36.7413 128.36C33.9968 122.143 32.074 115.594 31.0213 108.88C29.9992 102.131 30.0532 95.2624 31.1813 88.5301C32.3194 81.8394 34.4885 75.3658 37.6113 69.3401C40.7042 63.379 44.5599 57.8458 49.0813 52.8801C49.3317 52.6296 49.6678 52.4832 50.0217 52.4706C50.3757 52.458 50.7213 52.58 50.9889 52.8121C51.2565 53.0442 51.4262 53.3691 51.4638 53.7213C51.5013 54.0735 51.404 54.4268 51.1913 54.7101L51.2013 54.6901Z" fill="url(#paint25_linear_176_354)"/>
<path d="M59.9114 41.7701C64.3983 38.8537 69.2282 36.5026 74.2914 34.7701C79.3253 33.0711 84.5408 31.9669 89.8314 31.4801C100.35 30.5163 110.951 31.882 120.881 35.4801C121.055 35.5399 121.216 35.6333 121.354 35.7551C121.492 35.8769 121.604 36.0247 121.685 36.1899C121.766 36.3552 121.813 36.5348 121.825 36.7184C121.836 36.9021 121.811 37.0861 121.751 37.2601C121.692 37.4341 121.598 37.5947 121.476 37.7325C121.355 37.8704 121.207 37.983 121.042 38.0638C120.876 38.1446 120.697 38.192 120.513 38.2034C120.329 38.2148 120.145 38.1899 119.971 38.1301C110.386 35.1373 100.258 34.3007 90.3114 35.6801C85.4015 36.351 80.5882 37.5997 75.9714 39.4001C71.3819 41.1823 67.0345 43.5341 63.0314 46.4001C62.4305 46.7494 61.7212 46.8627 61.0413 46.718C60.3615 46.5734 59.7598 46.181 59.3533 45.6173C58.9467 45.0536 58.7643 44.3588 58.8416 43.6681C58.9189 42.9773 59.2503 42.3401 59.7714 41.8801L59.8714 41.8101L59.9114 41.7701Z" fill="url(#paint26_linear_176_354)"/>
<path d="M170.271 169.46C164.72 174.544 158.692 179.082 152.271 183.01C145.859 186.928 139.026 190.112 131.901 192.5C124.808 194.854 117.46 196.355 110.011 196.97C102.631 197.573 95.2072 197.369 87.8714 196.36C87.5014 196.323 87.1613 196.14 86.926 195.853C86.6906 195.565 86.5793 195.195 86.6164 194.825C86.6535 194.455 86.8361 194.115 87.124 193.88C87.4118 193.644 87.7814 193.533 88.1514 193.57C95.2848 194.096 102.454 193.837 109.531 192.8C116.541 191.765 123.403 189.899 129.971 187.24C136.495 184.586 142.695 181.197 148.451 177.14C154.213 173.084 159.571 168.483 164.451 163.4C164.821 162.953 165.28 162.588 165.798 162.327C166.316 162.067 166.882 161.916 167.461 161.885C168.04 161.854 168.62 161.943 169.162 162.147C169.705 162.35 170.2 162.664 170.616 163.069C171.032 163.473 171.359 163.96 171.577 164.497C171.796 165.034 171.9 165.611 171.885 166.191C171.87 166.77 171.734 167.341 171.487 167.865C171.241 168.39 170.888 168.858 170.451 169.24L170.271 169.42V169.46Z" fill="url(#paint27_linear_176_354)"/>
<path d="M146.911 166.88C141.792 170.944 136.113 174.248 130.051 176.69C124.025 179.173 117.758 181.026 111.351 182.22C104.91 183.444 98.3532 183.951 91.8007 183.73C85.11 183.561 78.4962 182.26 72.2407 179.88C71.8873 179.753 71.5631 179.556 71.2874 179.301C71.0117 179.046 70.7901 178.738 70.6358 178.396C70.4815 178.053 70.3977 177.683 70.3894 177.308C70.381 176.932 70.4483 176.559 70.5872 176.21C70.7261 175.861 70.9338 175.543 71.1979 175.276C71.4621 175.009 71.7772 174.798 72.1246 174.655C72.472 174.513 72.8446 174.441 73.2202 174.446C73.5957 174.45 73.9666 174.53 74.3107 174.68H74.3907C80.0066 177.039 85.9807 178.432 92.0607 178.8C98.2597 179.241 104.489 178.986 110.631 178.04C116.812 177.127 122.882 175.572 128.741 173.4C134.612 171.283 140.149 168.333 145.181 164.64C145.473 164.445 145.829 164.367 146.176 164.422C146.524 164.477 146.838 164.661 147.056 164.937C147.274 165.213 147.38 165.561 147.353 165.912C147.326 166.263 147.168 166.59 146.911 166.83V166.88Z" fill="url(#paint28_linear_176_354)"/>
<path d="M122.531 0.180039C129.15 2.09498 135.546 4.70974 141.611 7.98004C147.628 11.2102 153.321 15.011 158.611 19.33C169.171 27.8592 177.848 38.4865 184.091 50.54C184.259 50.8703 184.289 51.2537 184.174 51.6061C184.06 51.9585 183.811 52.2511 183.481 52.42C183.16 52.5876 182.786 52.625 182.438 52.5245C182.09 52.4239 181.794 52.1931 181.611 51.88C174.845 40.7816 165.845 31.2121 155.181 23.78C149.938 20.0733 144.348 16.8818 138.491 14.25C132.697 11.6311 126.639 9.63981 120.421 8.31004C119.881 8.19645 119.369 7.97766 118.914 7.66616C118.459 7.35467 118.069 6.95657 117.768 6.4946C117.467 6.03263 117.259 5.51583 117.158 4.97371C117.056 4.43159 117.062 3.87477 117.176 3.33504C117.29 2.79531 117.508 2.28323 117.82 1.82805C118.131 1.37288 118.529 0.983509 118.991 0.682183C119.453 0.380857 119.97 0.173473 120.512 0.0718724C121.054 -0.0297278 121.611 -0.0235545 122.151 0.090039L122.431 0.150039L122.531 0.180039Z" fill="url(#paint29_linear_176_354)"/>
<path d="M89.25 124.51H91.43L95.95 136.24H93.75L92.65 133.14H87.97L86.87 136.24H84.75L89.25 124.51ZM88.53 131.58H92.11L90.35 126.58L88.53 131.58Z" fill="#1B75BC"/>
<path d="M112.53 136.24H111.22L110.9 134.86C110.489 135.401 109.953 135.835 109.339 136.124C108.724 136.413 108.048 136.549 107.37 136.52C106.558 136.533 105.753 136.369 105.01 136.04C104.336 135.726 103.736 135.272 103.25 134.71C102.754 134.122 102.377 133.443 102.14 132.71C101.62 131.17 101.62 129.501 102.14 127.96C102.383 127.246 102.759 126.584 103.25 126.01C103.736 125.445 104.336 124.989 105.01 124.67C105.752 124.338 106.557 124.171 107.37 124.18C107.986 124.179 108.599 124.267 109.19 124.44C109.739 124.601 110.256 124.855 110.72 125.19C111.193 125.546 111.587 125.997 111.876 126.513C112.165 127.03 112.344 127.601 112.4 128.19H110.4C110.355 127.836 110.236 127.495 110.05 127.19C109.872 126.906 109.641 126.658 109.37 126.46C109.094 126.256 108.782 126.107 108.45 126.02C108.102 125.919 107.742 125.869 107.38 125.87C106.844 125.851 106.312 125.968 105.834 126.211C105.357 126.454 104.949 126.815 104.65 127.26C104.362 127.699 104.149 128.182 104.02 128.69C103.883 129.23 103.816 129.784 103.82 130.34C103.816 130.893 103.883 131.444 104.02 131.98C104.147 132.492 104.36 132.979 104.65 133.42C104.937 133.835 105.317 134.177 105.76 134.42C106.259 134.682 106.816 134.812 107.38 134.8C107.855 134.818 108.33 134.747 108.78 134.59C109.156 134.453 109.497 134.234 109.78 133.95C110.066 133.67 110.285 133.328 110.42 132.95C110.567 132.519 110.644 132.066 110.65 131.61H107.53V130.04H112.53V136.24Z" fill="#1B75BC"/>
<path d="M115.09 124.51H117.15V134.51H123.15V136.28H115.15L115.09 124.51Z" fill="#1B75BC"/>
<path d="M129.851 124.23C130.66 124.22 131.462 124.387 132.201 124.72C132.879 125.036 133.483 125.493 133.971 126.06C134.461 126.634 134.838 127.296 135.081 128.01C135.6 129.551 135.6 131.22 135.081 132.76C134.844 133.493 134.467 134.172 133.971 134.76C133.482 135.325 132.879 135.778 132.201 136.09C131.456 136.408 130.655 136.572 129.846 136.572C129.036 136.572 128.235 136.408 127.491 136.09C126.812 135.778 126.209 135.325 125.721 134.76C125.224 134.172 124.848 133.493 124.611 132.76C124.104 131.217 124.104 129.553 124.611 128.01C124.853 127.296 125.23 126.634 125.721 126.06C126.208 125.493 126.812 125.036 127.491 124.72C128.232 124.386 129.038 124.219 129.851 124.23ZM129.851 125.91C129.286 125.891 128.727 126.022 128.231 126.29C127.784 126.528 127.403 126.871 127.121 127.29C126.825 127.724 126.611 128.209 126.491 128.72C126.351 129.259 126.28 129.814 126.281 130.37C126.28 130.924 126.351 131.475 126.491 132.01C126.609 132.525 126.823 133.013 127.121 133.45C127.403 133.869 127.784 134.213 128.231 134.45C128.729 134.714 129.287 134.844 129.851 134.83C130.414 134.842 130.971 134.712 131.471 134.45C131.912 134.21 132.289 133.867 132.571 133.45C132.867 133.012 133.084 132.524 133.211 132.01C133.342 131.473 133.409 130.923 133.411 130.37C133.41 129.814 133.343 129.26 133.211 128.72C133.082 128.21 132.865 127.726 132.571 127.29C132.289 126.874 131.912 126.531 131.471 126.29C130.976 126.014 130.417 125.872 129.851 125.88V125.91Z" fill="#1B75BC"/>
<path d="M137.671 124.51H143.371C144.271 124.467 145.159 124.72 145.901 125.23C146.396 125.698 146.717 126.32 146.811 126.994C146.906 127.668 146.768 128.355 146.421 128.94C146.111 129.385 145.681 129.732 145.181 129.94C145.837 130.047 146.426 130.406 146.821 130.94C147.212 131.532 147.408 132.231 147.381 132.94C147.386 133.383 147.301 133.822 147.131 134.23C146.96 134.622 146.696 134.965 146.361 135.23C145.961 135.546 145.502 135.781 145.011 135.92C144.361 136.105 143.687 136.189 143.011 136.17H137.621L137.671 124.51ZM139.721 129.42H143.071C143.52 129.435 143.96 129.29 144.311 129.01C144.476 128.857 144.606 128.669 144.691 128.46C144.775 128.251 144.813 128.025 144.801 127.8C144.826 127.571 144.798 127.34 144.72 127.123C144.642 126.907 144.516 126.711 144.351 126.55C143.978 126.288 143.526 126.161 143.071 126.19H139.721V129.42ZM139.721 134.57H143.351C143.615 134.589 143.88 134.555 144.13 134.471C144.381 134.387 144.612 134.254 144.811 134.08C144.987 133.9 145.124 133.685 145.211 133.449C145.299 133.213 145.337 132.962 145.321 132.71C145.337 132.463 145.299 132.216 145.211 131.985C145.123 131.754 144.987 131.544 144.811 131.37C144.4 131.037 143.879 130.869 143.351 130.9H139.721V134.57Z" fill="#1B75BC"/>
<path d="M152.701 124.51H154.891L159.401 136.24H157.201L156.101 133.14H151.421L150.321 136.24H148.201L152.701 124.51ZM151.981 131.58H155.611L153.851 126.58H153.801L151.981 131.58Z" fill="#1B75BC"/>
<path d="M160.852 124.51H162.852V134.51H168.852V136.28H160.852V124.51Z" fill="#1B75BC"/>
<path d="M175.512 124.51H177.512V136.24H175.512V124.51Z" fill="#1B75BC"/>
<path d="M180.321 124.51H182.491L187.841 133.15V124.51H189.791V136.24H187.621L182.281 127.62H182.231V136.24H180.281L180.321 124.51Z" fill="#1B75BC"/>
<path d="M192.611 124.51H194.611V136.24H192.611V124.51Z" fill="#1B75BC"/>
<path d="M196.371 124.51H205.871V126.29H202.141V136.29H200.081V126.29H196.371V124.51Z" fill="#1B75BC"/>
<path d="M207.611 124.51H209.611V136.24H207.611V124.51Z" fill="#1B75BC"/>
<path d="M215.61 124.51H217.8L222.32 136.24H220.12L219.01 133.14H214.31L213.21 136.24H211.09L215.61 124.51ZM214.89 131.58H218.47L216.71 126.58L214.89 131.58Z" fill="#1B75BC"/>
<path d="M221.111 124.51H230.611V126.29H226.881V136.29H224.831V126.29H221.111V124.51Z" fill="#1B75BC"/>
<path d="M232.301 124.51H234.361V136.24H232.301V124.51Z" fill="#1B75BC"/>
<path d="M235.871 124.51H238.001L241.001 133.79L244.001 124.51H246.091L242.091 136.24H239.811L235.871 124.51Z" fill="#1B75BC"/>
<path d="M247.611 124.51H256.051V126.29H249.611V129.36H255.531V131.03H249.611V134.47H256.121V136.24H247.611V124.51Z" fill="#1B75BC"/>
<path d="M263.141 124.51H271.241V126.29H265.241V129.36H270.541V131.03H265.241V136.24H263.181L263.141 124.51Z" fill="#1B75BC"/>
<path d="M278.21 124.23C279.02 124.22 279.822 124.387 280.56 124.72C281.239 125.036 281.842 125.493 282.33 126.06C282.82 126.634 283.197 127.296 283.44 128.01C283.96 129.551 283.96 131.22 283.44 132.76C283.203 133.493 282.826 134.172 282.33 134.76C281.842 135.325 281.238 135.778 280.56 136.09C279.815 136.408 279.014 136.572 278.205 136.572C277.396 136.572 276.594 136.408 275.85 136.09C275.173 135.776 274.57 135.323 274.08 134.76C273.584 134.172 273.207 133.493 272.97 132.76C272.463 131.217 272.463 129.553 272.97 128.01C273.213 127.296 273.589 126.634 274.08 126.06C274.57 125.495 275.173 125.038 275.85 124.72C276.591 124.386 277.397 124.219 278.21 124.23ZM278.21 125.91C277.674 125.89 277.142 126.008 276.665 126.251C276.187 126.494 275.779 126.855 275.48 127.3C275.188 127.737 274.975 128.221 274.85 128.73C274.71 129.269 274.64 129.824 274.64 130.38C274.64 130.934 274.71 131.485 274.85 132.02C274.973 132.534 275.187 133.021 275.48 133.46C275.765 133.877 276.146 134.22 276.59 134.46C277.088 134.724 277.646 134.855 278.21 134.84C278.773 134.852 279.331 134.722 279.83 134.46C280.272 134.217 280.652 133.875 280.94 133.46C281.229 133.019 281.442 132.532 281.57 132.02C281.701 131.483 281.768 130.933 281.77 130.38C281.769 129.824 281.702 129.27 281.57 128.73C281.44 128.222 281.227 127.739 280.94 127.3C280.644 126.85 280.238 126.483 279.76 126.234C279.282 125.986 278.748 125.864 278.21 125.88V125.91Z" fill="#1B75BC"/>
<path d="M286.031 124.51H291.611C292.65 124.433 293.683 124.731 294.521 125.35C294.853 125.638 295.115 125.997 295.288 126.4C295.462 126.804 295.541 127.241 295.521 127.68C295.539 128.156 295.453 128.63 295.271 129.07C295.135 129.398 294.942 129.7 294.701 129.96C294.513 130.156 294.293 130.318 294.051 130.44C293.898 130.515 293.741 130.582 293.581 130.64C293.778 130.67 293.97 130.727 294.151 130.81C294.367 130.906 294.559 131.05 294.711 131.23C294.903 131.447 295.052 131.698 295.151 131.97C295.273 132.341 295.33 132.73 295.321 133.12C295.314 133.75 295.368 134.38 295.481 135C295.527 135.44 295.693 135.858 295.961 136.21H293.761C293.61 135.954 293.518 135.667 293.491 135.37C293.491 135.07 293.491 134.77 293.491 134.49C293.498 134.025 293.465 133.56 293.391 133.1C293.342 132.745 293.219 132.405 293.031 132.1C292.854 131.842 292.603 131.644 292.311 131.53C291.943 131.399 291.552 131.337 291.161 131.35H288.161V136.18H286.111L286.031 124.51ZM288.081 129.85H291.451C291.993 129.893 292.53 129.724 292.951 129.38C293.129 129.196 293.266 128.976 293.353 128.734C293.439 128.493 293.472 128.236 293.451 127.98C293.464 127.669 293.41 127.358 293.291 127.07C293.195 126.849 293.039 126.658 292.841 126.52C292.644 126.382 292.419 126.29 292.181 126.25C291.93 126.209 291.676 126.189 291.421 126.19H288.081V129.85Z" fill="#1B75BC"/>
<path d="M301.701 124.51H311.201V126.29H307.471V136.29H305.421V126.29H301.701V124.51Z" fill="#1B75BC"/>
<path d="M312.84 124.51H314.84V129.18H320.18V124.51H322.24V136.24H320.18V130.95H314.84V136.24H312.84V124.51Z" fill="#1B75BC"/>
<path d="M325.081 124.51H333.531V126.29H327.131V129.36H333.051V131.03H327.131V134.47H333.611V136.24H325.051L325.081 124.51Z" fill="#1B75BC"/>
<path d="M340.53 124.51H342.61V131.35C342.61 131.744 342.63 132.144 342.67 132.55C342.706 132.931 342.815 133.301 342.99 133.64C343.188 133.975 343.476 134.249 343.82 134.43C344.309 134.642 344.837 134.751 345.37 134.751C345.903 134.751 346.43 134.642 346.92 134.43C347.264 134.252 347.549 133.977 347.74 133.64C347.924 133.304 348.036 132.932 348.07 132.55C348.11 132.144 348.13 131.744 348.13 131.35V124.51H350.18V132.02C350.201 132.703 350.085 133.383 349.84 134.02C349.618 134.56 349.276 135.042 348.84 135.43C348.399 135.816 347.881 136.102 347.32 136.27C346.033 136.644 344.667 136.644 343.38 136.27C342.819 136.102 342.301 135.816 341.86 135.43C341.424 135.042 341.082 134.56 340.86 134.02C340.615 133.383 340.499 132.703 340.52 132.02L340.53 124.51Z" fill="#1B75BC"/>
<path d="M352.771 124.51H354.931L360.291 133.15V124.51H362.291V136.24H360.111L354.771 127.62H354.721V136.24H352.771V124.51Z" fill="#1B75BC"/>
<path d="M365.041 124.51H367.091V136.24H365.041V124.51Z" fill="#1B75BC"/>
<path d="M368.82 124.51H378.31V126.29H374.61V136.29H372.56V126.29H368.85L368.82 124.51Z" fill="#1B75BC"/>
<path d="M380.012 124.51H388.452V126.29H382.062V129.36H387.972V131.03H382.062V134.47H388.612V136.24H380.012V124.51Z" fill="#1B75BC"/>
<path d="M390.691 124.51H395.551C396.352 124.494 397.147 124.651 397.881 124.97C398.511 125.255 399.063 125.687 399.491 126.23C399.922 126.782 400.239 127.414 400.421 128.09C400.625 128.836 400.726 129.607 400.721 130.38C400.727 131.15 400.626 131.918 400.421 132.66C400.237 133.338 399.921 133.974 399.491 134.53C399.066 135.073 398.513 135.502 397.881 135.78C397.148 136.104 396.353 136.261 395.551 136.24H390.691V124.51ZM392.741 134.57H394.741C395.423 134.596 396.102 134.487 396.741 134.25C397.212 134.063 397.626 133.756 397.941 133.36C398.239 132.969 398.441 132.513 398.531 132.03C398.745 130.941 398.745 129.82 398.531 128.73C398.441 128.244 398.239 127.785 397.941 127.39C397.625 126.997 397.211 126.694 396.741 126.51C396.104 126.268 395.423 126.159 394.741 126.19H392.741V134.57Z" fill="#1B75BC"/>
<path d="M407.69 124.51H409.86L415.21 133.15V124.51H417.16V136.24H414.99L409.65 127.62H409.61V136.24H407.66L407.69 124.51Z" fill="#1B75BC"/>
<path d="M423.101 124.51H425.291L429.801 136.24H427.611L426.511 133.14H421.831L420.731 136.24H418.611L423.101 124.51ZM422.381 131.58H425.961L424.201 126.58L422.381 131.58Z" fill="#1B75BC"/>
<path d="M428.611 124.51H438.111V126.29H434.381V136.29H432.321V126.29H428.611V124.51Z" fill="#1B75BC"/>
<path d="M439.811 124.51H441.861V136.24H439.811V124.51Z" fill="#1B75BC"/>
<path d="M449.7 124.23C450.513 124.22 451.318 124.387 452.06 124.72C452.734 125.039 453.334 125.495 453.82 126.06C454.318 126.629 454.695 127.292 454.93 128.01C455.45 129.551 455.45 131.219 454.93 132.76C454.701 133.496 454.324 134.177 453.82 134.76C453.333 135.322 452.734 135.775 452.06 136.09C451.314 136.409 450.511 136.574 449.7 136.574C448.889 136.574 448.086 136.409 447.34 136.09C446.666 135.775 446.067 135.322 445.58 134.76C445.08 134.174 444.702 133.494 444.47 132.76C443.95 131.219 443.95 129.551 444.47 128.01C444.708 127.294 445.086 126.631 445.58 126.06C446.066 125.495 446.666 125.039 447.34 124.72C448.082 124.387 448.887 124.22 449.7 124.23ZM449.7 125.91C449.164 125.89 448.632 126.008 448.155 126.251C447.677 126.494 447.269 126.855 446.97 127.3C446.682 127.739 446.47 128.222 446.34 128.73C446.2 129.269 446.129 129.823 446.13 130.38C446.129 130.934 446.2 131.485 446.34 132.02C446.468 132.532 446.681 133.019 446.97 133.46C447.257 133.875 447.637 134.217 448.08 134.46C448.579 134.721 449.136 134.852 449.7 134.84C450.236 134.86 450.768 134.743 451.245 134.499C451.723 134.256 452.131 133.895 452.43 133.45C452.719 133.009 452.932 132.522 453.06 132.01C453.2 131.475 453.27 130.924 453.27 130.37C453.27 129.813 453.2 129.259 453.06 128.72C452.93 128.212 452.717 127.729 452.43 127.29C452.142 126.875 451.762 126.533 451.32 126.29C450.826 126.012 450.267 125.87 449.7 125.88V125.91Z" fill="#1B75BC"/>
<path d="M457.44 124.51H459.61L464.96 133.15V124.51H466.91V136.24H464.74L459.4 127.62H459.35V136.24H457.4L457.44 124.51Z" fill="#1B75BC"/>
<path d="M471.06 132.33C471.051 132.726 471.129 133.118 471.29 133.48C471.433 133.791 471.654 134.059 471.93 134.26C472.212 134.469 472.531 134.622 472.87 134.71C473.25 134.804 473.639 134.851 474.03 134.85C474.419 134.856 474.807 134.802 475.18 134.69C475.46 134.608 475.722 134.473 475.95 134.29C476.136 134.136 476.283 133.941 476.38 133.72C476.467 133.515 476.511 133.293 476.51 133.07C476.543 132.711 476.435 132.352 476.21 132.07C476.031 131.863 475.8 131.707 475.54 131.62C475.066 131.445 474.582 131.298 474.09 131.18L472.04 130.65C471.6 130.538 471.179 130.363 470.79 130.13C470.479 129.944 470.208 129.699 469.99 129.41C469.797 129.163 469.655 128.881 469.57 128.58C469.49 128.283 469.45 127.977 469.45 127.67C469.435 127.136 469.563 126.608 469.82 126.14C470.061 125.705 470.404 125.334 470.82 125.06C471.237 124.767 471.705 124.554 472.2 124.43C472.708 124.29 473.233 124.22 473.76 124.22C474.345 124.216 474.928 124.297 475.49 124.46C476.006 124.609 476.49 124.849 476.92 125.17C477.35 125.497 477.695 125.921 477.928 126.408C478.161 126.895 478.275 127.431 478.26 127.97H476.21C476.212 127.661 476.143 127.356 476.008 127.079C475.873 126.801 475.675 126.558 475.43 126.37C474.892 126.015 474.254 125.844 473.61 125.88C473.365 125.879 473.12 125.903 472.88 125.95C472.637 125.992 472.404 126.077 472.19 126.2C471.981 126.312 471.803 126.474 471.67 126.67C471.522 126.888 471.448 127.147 471.46 127.41C471.446 127.595 471.474 127.781 471.541 127.954C471.609 128.128 471.714 128.283 471.85 128.41C472.136 128.666 472.479 128.851 472.85 128.95L473.37 129.09L474.37 129.36L475.46 129.65L476.22 129.85C476.576 129.961 476.914 130.127 477.22 130.34C477.493 130.541 477.733 130.784 477.93 131.06C478.117 131.323 478.262 131.613 478.36 131.92C478.45 132.219 478.497 132.528 478.5 132.84C478.514 133.428 478.376 134.01 478.1 134.53C477.834 134.983 477.472 135.372 477.04 135.67C476.58 135.97 476.073 136.19 475.54 136.32C474.98 136.452 474.406 136.519 473.83 136.52C473.192 136.524 472.557 136.443 471.94 136.28C471.383 136.127 470.86 135.869 470.4 135.52C469.954 135.17 469.594 134.722 469.35 134.21C469.07 133.624 468.929 132.98 468.94 132.33H471.06Z" fill="#1B75BC"/>
<path d="M92.3808 104.07C96.1508 104.99 98.1108 106.34 98.1108 109.32C98.1108 112.68 95.4808 114.67 91.7408 114.67C88.9918 114.683 86.3375 113.666 84.3008 111.82L86.1808 109.58C87.6961 111.036 89.7097 111.858 91.8108 111.88C93.7508 111.88 94.9808 110.99 94.9808 109.61C94.9808 108.23 94.2608 107.61 90.9808 106.86C87.1808 105.95 85.0408 104.86 85.0408 101.51C85.0408 98.4002 87.5908 96.3102 91.1308 96.3102C93.4881 96.2647 95.7848 97.0586 97.6108 98.5502L95.9208 100.93C94.556 99.7973 92.8535 99.15 91.0808 99.0902C89.2408 99.0902 88.1708 100.03 88.1708 101.23C88.1408 102.64 88.9608 103.25 92.3808 104.07Z" fill="#1B75BC"/>
<path d="M232.17 104.07C235.94 104.99 237.9 106.34 237.9 109.32C237.9 112.68 235.27 114.67 231.53 114.67C228.781 114.683 226.127 113.666 224.09 111.82L225.97 109.58C227.488 111.038 229.505 111.861 231.61 111.88C233.55 111.88 234.78 110.99 234.78 109.61C234.78 108.23 234.06 107.61 230.78 106.86C226.98 105.95 224.84 104.86 224.84 101.51C224.84 98.4002 227.39 96.3102 230.93 96.3102C233.287 96.2647 235.584 97.0586 237.41 98.5502L235.72 100.93C234.355 99.7973 232.653 99.15 230.88 99.0902C229.04 99.0902 227.97 100.03 227.97 101.23C227.93 102.64 228.75 103.25 232.17 104.07Z" fill="#1B75BC"/>
<path d="M110.321 114.72C108.502 114.697 106.73 114.136 105.228 113.108C103.727 112.08 102.562 110.632 101.881 108.945C101.201 107.257 101.034 105.406 101.402 103.624C101.77 101.842 102.656 100.209 103.95 98.9294C105.243 97.6497 106.886 96.7809 108.672 96.4321C110.457 96.0834 112.306 96.2702 113.986 96.9691C115.666 97.668 117.102 98.8479 118.114 100.36C119.125 101.873 119.667 103.651 119.671 105.47C119.696 106.7 119.47 107.923 119.008 109.063C118.546 110.203 117.856 111.237 116.982 112.102C116.107 112.968 115.065 113.646 113.92 114.096C112.775 114.546 111.551 114.758 110.321 114.72ZM110.321 99.1502C109.505 99.149 108.698 99.3142 107.948 99.6355C107.199 99.9569 106.523 100.428 105.961 101.019C105.399 101.611 104.964 102.31 104.682 103.076C104.4 103.841 104.277 104.656 104.321 105.47C104.287 106.29 104.419 107.109 104.709 107.877C104.998 108.646 105.439 109.348 106.005 109.942C106.572 110.537 107.252 111.011 108.005 111.337C108.759 111.663 109.57 111.834 110.391 111.84C111.207 111.841 112.014 111.676 112.763 111.355C113.513 111.034 114.189 110.563 114.751 109.971C115.312 109.38 115.747 108.68 116.029 107.915C116.311 107.149 116.434 106.335 116.391 105.52C116.424 104.7 116.293 103.881 116.003 103.113C115.714 102.345 115.273 101.642 114.707 101.048C114.14 100.454 113.46 99.9795 112.707 99.6534C111.953 99.3274 111.142 99.1562 110.321 99.1502Z" fill="#1B75BC"/>
<path d="M123.461 96.5803H126.611V111.58H135.991V114.44H123.461V96.5803Z" fill="#1B75BC"/>
<path d="M154.221 106.69C154.221 112.02 151.221 114.69 146.551 114.69C141.881 114.69 138.961 112.01 138.961 106.84V96.5803H142.091V106.72C142.091 110.03 143.801 111.82 146.601 111.82C149.401 111.82 151.091 110.14 151.091 106.82V96.5803H154.221V106.69Z" fill="#1B75BC"/>
<path d="M166.07 114.42H162.91V99.4803H157.25V96.5803H171.73V99.4803H166.07V114.42Z" fill="#1B75BC"/>
<path d="M178.351 96.5803V114.42H175.221V96.5803H178.351Z" fill="#1B75BC"/>
<path d="M191.61 114.72C189.791 114.697 188.019 114.136 186.517 113.108C185.016 112.08 183.851 110.632 183.17 108.945C182.49 107.257 182.323 105.406 182.691 103.624C183.059 101.842 183.945 100.209 185.239 98.9294C186.532 97.6497 188.175 96.7809 189.961 96.4321C191.747 96.0834 193.596 96.2702 195.275 96.9691C196.955 97.668 198.391 98.8479 199.403 100.36C200.414 101.873 200.956 103.651 200.96 105.47C200.986 106.701 200.762 107.924 200.3 109.064C199.838 110.205 199.149 111.24 198.274 112.106C197.399 112.971 196.357 113.649 195.211 114.099C194.065 114.549 192.84 114.76 191.61 114.72ZM191.61 99.1502C190.794 99.149 189.987 99.3142 189.237 99.6355C188.488 99.9569 187.812 100.428 187.25 101.019C186.689 101.611 186.253 102.31 185.971 103.076C185.689 103.841 185.566 104.656 185.61 105.47C185.576 106.29 185.708 107.107 185.997 107.875C186.285 108.643 186.726 109.345 187.291 109.939C187.856 110.533 188.535 111.007 189.287 111.334C190.04 111.661 190.85 111.833 191.67 111.84C192.486 111.841 193.293 111.676 194.042 111.355C194.792 111.034 195.468 110.563 196.03 109.971C196.591 109.38 197.026 108.68 197.308 107.915C197.59 107.149 197.713 106.335 197.67 105.52C197.704 104.701 197.572 103.883 197.283 103.115C196.995 102.348 196.554 101.646 195.989 101.052C195.424 100.458 194.745 99.983 193.993 99.6563C193.24 99.3297 192.43 99.1576 191.61 99.1502Z" fill="#1B75BC"/>
<path d="M217.241 96.5803H220.331V114.42H217.701L207.861 101.73V114.42H204.781V96.5803H207.681L217.241 108.88V96.5803Z" fill="#1B75BC"/>
<path d="M261.961 96.5803H265.051V114.42H262.421L252.611 101.73V114.42H249.531V96.5803H252.441L261.961 108.88V96.5803Z" fill="#1B75BC"/>
<path d="M282.861 99.3803H272.771V104.02H281.711V106.82H272.771V111.61H282.991V114.42H269.611V96.5803H282.841L282.861 99.3803Z" fill="#1B75BC"/>
<path d="M294.252 114.42H291.092V99.4803H285.432V96.5803H299.912V99.4803H294.252V114.42Z" fill="#1B75BC"/>
<path d="M313.87 96.5203H316.52L320.91 109.8L325.16 96.5803H328.45L322.23 114.58H319.53L315.15 101.77L310.76 114.58H308.06L301.84 96.5803H305.23L309.49 109.8L313.87 96.5203Z" fill="#1B75BC"/>
<path d="M340.171 114.72C338.351 114.697 336.579 114.136 335.078 113.108C333.576 112.08 332.412 110.632 331.731 108.945C331.05 107.257 330.883 105.406 331.251 103.624C331.619 101.842 332.506 100.209 333.799 98.9294C335.093 97.6497 336.736 96.7809 338.521 96.4321C340.307 96.0834 342.156 96.2702 343.836 96.9691C345.516 97.668 346.952 98.8479 347.963 100.36C348.975 101.873 349.516 103.651 349.521 105.47C349.547 106.701 349.322 107.924 348.861 109.064C348.399 110.205 347.709 111.24 346.834 112.106C345.96 112.971 344.917 113.649 343.772 114.099C342.626 114.549 341.401 114.76 340.171 114.72ZM340.171 99.1502C339.355 99.149 338.548 99.3142 337.798 99.6355C337.048 99.9569 336.372 100.428 335.811 101.019C335.249 101.611 334.814 102.31 334.532 103.076C334.25 103.841 334.127 104.656 334.171 105.47C334.137 106.29 334.269 107.107 334.557 107.875C334.846 108.643 335.286 109.345 335.851 109.939C336.417 110.533 337.096 111.007 337.848 111.334C338.6 111.661 339.41 111.833 340.231 111.84C341.046 111.841 341.853 111.676 342.603 111.355C343.353 111.034 344.029 110.563 344.59 109.971C345.152 109.38 345.587 108.68 345.869 107.915C346.151 107.149 346.274 106.335 346.231 105.52C346.264 104.701 346.133 103.883 345.844 103.115C345.555 102.348 345.115 101.646 344.55 101.052C343.984 100.458 343.305 99.983 342.553 99.6563C341.801 99.3297 340.991 99.1576 340.171 99.1502Z" fill="#1B75BC"/>
<path d="M364.76 114.42L360.38 108.2H356.45V114.42H353.32V96.5803H361.32C365.42 96.5803 367.95 98.7403 367.95 102.23C367.998 103.493 367.595 104.732 366.815 105.726C366.035 106.72 364.928 107.406 363.69 107.66L368.51 114.42H364.76ZM361.02 99.4203H356.45V105.42H361.04C363.28 105.42 364.71 104.25 364.71 102.42C364.71 100.59 363.33 99.4303 361.02 99.4303V99.4203Z" fill="#1B75BC"/>
<path d="M387.55 114.42H383.75L377.66 106.42L374.88 109.27V114.45H371.74V96.5803H374.88V105.58L383.36 96.5803H387.21L379.8 104.25L387.55 114.42Z" fill="#1B75BC"/>
<path d="M92.3808 76.1601C96.1508 77.0801 98.1108 78.4301 98.1108 81.4101C98.1108 84.7701 95.4808 86.7601 91.7408 86.7601C88.9878 86.765 86.333 85.7373 84.3008 83.8801L86.1808 81.6401C87.6945 83.0994 89.7083 83.9257 91.8108 83.9501C93.7508 83.9501 94.9808 83.0601 94.9808 81.6801C94.9808 80.3001 94.2608 79.6801 90.9808 78.9301C87.1808 78.0101 85.0408 76.9301 85.0408 73.5801C85.0408 70.4701 87.5908 68.3801 91.1308 68.3801C93.4918 68.3431 95.789 69.1478 97.6108 70.6501L95.9208 73.0201C94.5498 71.8993 92.8504 71.2567 91.0808 71.1901C89.2408 71.1901 88.1708 72.1301 88.1708 73.3301C88.1408 74.7301 88.9608 75.3401 92.3808 76.1601Z" fill="#6B6C6F"/>
<path d="M116.791 78.7802C116.791 84.1102 113.791 86.7802 109.121 86.7802C104.451 86.7802 101.521 84.1002 101.521 78.9302V68.6602H104.661V78.8102C104.661 82.1202 106.371 83.9102 109.171 83.9102C111.971 83.9102 113.651 82.2302 113.651 78.9102V68.6602H116.791V78.7802Z" fill="#6B6C6F"/>
<path d="M127.97 76.1601C131.75 77.0801 133.71 78.4301 133.71 81.4101C133.71 84.7701 131.09 86.7601 127.34 86.7601C124.587 86.7649 121.933 85.7373 119.9 83.8801L121.78 81.6401C123.297 83.1009 125.315 83.9272 127.42 83.9501C129.35 83.9501 130.57 83.0601 130.57 81.6801C130.57 80.3001 129.86 79.6801 126.57 78.9301C122.77 78.0101 120.63 76.9301 120.63 73.5801C120.63 70.4701 123.18 68.3801 126.72 68.3801C129.075 68.3308 131.37 69.1253 133.19 70.6201L131.51 72.9901C130.119 71.8678 128.397 71.2351 126.61 71.1901C124.78 71.1901 123.71 72.1301 123.71 73.3301C123.75 74.7301 124.61 75.3401 127.97 76.1601Z" fill="#6B6C6F"/>
<path d="M144.951 86.5102H141.791V71.5702H136.131V68.6602H150.611V71.5702H144.961L144.951 86.5102Z" fill="#6B6C6F"/>
<path d="M170.99 86.51H167.68L165.87 82.2H157.43L155.61 86.51H152.4L160.25 68.51H163.15L170.99 86.51ZM161.61 72.28L158.61 79.42H164.75L161.61 72.28Z" fill="#6B6C6F"/>
<path d="M177.361 68.6602V86.5102H174.221V68.6602H177.361Z" fill="#6B6C6F"/>
<path d="M194.61 68.6602H197.69V86.5102H195.07L185.23 73.8102V86.5102H182.15V68.6602H185.05L194.61 81.0002V68.6602Z" fill="#6B6C6F"/>
<path d="M219.33 86.51H216.02L214.21 82.2H205.78L203.94 86.51H200.73L208.57 68.51H211.48L219.33 86.51ZM209.98 72.28L206.92 79.42H213.06L209.98 72.28Z" fill="#6B6C6F"/>
<path d="M236.251 73.2302C236.274 74.0754 236.044 74.9082 235.589 75.6212C235.135 76.3342 234.477 76.8947 233.701 77.2302C235.791 77.9402 237.251 79.1402 237.251 81.5902C237.251 84.8002 234.621 86.5102 230.651 86.5102H222.391V68.6602H230.391C233.991 68.6602 236.251 70.4202 236.251 73.2302ZM233.121 73.7402C233.121 72.2802 232.001 71.4402 229.981 71.4402H225.471V76.1802H229.751C231.771 76.1802 233.121 75.3902 233.121 73.7402ZM234.121 81.2602C234.121 79.7302 232.921 78.8402 230.451 78.8402H225.451V83.7302H230.651C232.811 83.7302 234.111 82.8802 234.111 81.2602H234.121Z" fill="#6B6C6F"/>
<path d="M240.791 68.6602H243.921V83.6602H253.301V86.5202H240.791V68.6602Z" fill="#6B6C6F"/>
<path d="M269.791 71.4702H259.691V76.1102H268.611V78.8802H259.661V83.6702H269.891V86.4802H256.611V68.6602H269.841L269.791 71.4702Z" fill="#6B6C6F"/>
<path d="M287.931 86.5102H281.271V68.6602H287.931C293.541 68.6602 297.411 72.5102 297.411 77.5602C297.411 82.6102 293.541 86.5102 287.931 86.5102ZM287.931 71.5102H284.411V83.6502H287.931C288.749 83.6833 289.564 83.5511 290.329 83.2612C291.094 82.9714 291.792 82.53 292.382 81.9635C292.972 81.3971 293.441 80.7172 293.762 79.9648C294.083 79.2124 294.248 78.403 294.248 77.5852C294.248 76.7673 294.083 75.9579 293.762 75.2055C293.441 74.4531 292.972 73.7733 292.382 73.2068C291.792 72.6403 291.094 72.1989 290.329 71.9091C289.564 71.6193 288.749 71.487 287.931 71.5202V71.5102Z" fill="#6B6C6F"/>
<path d="M314.541 71.4702H304.441V76.1102H313.391V78.8802H304.441V83.6702H314.661V86.4802H301.301V68.6602H314.541V71.4702Z" fill="#6B6C6F"/>
<path d="M331.052 68.6602H334.442L327.022 86.6602H324.272L316.852 68.6602H320.322L325.692 82.3802L331.052 68.6602Z" fill="#6B6C6F"/>
<path d="M350.492 71.4702H340.402V76.1102H349.342V78.8802H340.402V83.6702H350.612V86.4802H337.262V68.6602H350.492V71.4702Z" fill="#6B6C6F"/>
<path d="M354.342 68.6602H357.472V83.6602H366.852V86.5202H354.342V68.6602Z" fill="#6B6C6F"/>
<path d="M378.612 86.8101C376.793 86.7864 375.021 86.2255 373.519 85.1979C372.018 84.1703 370.853 82.7218 370.172 81.0345C369.492 79.3471 369.325 77.4962 369.693 75.7143C370.061 73.9323 370.947 72.2989 372.241 71.0192C373.534 69.7396 375.177 68.8708 376.963 68.522C378.748 68.1732 380.598 68.36 382.277 69.059C383.957 69.7579 385.393 70.9377 386.405 72.4503C387.416 73.9628 387.958 75.7405 387.962 77.5601C387.988 78.7905 387.764 80.0135 387.302 81.1543C386.84 82.2951 386.151 83.3299 385.276 84.1955C384.401 85.0611 383.359 85.7393 382.213 86.1888C381.067 86.6384 379.842 86.8497 378.612 86.8101ZM378.612 71.2401C377.796 71.2389 376.989 71.404 376.239 71.7254C375.49 72.0467 374.814 72.5175 374.252 73.109C373.69 73.7005 373.255 74.4003 372.973 75.1656C372.691 75.9309 372.568 76.7456 372.612 77.5601C372.578 78.3795 372.71 79.1973 372.999 79.965C373.287 80.7326 373.728 81.4344 374.293 82.0286C374.858 82.6228 375.537 83.0973 376.289 83.4239C377.042 83.7506 377.852 83.9227 378.672 83.9301C379.488 83.9312 380.295 83.7661 381.044 83.4447C381.794 83.1234 382.47 82.6526 383.032 82.0611C383.593 81.4696 384.028 80.7698 384.31 80.0045C384.592 79.2392 384.715 78.4245 384.672 77.6101C384.705 76.7906 384.574 75.9728 384.285 75.2051C383.996 74.4375 383.556 73.7358 382.991 73.1416C382.426 72.5473 381.747 72.0728 380.995 71.7462C380.242 71.4195 379.432 71.2474 378.612 71.2401Z" fill="#6B6C6F"/>
<path d="M398.451 80.7702H394.911V86.5102H391.771V68.6602H398.771C402.921 68.6602 405.541 71.0102 405.541 74.6602C405.611 78.6802 402.371 80.7702 398.451 80.7702ZM398.551 71.5202H394.911V77.9402H398.551C400.921 77.9402 402.401 76.6402 402.401 74.7302C402.401 72.6202 400.901 71.5202 398.551 71.5202Z" fill="#6B6C6F"/>
<path d="M417.612 82.1202H417.512L411.932 73.7602V86.5102H408.842V68.6602H412.182L417.612 77.1002L423.042 68.6602H426.382V86.5102H423.242V73.7102L417.612 82.1202Z" fill="#6B6C6F"/>
<path d="M444.142 71.4702H434.052V76.1102H442.992V78.8802H434.052V83.6702H444.272V86.4802H430.912V68.6602H444.142V71.4702Z" fill="#6B6C6F"/>
<path d="M460.45 68.6602H463.54V86.5102H460.91L451.07 73.8102V86.5102H447.98V68.6602H450.89L460.45 81.0002V68.6602Z" fill="#6B6C6F"/>
<path d="M475.611 86.5102H472.451V71.5702H466.791V68.6602H481.271V71.5702H475.611V86.5102Z" fill="#6B6C6F"/>
<defs>
<linearGradient id="paint0_linear_176_354" x1="23.0112" y1="37.9202" x2="138.321" y2="37.9202" gradientUnits="userSpaceOnUse">
<stop stop-color="#1B75BC"/>
<stop offset="1" stop-color="#39B54A"/>
</linearGradient>
<linearGradient id="paint1_linear_176_354" x1="67.1022" y1="160.88" x2="123.212" y2="160.88" gradientUnits="userSpaceOnUse">
<stop stop-color="#1B75BC"/>
<stop offset="1" stop-color="#39B54A"/>
</linearGradient>
<linearGradient id="paint2_linear_176_354" x1="7.3114" y1="29.4602" x2="96.8114" y2="29.4602" gradientUnits="userSpaceOnUse">
<stop stop-color="#1B75BC"/>
<stop offset="1" stop-color="#39B54A"/>
</linearGradient>
<linearGradient id="paint3_linear_176_354" x1="0.00228595" y1="147.15" x2="58.5623" y2="147.15" gradientUnits="userSpaceOnUse">
<stop stop-color="#1B75BC"/>
<stop offset="1" stop-color="#39B54A"/>
</linearGradient>
<linearGradient id="paint4_linear_176_354" x1="12.6512" y1="126.6" x2="50.5512" y2="126.6" gradientUnits="userSpaceOnUse">
<stop stop-color="#1B75BC"/>
<stop offset="1" stop-color="#39B54A"/>
</linearGradient>
<linearGradient id="paint5_linear_176_354" x1="30.2913" y1="91.2401" x2="51.5313" y2="91.2401" gradientUnits="userSpaceOnUse">
<stop stop-color="#1B75BC"/>
<stop offset="1" stop-color="#39B54A"/>
</linearGradient>
<linearGradient id="paint6_linear_176_354" x1="58.6014" y1="39.0801" x2="121.791" y2="39.0801" gradientUnits="userSpaceOnUse">
<stop stop-color="#1B75BC"/>
<stop offset="1" stop-color="#39B54A"/>
</linearGradient>
<linearGradient id="paint7_linear_176_354" x1="86.6914" y1="179.71" x2="171.681" y2="179.71" gradientUnits="userSpaceOnUse">
<stop stop-color="#1B75BC"/>
<stop offset="1" stop-color="#39B54A"/>
</linearGradient>
<linearGradient id="paint8_linear_176_354" x1="70.4707" y1="174.07" x2="147.441" y2="174.07" gradientUnits="userSpaceOnUse">
<stop stop-color="#1B75BC"/>
<stop offset="1" stop-color="#39B54A"/>
</linearGradient>
<linearGradient id="paint9_linear_176_354" x1="117.121" y1="26.29" x2="184.251" y2="26.29" gradientUnits="userSpaceOnUse">
<stop stop-color="#1B75BC"/>
<stop offset="1" stop-color="#39B54A"/>
</linearGradient>
<linearGradient id="paint10_linear_176_354" x1="23.0112" y1="37.9202" x2="138.321" y2="37.9202" gradientUnits="userSpaceOnUse">
<stop stop-color="#1B75BC"/>
<stop offset="1" stop-color="#39B54A"/>
</linearGradient>
<linearGradient id="paint11_linear_176_354" x1="67.1022" y1="160.88" x2="123.212" y2="160.88" gradientUnits="userSpaceOnUse">
<stop stop-color="#1B75BC"/>
<stop offset="1" stop-color="#39B54A"/>
</linearGradient>
<linearGradient id="paint12_linear_176_354" x1="7.3114" y1="29.4602" x2="96.8114" y2="29.4602" gradientUnits="userSpaceOnUse">
<stop stop-color="#1B75BC"/>
<stop offset="1" stop-color="#39B54A"/>
</linearGradient>
<linearGradient id="paint13_linear_176_354" x1="0.00228595" y1="147.15" x2="58.5623" y2="147.15" gradientUnits="userSpaceOnUse">
<stop stop-color="#1B75BC"/>
<stop offset="1" stop-color="#39B54A"/>
</linearGradient>
<linearGradient id="paint14_linear_176_354" x1="12.6512" y1="126.6" x2="50.5512" y2="126.6" gradientUnits="userSpaceOnUse">
<stop stop-color="#1B75BC"/>
<stop offset="1" stop-color="#39B54A"/>
</linearGradient>
<linearGradient id="paint15_linear_176_354" x1="30.2913" y1="91.2401" x2="51.5313" y2="91.2401" gradientUnits="userSpaceOnUse">
<stop stop-color="#1B75BC"/>
<stop offset="1" stop-color="#39B54A"/>
</linearGradient>
<linearGradient id="paint16_linear_176_354" x1="58.6014" y1="39.0801" x2="121.791" y2="39.0801" gradientUnits="userSpaceOnUse">
<stop stop-color="#1B75BC"/>
<stop offset="1" stop-color="#39B54A"/>
</linearGradient>
<linearGradient id="paint17_linear_176_354" x1="86.6914" y1="179.71" x2="171.681" y2="179.71" gradientUnits="userSpaceOnUse">
<stop stop-color="#1B75BC"/>
<stop offset="1" stop-color="#39B54A"/>
</linearGradient>
<linearGradient id="paint18_linear_176_354" x1="70.4707" y1="174.07" x2="147.441" y2="174.07" gradientUnits="userSpaceOnUse">
<stop stop-color="#1B75BC"/>
<stop offset="1" stop-color="#39B54A"/>
</linearGradient>
<linearGradient id="paint19_linear_176_354" x1="117.121" y1="26.29" x2="184.251" y2="26.29" gradientUnits="userSpaceOnUse">
<stop stop-color="#1B75BC"/>
<stop offset="1" stop-color="#39B54A"/>
</linearGradient>
<linearGradient id="paint20_linear_176_354" x1="23.0112" y1="37.9202" x2="138.321" y2="37.9202" gradientUnits="userSpaceOnUse">
<stop stop-color="#1B75BC"/>
<stop offset="1" stop-color="#39B54A"/>
</linearGradient>
<linearGradient id="paint21_linear_176_354" x1="67.1022" y1="160.88" x2="123.212" y2="160.88" gradientUnits="userSpaceOnUse">
<stop stop-color="#1B75BC"/>
<stop offset="1" stop-color="#39B54A"/>
</linearGradient>
<linearGradient id="paint22_linear_176_354" x1="7.3114" y1="29.4602" x2="96.8114" y2="29.4602" gradientUnits="userSpaceOnUse">
<stop stop-color="#1B75BC"/>
<stop offset="1" stop-color="#39B54A"/>
</linearGradient>
<linearGradient id="paint23_linear_176_354" x1="0.00228595" y1="147.15" x2="58.5623" y2="147.15" gradientUnits="userSpaceOnUse">
<stop stop-color="#1B75BC"/>
<stop offset="1" stop-color="#39B54A"/>
</linearGradient>
<linearGradient id="paint24_linear_176_354" x1="12.6512" y1="126.6" x2="50.5512" y2="126.6" gradientUnits="userSpaceOnUse">
<stop stop-color="#1B75BC"/>
<stop offset="1" stop-color="#39B54A"/>
</linearGradient>
<linearGradient id="paint25_linear_176_354" x1="30.2913" y1="91.2401" x2="51.5313" y2="91.2401" gradientUnits="userSpaceOnUse">
<stop stop-color="#1B75BC"/>
<stop offset="1" stop-color="#39B54A"/>
</linearGradient>
<linearGradient id="paint26_linear_176_354" x1="58.6014" y1="39.0801" x2="121.791" y2="39.0801" gradientUnits="userSpaceOnUse">
<stop stop-color="#1B75BC"/>
<stop offset="1" stop-color="#39B54A"/>
</linearGradient>
<linearGradient id="paint27_linear_176_354" x1="86.6914" y1="179.71" x2="171.681" y2="179.71" gradientUnits="userSpaceOnUse">
<stop stop-color="#1B75BC"/>
<stop offset="1" stop-color="#39B54A"/>
</linearGradient>
<linearGradient id="paint28_linear_176_354" x1="70.4707" y1="174.07" x2="147.441" y2="174.07" gradientUnits="userSpaceOnUse">
<stop stop-color="#1B75BC"/>
<stop offset="1" stop-color="#39B54A"/>
</linearGradient>
<linearGradient id="paint29_linear_176_354" x1="117.121" y1="26.29" x2="184.251" y2="26.29" gradientUnits="userSpaceOnUse">
<stop stop-color="#1B75BC"/>
<stop offset="1" stop-color="#39B54A"/>
</linearGradient>
</defs>
</svg>
