<svg xmlns="http://www.w3.org/2000/svg" version="1.1" xmlns:xlink="http://www.w3.org/1999/xlink" xmlns:svgjs="http://svgjs.dev/svgjs" width="512" height="512"><svg width="512" height="512" viewBox="0 0 512 512" fill="none" xmlns="http://www.w3.org/2000/svg">
<rect width="512" height="512" rx="20" fill="#1C314F"></rect>
<path d="M307.56 196.84C307 196.42 306.86 194.04 306.86 194.04C305.32 182.14 302.38 170.1 297.76 158.34C297.48 157.64 297.34 157.22 297.34 156.8C297.34 156.24 297.62 155.68 299.02 154.98C305.04 152.18 309.94 148.68 313.58 145.04C314.14 144.48 314.56 144.2 314.84 144.2C315.12 144.2 315.4 144.48 315.96 145.32C321.42 154.7 325.48 165.2 328.28 176.26C328.56 177.52 328.7 178.5 328.7 179.2C328.7 180.74 328.14 181.86 326.74 183.26C323.1 186.9 316.66 192.08 309.94 196.14C309.66 196.14 307.98 197.12 307.56 196.84ZM301.68 210.56C301.68 210.56 301.68 208.46 300.98 208.04C300.28 207.62 298.6 208.32 298.6 208.32C286.84 212.52 273.96 214.62 260.52 215.04C258 215.18 258.14 215.74 258 217.84C257.86 229.74 257.58 240.94 257.3 251.16C257.3 251.16 257.16 252.14 257.58 252.56C257.86 252.84 258.98 252.84 258.98 252.84C272.42 252 285.16 249.06 296.78 244.3C298.46 243.6 298.74 242.48 299.3 240.52C302.52 227.64 301.68 210.56 301.68 210.56ZM296.5 149.52C301.82 146.72 306.72 143.36 309.8 140.14C310.5 139.44 310.78 138.88 310.78 138.18C310.78 137.48 310.5 136.78 309.8 135.66C302.66 125.72 294.12 117.88 284.88 112C282.22 113.82 278.02 115.5 273.68 116.48C281.24 125.72 287.96 136.22 293.42 148.12C293.98 149.24 294.26 149.94 294.68 150.08C295.24 150.22 295.94 149.8 296.5 149.52ZM287.26 153.44C287.96 153.16 288.38 153.02 288.66 152.46C288.8 151.9 288.38 150.64 288.38 150.64C283.2 137.9 276.9 126.28 270.18 117.32C266.54 118.02 259.54 118.44 257.02 118.44C257.44 131.32 257.72 144.06 257.86 156.38C257.86 157.5 258 158.06 258.42 158.34C258.7 158.62 259.26 158.76 259.82 158.76C268.22 158.62 280.26 156.1 287.26 153.44ZM296.36 249.9C296.36 249.62 296.08 249.62 296.08 249.62C295.8 249.62 295.38 249.76 294.4 250.04C279.7 254.66 266.96 255.78 258.7 255.92C257.58 255.92 257.3 256.34 257.16 257.6L256.46 268.52C256.46 268.52 272.98 268.94 289.92 261.8C292.3 258.72 294.26 255.08 295.94 251.02C296.08 250.6 296.22 250.32 296.36 249.9ZM330.66 189.56C330.66 189.28 330.38 189.56 330.38 189.56C326.46 193.48 319.32 198.8 310.92 203C308.26 204.4 307.98 205.38 307.84 207.76C307.98 221.34 306.3 231.7 303.36 240.52C303.36 240.52 303.08 241.22 303.92 240.8C304.76 240.38 316.94 234.5 325.34 225.96C328.14 223.16 330.38 218.96 330.8 214.48C332.62 199.64 330.66 189.56 330.66 189.56ZM334.86 172.2C340.46 162.54 340.46 154.56 340.46 154.56C340.46 154 340.46 153.58 340.32 153.3C337.8 142.24 331.92 131.74 323.1 122.08C323.24 123.06 323.24 123.9 323.24 124.88C323.24 128.24 322.54 131.74 320.86 135.38C320.3 136.64 320.02 137.48 320.02 138.18C320.02 138.88 320.3 139.3 320.72 140.14C320.86 139.86 329.82 152.04 334.86 172.2ZM207.04 199.64C207.88 185.92 211.66 171.5 216.84 157.78C216.98 157.5 216.98 157.22 216.98 157.08C216.98 156.66 216.7 156.38 216 156.1C207.32 152.32 200.74 147.14 196.4 141.54C196.4 141.54 196.12 141.26 196.4 140.98C196.68 140.7 196.96 140.98 196.96 140.98C201.86 145.74 209 149.66 217.26 152.74C217.68 152.88 217.82 152.88 218.1 152.88C218.52 152.88 218.8 152.6 219.36 151.48C224.96 138.6 232.24 126.42 240.5 116.34C233.5 114.66 226.36 110.88 224.68 106.82C224.68 106.82 224.4 106.4 224.82 106.12C225.24 105.98 225.52 106.4 225.52 106.4C233.22 114.8 255.76 114.24 255.76 114.24C265.14 114.24 284.6 111.02 284.6 103.04C284.6 95.9 274.24 92.12 255.48 91.84C198.64 91.84 168.12 141.12 168.12 180.18C168.12 227.36 208.16 268.52 254.5 268.52C254.5 267.82 253.94 257.46 253.94 257.46C253.94 256.34 253.66 255.92 252.26 255.78C252.26 255.78 232.1 254.24 225.52 250.88C225.24 250.74 225.38 250.46 225.8 250.46C225.8 250.46 239.38 252.84 252.4 252.84C252.4 252.84 253.8 252.98 253.8 251.3C253.8 249.9 253.24 217.84 253.24 217.84C253.1 215.46 252.82 215.04 250.44 214.9C236.44 214.2 222.72 211.26 210.82 206.22C210.54 206.08 210.4 206.08 210.12 206.08C209.84 206.22 209.84 206.78 209.84 206.78C208.72 221.62 210.4 236.04 210.4 236.04C210.4 236.32 210.4 236.46 210.12 236.46C209.84 236.46 209.84 236.18 209.84 236.18C207.74 228.2 206.62 219.52 206.62 210.28C206.62 209.58 206.76 205.8 206.76 205.8C206.76 204.82 206.34 204.12 205.5 203.7C199.9 200.9 194.86 197.4 190.38 193.9C190.38 193.9 190.1 193.62 190.38 193.34C190.66 193.2 190.8 193.34 190.8 193.34C195.42 196.28 200.74 198.8 206.2 201.04H206.9C206.9 200.9 206.9 200.48 207.04 199.64ZM316.1 130.48C317.64 126.56 317.92 121.1 316.24 117.18C314.7 113.54 309.8 109.76 309.8 109.76C302.24 103.88 293.84 100.24 289.92 98.7C290.62 99.96 291.04 101.22 291.04 102.48C291.04 104.72 289.92 106.96 287.96 109.34C297.9 115.08 306.16 121.94 313.44 130.34C313.44 130.34 314.56 131.74 315.26 131.74C315.68 131.6 316.1 130.48 316.1 130.48ZM337.52 195.58C337.52 201.6 336.96 207.62 335.84 213.22C340.74 204.82 344.66 192.5 344.66 178.22C344.66 174.16 344.38 170.1 343.68 165.9C342.84 170.1 341.44 174.3 339.06 178.22C337.52 180.88 336.82 182.7 337.1 184.52C337.38 190.4 337.52 195.58 337.52 195.58ZM299.44 250.74C297.9 253.96 296.08 257.04 294.12 259.84C304.62 254.66 316.52 244.44 324.64 233.94C318.34 238.98 311.2 243.32 303.08 246.68C301.54 247.52 300.14 249.34 299.44 250.74ZM253.24 166.6C253.24 164.78 252.4 163.8 250.72 163.66C240.36 163.24 230.42 161.28 221.6 158.2C221.18 158.06 220.9 157.92 220.62 157.92C220.34 157.92 220.06 158.06 219.92 158.76C211.8 179.2 210.12 201.32 210.12 201.32C209.98 202.3 210.26 202.58 210.96 202.86C210.96 202.86 228.18 209.44 250.3 209.44C250.3 209.44 251.84 209.44 252.26 209.02C252.82 208.46 252.96 208.04 252.82 206.22C253.1 195.44 253.24 166.6 253.24 166.6ZM222.44 152.6C221.88 153.72 222.16 154.14 222.16 154.14C222.3 154.42 222.72 154.56 222.72 154.56C229.3 156.8 242.04 158.9 251 158.9C251.98 158.9 252.54 158.76 252.96 158.34C253.38 157.92 253.52 157.22 253.66 156.1C253.94 143.78 254.22 130.9 254.92 118.44C251.14 118.3 246.38 117.74 243.16 117.04C234.76 127.54 227.9 139.44 222.44 152.6ZM260.1 209.3C266.26 209.02 282.08 207.9 298.04 201.74C300.28 200.9 300.7 199.92 300.7 198.24C300.7 197.82 300.7 197.4 300.56 196.84C299.02 184.66 296.08 172.48 292.02 160.3C291.46 158.76 291.18 158.48 290.76 158.48C290.48 158.48 290.06 158.62 289.5 158.76C280.68 161.7 271.02 163.38 260.8 163.66C258.84 163.8 258.28 165.06 258.28 166.46C258.28 172.76 258.42 182.7 258.42 196.14C258.42 199.5 258.42 204.12 258.42 207.34C258.42 207.34 258.42 208.32 258.84 208.88C258.84 209.3 259.4 209.44 260.1 209.3ZM125.42 240.38C132.14 258.3 148.8 259.84 160 270.76C162.1 272.86 164.2 274.82 166.58 276.08L166.72 275.94C164.06 273.14 161.12 270.06 159.3 266.42C152.72 255.64 155.1 240.38 150.06 228.76C154.54 235.06 158.6 241.64 161.26 248.92C165.32 260.68 166.86 273.98 176.1 282.8C166.02 278.88 154.26 279.72 145.3 272.58C136.06 265.16 127.24 253.54 125.42 240.38ZM218.94 291.9C220.34 291.9 221.46 291.48 221.46 291.48C212.78 289.52 205.36 287.98 197.94 281.68C188.14 273.42 180.58 265.16 169.66 258.44C171.06 259.28 177.22 272.02 182.4 279.58C186.04 284.9 191.78 287.84 196.96 289.1C201.3 290.22 202.28 290.64 202.28 290.64C202.28 290.64 201.58 291.06 199.9 290.64C199.9 290.64 185.48 287.7 177.64 287.7C146.56 287.7 138.44 275.8 138.44 275.8C147.68 292.46 166.72 298.76 179.18 298.76C197.1 298.62 210.4 291.9 218.94 291.9ZM333.32 298.62C345.78 298.62 364.82 292.46 374.06 275.66C374.06 275.66 365.94 287.56 334.86 287.56C327.02 287.56 312.6 290.5 312.6 290.5C310.92 290.92 310.22 290.5 310.22 290.5C310.22 290.5 311.2 290.08 315.54 288.96C320.58 287.7 326.46 284.76 330.1 279.44C335.28 271.88 341.44 259.14 342.84 258.3C331.92 265.02 324.36 273.42 314.56 281.54C307.14 287.7 299.72 289.38 291.04 291.34C291.04 291.34 292.16 291.76 293.56 291.76C302.24 291.9 315.54 298.62 333.32 298.62ZM139.84 248.78C142.92 251.44 149.22 257.18 150.34 258.86C150.34 258.86 149.64 256.48 148.94 253.54C148.24 250.6 147.26 243.46 144.32 237.3C142.08 232.4 132.56 216.72 130.74 208.04C130.74 208.04 123.88 235.2 139.84 248.78ZM336.4 282.8C346.48 278.88 358.1 279.72 367.06 272.58C376.44 265.16 385.4 253.54 387.22 240.38C380.5 258.3 363.84 259.7 352.5 270.62C350.4 272.72 348.3 274.68 345.92 275.94L345.78 275.8C348.3 273 351.38 269.92 353.2 266.28C359.78 255.5 357.4 240.24 362.44 228.62C357.96 234.92 353.9 241.5 351.24 248.78C347.18 260.68 345.64 273.84 336.4 282.8ZM311.62 302.4C296.08 296.1 279.98 288.12 261.36 291.9C259.26 292.32 257.58 292.74 255.62 292.74C253.8 292.74 252.12 292.32 250.02 291.9C231.26 288.12 215.16 296.1 199.62 302.4C188 306.6 172.88 305.9 162.66 299.46C167.7 305.34 174.42 308.98 181.42 311.5C194.3 316.26 209.7 313.04 220.34 306.04C229.58 301.28 237.42 291.76 249.46 295.26C237.14 300.58 225.94 308.14 215.72 317.8L222.02 322.7C222.02 322.7 233.92 306.6 255.48 296.94C276.9 306.6 288.94 322.7 288.94 322.7L295.38 317.8C285.16 308.14 273.96 300.72 261.64 295.26C273.68 291.62 281.66 301.14 290.76 306.04C301.54 313.04 316.8 316.26 329.82 311.5C336.82 308.98 343.54 305.34 348.58 299.46C338.36 306.04 323.24 306.74 311.62 302.4ZM372.8 248.78C388.76 235.2 382.04 208.04 382.04 208.04C380.22 216.72 370.7 232.54 368.46 237.3C365.52 243.46 364.54 250.6 363.84 253.54C363.14 256.48 362.44 258.86 362.44 258.86C363.42 257.18 369.72 251.44 372.8 248.78ZM120.8 171.64C125.56 172.06 130.18 172.48 134.94 172.9C138.72 173.18 140.68 171.78 140.96 168.14C141.1 166.46 140.96 165.2 140.26 164.08C139.42 162.68 138.16 161.98 135.5 161.7C131.02 161.14 126.4 160.72 121.92 160.16C121.36 161.14 120.94 162.12 120.38 163.1C120.1 163.1 119.68 163.1 119.4 162.96C119.68 160.02 120.1 157.08 120.38 154.14C120.66 154.14 121.08 154.28 121.36 154.28C121.64 155.4 121.92 156.38 122.2 157.5C126.54 158.06 130.88 158.48 135.22 159.04C138.44 159.46 140.4 160.58 141.66 162.82C142.64 164.64 143.06 166.74 142.78 169.4C142.22 175 139.28 177.94 134.52 177.52C129.76 177.1 125.14 176.82 120.38 176.4C119.82 177.38 119.4 178.36 118.98 179.34C118.7 179.34 118.28 179.34 118 179.2C118.28 175.56 118.56 172.06 118.84 168.42C119.12 168.42 119.54 168.42 119.82 168.56C120.24 169.68 120.52 170.66 120.8 171.64ZM128.36 143.92C133.4 145.6 138.58 147.28 143.62 148.96C144.32 148.26 145.02 147.42 145.72 146.72C146 146.86 146.28 146.86 146.7 147C145.86 149.52 145.02 152.04 144.18 154.56C143.9 154.42 143.48 154.42 143.2 154.28C143.06 153.16 143.06 152.18 142.92 151.06C136.9 149.1 130.88 147.14 124.86 145.18C124.16 146.02 123.46 146.86 122.76 147.7C122.62 147.7 122.2 147.7 121.92 147.56C122.62 145.32 123.32 143.08 124.16 140.7C130.46 138.46 136.76 136.22 143.06 134.12C138.86 132.58 134.52 131.04 130.32 129.64C129.62 130.34 128.92 131.18 128.22 132.02C127.94 131.88 127.66 131.88 127.24 131.74C128.08 129.08 129.06 126.42 130.04 123.9C130.32 124.04 130.6 124.18 130.88 124.18C130.88 125.3 130.88 126.42 131.02 127.54C137.74 129.92 144.46 132.44 151.18 134.82C151.04 135.38 150.76 135.94 150.62 136.5C143.2 138.74 135.78 141.26 128.36 143.92ZM161.54 102.76L166.86 106.54C165.6 109.76 164.62 111.72 163.36 113.54C159.02 119.56 153 120.82 146.98 116.48C140.96 112.28 139 106.12 144.18 98.84C145.3 97.16 147.12 95.48 149.36 93.38L149.78 92.96L154.4 96.32L153.42 97.72L148.8 96.74C148.1 97.16 147.68 97.58 147.26 98.14C142.78 103.74 144.18 108.92 149.64 112.84C154.54 116.34 159.72 115.5 162.94 111.02C163.5 110.18 163.64 109.62 163.64 109.62L159.02 106.4L156.22 108.08L155.38 107.52L161.4 99.26L162.24 99.82L161.54 102.76ZM171.2 100.24L157.76 86.66L154.82 87.78L154.12 87.08L161.54 79.8L162.24 80.5L160.98 83.44L174.56 97.3L178.76 93.1L177.36 88.48L178.34 87.36L182.12 91.98C182.12 91.98 176.24 97.58 170.5 103.6L169.8 102.9L171.2 100.24ZM177.78 81.48C173.44 75.18 174.42 68.46 181 64.26C187.02 60.48 192.9 62.16 196.4 67.9C200.18 74.2 199.2 81.06 193.18 84.98C187.72 88.62 181.7 87.08 177.78 81.48ZM181.28 78.26C184.92 83.44 189.54 85.12 192.76 83.16C195.84 81.2 195.98 76.3 192.76 70.84C189.68 65.8 185.34 63.56 181.56 66.08C177.36 68.6 177.64 73.22 181.28 78.26ZM207.18 74.34L199.62 56.7H196.54L196.12 55.86L206.76 51.38C209.28 50.4 210.82 50.26 212.5 50.82C214.04 51.38 215.02 52.36 215.58 53.76C216.7 56.7 215.16 59.64 211.38 61.6C216 59.92 219.08 60.9 220.48 64.26C221.18 66.08 220.9 68.04 219.92 69.58C218.94 71.12 217.4 72.1 214.46 73.36L205.36 77.42L204.94 76.58L207.18 74.34ZM207.32 62.72L208.72 62.16C211.38 61.04 212.5 58.66 211.38 56C210.4 53.34 208.3 52.36 205.64 53.48L203.68 54.46L207.32 62.72ZM211.52 72.94L212.78 72.38C214.6 71.68 215.44 71.12 216 69.86C216.56 68.74 216.56 67.34 216 66.08C214.88 63.14 212.5 62.3 209.42 63.56L207.74 64.26L211.52 72.94ZM229.72 59.36L228.46 66.5L231.4 67.2L231.54 68.18L223.84 70L223.7 69.02L226.08 67.34L231.4 44.1L233.08 43.82L245.12 63.84L247.92 64.54L248.06 65.52L238.12 66.92L237.98 65.94L240.36 64.26L236.86 57.96L229.72 59.36ZM230 57.68L235.88 56.56L231.82 49.14L230 57.68ZM252.96 63.42L253.1 44.38L250.16 43.12V42.14C255.62 42 260.52 42 260.52 42V42.98L257.58 44.24L257.3 63.7L262.76 63.84L265 59.64H266.4L265.84 65.66C265.84 65.66 257.02 65.24 249.74 65.52V64.54L252.96 63.42ZM292.3 69.3L295.24 65.24L296.78 65.66L294.96 71.12H294.4C291.18 70.98 289.36 70.84 287.26 70.28C280.4 68.46 277.46 63.14 279 56.14C280.68 48.86 285.86 45.36 294.54 47.46C296.64 47.88 298.74 49 301.26 50.4L299.72 56L298.18 55.72L297.76 50.68C297.76 50.68 296.92 50.26 295.94 49.98C288.38 48.02 284.74 51.66 283.48 57.4C282.08 63.28 284.6 67.76 289.78 69.3C290.9 69.02 291.46 69.16 292.3 69.3ZM336.12 88.2L352.22 80.92L357.54 86.24L356.84 86.94L353.76 85.96L340.6 99.54L342.14 102.48L341.44 103.18C337.94 99.68 334.44 96.32 334.44 96.32L335.14 95.48L338.08 96.46L348.72 85.26L330.94 93.1L330.24 92.54L335.56 73.78L325.9 85.96L327.3 88.76L326.6 89.46L319.88 84.7L320.58 84L323.66 84.98L335.7 70.42L334.3 67.62L335 66.92L341.16 71.4L336.12 88.2ZM355.72 105.28L349.7 109.76L350.4 112.84L349.7 113.4C346.76 109.34 343.4 105.28 343.4 105.28L344.24 104.72L346.9 106.26L361.74 94.64L361.04 91.7L361.88 91.14L368.04 99.12C370.14 101.92 370.7 103.6 370.84 105.56C370.84 107.52 370 109.2 368.32 110.46C364.82 112.98 360.48 111.72 357.26 107.38L355.72 105.28ZM357.68 105.28C358.8 106.82 359.64 107.38 360.62 107.66C362.16 107.94 363.84 107.8 365.24 106.68C366.64 105.7 367.48 104.44 367.62 103.18C367.76 101.92 367.48 100.94 366.5 99.68L365.1 98L356.84 104.44L357.68 105.28ZM365.1 121.24L357.96 121.8L358.1 124.74L357.26 125.16C355.44 121.8 353.34 118.3 353.34 118.3L354.18 117.74L356.42 119.7L380.22 118.3L381.06 120.26L365.1 137.06L365.24 140L364.4 140.42C362.44 135.66 360.62 131.32 360.62 131.32L361.46 130.9L363.7 132.72L368.46 127.68L365.1 121.24ZM366.92 121.1L369.58 126.42L375.6 120.54L366.92 121.1ZM370.42 155.54L375.6 156.1L376.02 157.64L370.42 158.76L370.14 158.34C368.46 155.54 367.76 153.86 367.2 151.9C365.24 144.9 368.32 140 375.32 137.62C382.6 135.24 388.62 138.88 390.58 146.58C391.14 148.68 391.42 151.2 391.42 154L385.82 155.4L385.4 153.86L389.46 151.06C389.46 150.5 389.32 149.66 389.18 148.96C387.36 142.52 382.6 140 376.58 141.96C370.7 143.92 368.04 147.84 369.58 153.3C369.72 154.14 370 154.7 370.42 155.54ZM392.26 172.06L373.08 173.46L372.1 177.38L371.12 177.52C370.98 171.22 370.14 165.48 370.14 165.48L371.12 165.34L372.66 169.12L391.84 167.72L391.42 162.82L386.52 161.42L386.38 160.02L392.96 159.46C392.96 159.46 394.5 169.82 394.5 180.04L387.92 180.6L387.78 179.2L392.4 177.1L392.26 172.06ZM303.22 63C306.44 56 312.88 53.48 319.74 57.12C326.18 60.34 327.58 66.36 324.36 72.24C320.86 78.68 314.28 81.34 307.98 78.12C302.1 75.18 300.28 69.3 303.22 63ZM307.7 64.26C305.04 70 305.88 74.9 309.24 76.58C312.46 78.26 316.8 75.88 319.88 70.56C322.68 65.38 322.4 60.48 318.34 58.38C314.14 56.14 310.36 58.66 307.7 64.26ZM307.56 196.84C307 196.42 306.86 194.04 306.86 194.04C305.32 182.14 302.38 170.1 297.76 158.34C297.48 157.64 297.34 157.22 297.34 156.8C297.34 156.24 297.62 155.68 299.02 154.98C305.04 152.18 309.94 148.68 313.58 145.04C314.14 144.48 314.56 144.2 314.84 144.2C315.12 144.2 315.4 144.48 315.96 145.32C321.42 154.7 325.48 165.2 328.28 176.26C328.56 177.52 328.7 178.5 328.7 179.2C328.7 180.74 328.14 181.86 326.74 183.26C323.1 186.9 316.66 192.08 309.94 196.14C309.66 196.14 307.98 197.12 307.56 196.84ZM301.68 210.56C301.68 210.56 301.68 208.46 300.98 208.04C300.28 207.62 298.6 208.32 298.6 208.32C286.84 212.52 273.96 214.62 260.52 215.04C258 215.18 258.14 215.74 258 217.84C257.86 229.74 257.58 240.94 257.3 251.16C257.3 251.16 257.16 252.14 257.58 252.56C257.86 252.84 258.98 252.84 258.98 252.84C272.42 252 285.16 249.06 296.78 244.3C298.46 243.6 298.74 242.48 299.3 240.52C302.52 227.64 301.68 210.56 301.68 210.56ZM296.5 149.52C301.82 146.72 306.72 143.36 309.8 140.14C310.5 139.44 310.78 138.88 310.78 138.18C310.78 137.48 310.5 136.78 309.8 135.66C302.66 125.72 294.12 117.88 284.88 112C282.22 113.82 278.02 115.5 273.68 116.48C281.24 125.72 287.96 136.22 293.42 148.12C293.98 149.24 294.26 149.94 294.68 150.08C295.24 150.22 295.94 149.8 296.5 149.52ZM287.26 153.44C287.96 153.16 288.38 153.02 288.66 152.46C288.8 151.9 288.38 150.64 288.38 150.64C283.2 137.9 276.9 126.28 270.18 117.32C266.54 118.02 259.54 118.44 257.02 118.44C257.44 131.32 257.72 144.06 257.86 156.38C257.86 157.5 258 158.06 258.42 158.34C258.7 158.62 259.26 158.76 259.82 158.76C268.22 158.62 280.26 156.1 287.26 153.44ZM296.36 249.9C296.36 249.62 296.08 249.62 296.08 249.62C295.8 249.62 295.38 249.76 294.4 250.04C279.7 254.66 266.96 255.78 258.7 255.92C257.58 255.92 257.3 256.34 257.16 257.6L256.46 268.52C256.46 268.52 272.98 268.94 289.92 261.8C292.3 258.72 294.26 255.08 295.94 251.02C296.08 250.6 296.22 250.32 296.36 249.9ZM330.66 189.56C330.66 189.28 330.38 189.56 330.38 189.56C326.46 193.48 319.32 198.8 310.92 203C308.26 204.4 307.98 205.38 307.84 207.76C307.98 221.34 306.3 231.7 303.36 240.52C303.36 240.52 303.08 241.22 303.92 240.8C304.76 240.38 316.94 234.5 325.34 225.96C328.14 223.16 330.38 218.96 330.8 214.48C332.62 199.64 330.66 189.56 330.66 189.56ZM334.86 172.2C340.46 162.54 340.46 154.56 340.46 154.56C340.46 154 340.46 153.58 340.32 153.3C337.8 142.24 331.92 131.74 323.1 122.08C323.24 123.06 323.24 123.9 323.24 124.88C323.24 128.24 322.54 131.74 320.86 135.38C320.3 136.64 320.02 137.48 320.02 138.18C320.02 138.88 320.3 139.3 320.72 140.14C320.86 139.86 329.82 152.04 334.86 172.2ZM207.04 199.64C207.88 185.92 211.66 171.5 216.84 157.78C216.98 157.5 216.98 157.22 216.98 157.08C216.98 156.66 216.7 156.38 216 156.1C207.32 152.32 200.74 147.14 196.4 141.54C196.4 141.54 196.12 141.26 196.4 140.98C196.68 140.7 196.96 140.98 196.96 140.98C201.86 145.74 209 149.66 217.26 152.74C217.68 152.88 217.82 152.88 218.1 152.88C218.52 152.88 218.8 152.6 219.36 151.48C224.96 138.6 232.24 126.42 240.5 116.34C233.5 114.66 226.36 110.88 224.68 106.82C224.68 106.82 224.4 106.4 224.82 106.12C225.24 105.98 225.52 106.4 225.52 106.4C233.22 114.8 255.76 114.24 255.76 114.24C265.14 114.24 284.6 111.02 284.6 103.04C284.6 95.9 274.24 92.12 255.48 91.84C198.64 91.84 168.12 141.12 168.12 180.18C168.12 227.36 208.16 268.52 254.5 268.52C254.5 267.82 253.94 257.46 253.94 257.46C253.94 256.34 253.66 255.92 252.26 255.78C252.26 255.78 232.1 254.24 225.52 250.88C225.24 250.74 225.38 250.46 225.8 250.46C225.8 250.46 239.38 252.84 252.4 252.84C252.4 252.84 253.8 252.98 253.8 251.3C253.8 249.9 253.24 217.84 253.24 217.84C253.1 215.46 252.82 215.04 250.44 214.9C236.44 214.2 222.72 211.26 210.82 206.22C210.54 206.08 210.4 206.08 210.12 206.08C209.84 206.22 209.84 206.78 209.84 206.78C208.72 221.62 210.4 236.04 210.4 236.04C210.4 236.32 210.4 236.46 210.12 236.46C209.84 236.46 209.84 236.18 209.84 236.18C207.74 228.2 206.62 219.52 206.62 210.28C206.62 209.58 206.76 205.8 206.76 205.8C206.76 204.82 206.34 204.12 205.5 203.7C199.9 200.9 194.86 197.4 190.38 193.9C190.38 193.9 190.1 193.62 190.38 193.34C190.66 193.2 190.8 193.34 190.8 193.34C195.42 196.28 200.74 198.8 206.2 201.04H206.9C206.9 200.9 206.9 200.48 207.04 199.64ZM316.1 130.48C317.64 126.56 317.92 121.1 316.24 117.18C314.7 113.54 309.8 109.76 309.8 109.76C302.24 103.88 293.84 100.24 289.92 98.7C290.62 99.96 291.04 101.22 291.04 102.48C291.04 104.72 289.92 106.96 287.96 109.34C297.9 115.08 306.16 121.94 313.44 130.34C313.44 130.34 314.56 131.74 315.26 131.74C315.68 131.6 316.1 130.48 316.1 130.48ZM337.52 195.58C337.52 201.6 336.96 207.62 335.84 213.22C340.74 204.82 344.66 192.5 344.66 178.22C344.66 174.16 344.38 170.1 343.68 165.9C342.84 170.1 341.44 174.3 339.06 178.22C337.52 180.88 336.82 182.7 337.1 184.52C337.38 190.4 337.52 195.58 337.52 195.58ZM299.44 250.74C297.9 253.96 296.08 257.04 294.12 259.84C304.62 254.66 316.52 244.44 324.64 233.94C318.34 238.98 311.2 243.32 303.08 246.68C301.54 247.52 300.14 249.34 299.44 250.74ZM253.24 166.6C253.24 164.78 252.4 163.8 250.72 163.66C240.36 163.24 230.42 161.28 221.6 158.2C221.18 158.06 220.9 157.92 220.62 157.92C220.34 157.92 220.06 158.06 219.92 158.76C211.8 179.2 210.12 201.32 210.12 201.32C209.98 202.3 210.26 202.58 210.96 202.86C210.96 202.86 228.18 209.44 250.3 209.44C250.3 209.44 251.84 209.44 252.26 209.02C252.82 208.46 252.96 208.04 252.82 206.22C253.1 195.44 253.24 166.6 253.24 166.6ZM222.44 152.6C221.88 153.72 222.16 154.14 222.16 154.14C222.3 154.42 222.72 154.56 222.72 154.56C229.3 156.8 242.04 158.9 251 158.9C251.98 158.9 252.54 158.76 252.96 158.34C253.38 157.92 253.52 157.22 253.66 156.1C253.94 143.78 254.22 130.9 254.92 118.44C251.14 118.3 246.38 117.74 243.16 117.04C234.76 127.54 227.9 139.44 222.44 152.6ZM260.1 209.3C266.26 209.02 282.08 207.9 298.04 201.74C300.28 200.9 300.7 199.92 300.7 198.24C300.7 197.82 300.7 197.4 300.56 196.84C299.02 184.66 296.08 172.48 292.02 160.3C291.46 158.76 291.18 158.48 290.76 158.48C290.48 158.48 290.06 158.62 289.5 158.76C280.68 161.7 271.02 163.38 260.8 163.66C258.84 163.8 258.28 165.06 258.28 166.46C258.28 172.76 258.42 182.7 258.42 196.14C258.42 199.5 258.42 204.12 258.42 207.34C258.42 207.34 258.42 208.32 258.84 208.88C258.84 209.3 259.4 209.44 260.1 209.3ZM125.42 240.38C132.14 258.3 148.8 259.84 160 270.76C162.1 272.86 164.2 274.82 166.58 276.08L166.72 275.94C164.06 273.14 161.12 270.06 159.3 266.42C152.72 255.64 155.1 240.38 150.06 228.76C154.54 235.06 158.6 241.64 161.26 248.92C165.32 260.68 166.86 273.98 176.1 282.8C166.02 278.88 154.26 279.72 145.3 272.58C136.06 265.16 127.24 253.54 125.42 240.38ZM218.94 291.9C220.34 291.9 221.46 291.48 221.46 291.48C212.78 289.52 205.36 287.98 197.94 281.68C188.14 273.42 180.58 265.16 169.66 258.44C171.06 259.28 177.22 272.02 182.4 279.58C186.04 284.9 191.78 287.84 196.96 289.1C201.3 290.22 202.28 290.64 202.28 290.64C202.28 290.64 201.58 291.06 199.9 290.64C199.9 290.64 185.48 287.7 177.64 287.7C146.56 287.7 138.44 275.8 138.44 275.8C147.68 292.46 166.72 298.76 179.18 298.76C197.1 298.62 210.4 291.9 218.94 291.9ZM333.32 298.62C345.78 298.62 364.82 292.46 374.06 275.66C374.06 275.66 365.94 287.56 334.86 287.56C327.02 287.56 312.6 290.5 312.6 290.5C310.92 290.92 310.22 290.5 310.22 290.5C310.22 290.5 311.2 290.08 315.54 288.96C320.58 287.7 326.46 284.76 330.1 279.44C335.28 271.88 341.44 259.14 342.84 258.3C331.92 265.02 324.36 273.42 314.56 281.54C307.14 287.7 299.72 289.38 291.04 291.34C291.04 291.34 292.16 291.76 293.56 291.76C302.24 291.9 315.54 298.62 333.32 298.62ZM139.84 248.78C142.92 251.44 149.22 257.18 150.34 258.86C150.34 258.86 149.64 256.48 148.94 253.54C148.24 250.6 147.26 243.46 144.32 237.3C142.08 232.4 132.56 216.72 130.74 208.04C130.74 208.04 123.88 235.2 139.84 248.78ZM336.4 282.8C346.48 278.88 358.1 279.72 367.06 272.58C376.44 265.16 385.4 253.54 387.22 240.38C380.5 258.3 363.84 259.7 352.5 270.62C350.4 272.72 348.3 274.68 345.92 275.94L345.78 275.8C348.3 273 351.38 269.92 353.2 266.28C359.78 255.5 357.4 240.24 362.44 228.62C357.96 234.92 353.9 241.5 351.24 248.78C347.18 260.68 345.64 273.84 336.4 282.8ZM311.62 302.4C296.08 296.1 279.98 288.12 261.36 291.9C259.26 292.32 257.58 292.74 255.62 292.74C253.8 292.74 252.12 292.32 250.02 291.9C231.26 288.12 215.16 296.1 199.62 302.4C188 306.6 172.88 305.9 162.66 299.46C167.7 305.34 174.42 308.98 181.42 311.5C194.3 316.26 209.7 313.04 220.34 306.04C229.58 301.28 237.42 291.76 249.46 295.26C237.14 300.58 225.94 308.14 215.72 317.8L222.02 322.7C222.02 322.7 233.92 306.6 255.48 296.94C276.9 306.6 288.94 322.7 288.94 322.7L295.38 317.8C285.16 308.14 273.96 300.72 261.64 295.26C273.68 291.62 281.66 301.14 290.76 306.04C301.54 313.04 316.8 316.26 329.82 311.5C336.82 308.98 343.54 305.34 348.58 299.46C338.36 306.04 323.24 306.74 311.62 302.4ZM372.8 248.78C388.76 235.2 382.04 208.04 382.04 208.04C380.22 216.72 370.7 232.54 368.46 237.3C365.52 243.46 364.54 250.6 363.84 253.54C363.14 256.48 362.44 258.86 362.44 258.86C363.42 257.18 369.72 251.44 372.8 248.78ZM120.8 171.64C125.56 172.06 130.18 172.48 134.94 172.9C138.72 173.18 140.68 171.78 140.96 168.14C141.1 166.46 140.96 165.2 140.26 164.08C139.42 162.68 138.16 161.98 135.5 161.7C131.02 161.14 126.4 160.72 121.92 160.16C121.36 161.14 120.94 162.12 120.38 163.1C120.1 163.1 119.68 163.1 119.4 162.96C119.68 160.02 120.1 157.08 120.38 154.14C120.66 154.14 121.08 154.28 121.36 154.28C121.64 155.4 121.92 156.38 122.2 157.5C126.54 158.06 130.88 158.48 135.22 159.04C138.44 159.46 140.4 160.58 141.66 162.82C142.64 164.64 143.06 166.74 142.78 169.4C142.22 175 139.28 177.94 134.52 177.52C129.76 177.1 125.14 176.82 120.38 176.4C119.82 177.38 119.4 178.36 118.98 179.34C118.7 179.34 118.28 179.34 118 179.2C118.28 175.56 118.56 172.06 118.84 168.42C119.12 168.42 119.54 168.42 119.82 168.56C120.24 169.68 120.52 170.66 120.8 171.64ZM128.36 143.92C133.4 145.6 138.58 147.28 143.62 148.96C144.32 148.26 145.02 147.42 145.72 146.72C146 146.86 146.28 146.86 146.7 147C145.86 149.52 145.02 152.04 144.18 154.56C143.9 154.42 143.48 154.42 143.2 154.28C143.06 153.16 143.06 152.18 142.92 151.06C136.9 149.1 130.88 147.14 124.86 145.18C124.16 146.02 123.46 146.86 122.76 147.7C122.62 147.7 122.2 147.7 121.92 147.56C122.62 145.32 123.32 143.08 124.16 140.7C130.46 138.46 136.76 136.22 143.06 134.12C138.86 132.58 134.52 131.04 130.32 129.64C129.62 130.34 128.92 131.18 128.22 132.02C127.94 131.88 127.66 131.88 127.24 131.74C128.08 129.08 129.06 126.42 130.04 123.9C130.32 124.04 130.6 124.18 130.88 124.18C130.88 125.3 130.88 126.42 131.02 127.54C137.74 129.92 144.46 132.44 151.18 134.82C151.04 135.38 150.76 135.94 150.62 136.5C143.2 138.74 135.78 141.26 128.36 143.92ZM161.54 102.76L166.86 106.54C165.6 109.76 164.62 111.72 163.36 113.54C159.02 119.56 153 120.82 146.98 116.48C140.96 112.28 139 106.12 144.18 98.84C145.3 97.16 147.12 95.48 149.36 93.38L149.78 92.96L154.4 96.32L153.42 97.72L148.8 96.74C148.1 97.16 147.68 97.58 147.26 98.14C142.78 103.74 144.18 108.92 149.64 112.84C154.54 116.34 159.72 115.5 162.94 111.02C163.5 110.18 163.64 109.62 163.64 109.62L159.02 106.4L156.22 108.08L155.38 107.52L161.4 99.26L162.24 99.82L161.54 102.76ZM171.2 100.24L157.76 86.66L154.82 87.78L154.12 87.08L161.54 79.8L162.24 80.5L160.98 83.44L174.56 97.3L178.76 93.1L177.36 88.48L178.34 87.36L182.12 91.98C182.12 91.98 176.24 97.58 170.5 103.6L169.8 102.9L171.2 100.24ZM177.78 81.48C173.44 75.18 174.42 68.46 181 64.26C187.02 60.48 192.9 62.16 196.4 67.9C200.18 74.2 199.2 81.06 193.18 84.98C187.72 88.62 181.7 87.08 177.78 81.48ZM181.28 78.26C184.92 83.44 189.54 85.12 192.76 83.16C195.84 81.2 195.98 76.3 192.76 70.84C189.68 65.8 185.34 63.56 181.56 66.08C177.36 68.6 177.64 73.22 181.28 78.26ZM207.18 74.34L199.62 56.7H196.54L196.12 55.86L206.76 51.38C209.28 50.4 210.82 50.26 212.5 50.82C214.04 51.38 215.02 52.36 215.58 53.76C216.7 56.7 215.16 59.64 211.38 61.6C216 59.92 219.08 60.9 220.48 64.26C221.18 66.08 220.9 68.04 219.92 69.58C218.94 71.12 217.4 72.1 214.46 73.36L205.36 77.42L204.94 76.58L207.18 74.34ZM207.32 62.72L208.72 62.16C211.38 61.04 212.5 58.66 211.38 56C210.4 53.34 208.3 52.36 205.64 53.48L203.68 54.46L207.32 62.72ZM211.52 72.94L212.78 72.38C214.6 71.68 215.44 71.12 216 69.86C216.56 68.74 216.56 67.34 216 66.08C214.88 63.14 212.5 62.3 209.42 63.56L207.74 64.26L211.52 72.94ZM229.72 59.36L228.46 66.5L231.4 67.2L231.54 68.18L223.84 70L223.7 69.02L226.08 67.34L231.4 44.1L233.08 43.82L245.12 63.84L247.92 64.54L248.06 65.52L238.12 66.92L237.98 65.94L240.36 64.26L236.86 57.96L229.72 59.36ZM230 57.68L235.88 56.56L231.82 49.14L230 57.68ZM252.96 63.42L253.1 44.38L250.16 43.12V42.14C255.62 42 260.52 42 260.52 42V42.98L257.58 44.24L257.3 63.7L262.76 63.84L265 59.64H266.4L265.84 65.66C265.84 65.66 257.02 65.24 249.74 65.52V64.54L252.96 63.42ZM292.3 69.3L295.24 65.24L296.78 65.66L294.96 71.12H294.4C291.18 70.98 289.36 70.84 287.26 70.28C280.4 68.46 277.46 63.14 279 56.14C280.68 48.86 285.86 45.36 294.54 47.46C296.64 47.88 298.74 49 301.26 50.4L299.72 56L298.18 55.72L297.76 50.68C297.76 50.68 296.92 50.26 295.94 49.98C288.38 48.02 284.74 51.66 283.48 57.4C282.08 63.28 284.6 67.76 289.78 69.3C290.9 69.02 291.46 69.16 292.3 69.3ZM336.12 88.2L352.22 80.92L357.54 86.24L356.84 86.94L353.76 85.96L340.6 99.54L342.14 102.48L341.44 103.18C337.94 99.68 334.44 96.32 334.44 96.32L335.14 95.48L338.08 96.46L348.72 85.26L330.94 93.1L330.24 92.54L335.56 73.78L325.9 85.96L327.3 88.76L326.6 89.46L319.88 84.7L320.58 84L323.66 84.98L335.7 70.42L334.3 67.62L335 66.92L341.16 71.4L336.12 88.2ZM355.72 105.28L349.7 109.76L350.4 112.84L349.7 113.4C346.76 109.34 343.4 105.28 343.4 105.28L344.24 104.72L346.9 106.26L361.74 94.64L361.04 91.7L361.88 91.14L368.04 99.12C370.14 101.92 370.7 103.6 370.84 105.56C370.84 107.52 370 109.2 368.32 110.46C364.82 112.98 360.48 111.72 357.26 107.38L355.72 105.28ZM357.68 105.28C358.8 106.82 359.64 107.38 360.62 107.66C362.16 107.94 363.84 107.8 365.24 106.68C366.64 105.7 367.48 104.44 367.62 103.18C367.76 101.92 367.48 100.94 366.5 99.68L365.1 98L356.84 104.44L357.68 105.28ZM365.1 121.24L357.96 121.8L358.1 124.74L357.26 125.16C355.44 121.8 353.34 118.3 353.34 118.3L354.18 117.74L356.42 119.7L380.22 118.3L381.06 120.26L365.1 137.06L365.24 140L364.4 140.42C362.44 135.66 360.62 131.32 360.62 131.32L361.46 130.9L363.7 132.72L368.46 127.68L365.1 121.24ZM366.92 121.1L369.58 126.42L375.6 120.54L366.92 121.1ZM370.42 155.54L375.6 156.1L376.02 157.64L370.42 158.76L370.14 158.34C368.46 155.54 367.76 153.86 367.2 151.9C365.24 144.9 368.32 140 375.32 137.62C382.6 135.24 388.62 138.88 390.58 146.58C391.14 148.68 391.42 151.2 391.42 154L385.82 155.4L385.4 153.86L389.46 151.06C389.46 150.5 389.32 149.66 389.18 148.96C387.36 142.52 382.6 140 376.58 141.96C370.7 143.92 368.04 147.84 369.58 153.3C369.72 154.14 370 154.7 370.42 155.54ZM392.26 172.06L373.08 173.46L372.1 177.38L371.12 177.52C370.98 171.22 370.14 165.48 370.14 165.48L371.12 165.34L372.66 169.12L391.84 167.72L391.42 162.82L386.52 161.42L386.38 160.02L392.96 159.46C392.96 159.46 394.5 169.82 394.5 180.04L387.92 180.6L387.78 179.2L392.4 177.1L392.26 172.06ZM303.22 63C306.44 56 312.88 53.48 319.74 57.12C326.18 60.34 327.58 66.36 324.36 72.24C320.86 78.68 314.28 81.34 307.98 78.12C302.1 75.18 300.28 69.3 303.22 63ZM307.7 64.26C305.04 70 305.88 74.9 309.24 76.58C312.46 78.26 316.8 75.88 319.88 70.56C322.68 65.38 322.4 60.48 318.34 58.38C314.14 56.14 310.36 58.66 307.7 64.26Z" fill="white"></path>
<path d="M180.966 354.599V393.7H175.756L156.071 363.542V393.7H150.888V354.599H156.071L175.836 384.838V354.599H180.966ZM201.457 394.237C199.433 394.237 197.598 393.897 195.951 393.217C194.322 392.519 192.917 391.543 191.735 390.29C190.571 389.036 189.676 387.55 189.049 385.832C188.423 384.113 188.109 382.233 188.109 380.192V379.064C188.109 376.701 188.458 374.597 189.157 372.753C189.855 370.891 190.804 369.315 192.003 368.026C193.203 366.737 194.564 365.762 196.085 365.099C197.607 364.437 199.183 364.105 200.812 364.105C202.889 364.105 204.679 364.464 206.183 365.18C207.705 365.896 208.949 366.898 209.916 368.188C210.883 369.459 211.599 370.963 212.064 372.699C212.53 374.418 212.763 376.298 212.763 378.339V380.568H191.063V376.513H207.794V376.137C207.723 374.848 207.454 373.594 206.989 372.377C206.541 371.16 205.825 370.157 204.84 369.369C203.856 368.581 202.513 368.188 200.812 368.188C199.684 368.188 198.646 368.429 197.697 368.913C196.748 369.378 195.933 370.076 195.253 371.007C194.573 371.938 194.044 373.075 193.668 374.418C193.292 375.761 193.104 377.309 193.104 379.064V380.192C193.104 381.57 193.292 382.868 193.668 384.086C194.062 385.285 194.626 386.342 195.36 387.255C196.112 388.168 197.016 388.884 198.073 389.403C199.147 389.923 200.364 390.182 201.725 390.182C203.48 390.182 204.966 389.824 206.183 389.108C207.401 388.392 208.466 387.434 209.379 386.234L212.387 388.625C211.76 389.573 210.963 390.478 209.997 391.337C209.03 392.196 207.839 392.895 206.425 393.432C205.028 393.969 203.372 394.237 201.457 394.237ZM230.729 364.643V368.456H215.019V364.643H230.729ZM220.336 357.58H225.304V386.503C225.304 387.488 225.456 388.231 225.761 388.732C226.065 389.233 226.459 389.564 226.942 389.726C227.426 389.887 227.945 389.967 228.5 389.967C228.912 389.967 229.341 389.931 229.789 389.86C230.255 389.77 230.604 389.699 230.836 389.645L230.863 393.7C230.469 393.826 229.95 393.942 229.306 394.049C228.679 394.175 227.918 394.237 227.023 394.237C225.806 394.237 224.687 393.996 223.666 393.512C222.646 393.029 221.831 392.223 221.222 391.095C220.631 389.949 220.336 388.41 220.336 386.476V357.58ZM243.915 388.544L251.381 364.643H254.657L254.013 369.396L246.413 393.7H243.217L243.915 388.544ZM238.893 364.643L245.258 388.812L245.714 393.7H242.357L233.925 364.643H238.893ZM261.801 388.625L267.87 364.643H272.812L264.379 393.7H261.049L261.801 388.625ZM255.382 364.643L262.687 388.141L263.52 393.7H260.351L252.536 369.342L251.891 364.643H255.382ZM276.598 379.494V378.876C276.598 376.781 276.903 374.839 277.511 373.048C278.12 371.24 278.997 369.674 280.143 368.349C281.289 367.006 282.676 365.967 284.306 365.233C285.935 364.481 287.761 364.105 289.784 364.105C291.825 364.105 293.66 364.481 295.29 365.233C296.937 365.967 298.333 367.006 299.479 368.349C300.643 369.674 301.529 371.24 302.138 373.048C302.746 374.839 303.051 376.781 303.051 378.876V379.494C303.051 381.588 302.746 383.531 302.138 385.321C301.529 387.112 300.643 388.678 299.479 390.021C298.333 391.346 296.946 392.384 295.316 393.136C293.705 393.87 291.879 394.237 289.838 394.237C287.797 394.237 285.962 393.87 284.333 393.136C282.703 392.384 281.307 391.346 280.143 390.021C278.997 388.678 278.12 387.112 277.511 385.321C276.903 383.531 276.598 381.588 276.598 379.494ZM281.566 378.876V379.494C281.566 380.944 281.736 382.313 282.077 383.603C282.417 384.874 282.927 386.002 283.607 386.986C284.306 387.971 285.174 388.75 286.212 389.323C287.251 389.878 288.459 390.155 289.838 390.155C291.199 390.155 292.389 389.878 293.41 389.323C294.448 388.75 295.307 387.971 295.988 386.986C296.668 386.002 297.178 384.874 297.519 383.603C297.877 382.313 298.056 380.944 298.056 379.494V378.876C298.056 377.444 297.877 376.092 297.519 374.821C297.178 373.532 296.659 372.395 295.961 371.41C295.281 370.408 294.421 369.62 293.383 369.047C292.362 368.474 291.163 368.188 289.784 368.188C288.424 368.188 287.224 368.474 286.186 369.047C285.165 369.62 284.306 370.408 283.607 371.41C282.927 372.395 282.417 373.532 282.077 374.821C281.736 376.092 281.566 377.444 281.566 378.876ZM314.25 369.208V393.7H309.281V364.643H314.115L314.25 369.208ZM323.327 364.481L323.3 369.101C322.888 369.011 322.494 368.957 322.118 368.939C321.76 368.904 321.348 368.886 320.883 368.886C319.737 368.886 318.725 369.065 317.848 369.423C316.971 369.781 316.228 370.282 315.619 370.927C315.01 371.571 314.527 372.341 314.169 373.236C313.829 374.114 313.605 375.08 313.498 376.137L312.101 376.942C312.101 375.188 312.271 373.541 312.611 372.001C312.969 370.461 313.515 369.101 314.25 367.919C314.984 366.719 315.915 365.788 317.042 365.126C318.188 364.446 319.549 364.105 321.125 364.105C321.483 364.105 321.894 364.15 322.36 364.24C322.825 364.311 323.148 364.392 323.327 364.481ZM332.914 352.45V393.7H327.919V352.45H332.914ZM350.666 364.643L337.99 378.205L330.9 385.563L330.497 380.272L335.573 374.203L344.596 364.643H350.666ZM346.127 393.7L335.761 379.843L338.339 375.412L351.981 393.7H346.127ZM130.639 439.412H120.729L120.675 435.249H129.672C131.158 435.249 132.456 434.998 133.566 434.497C134.676 433.996 135.535 433.28 136.144 432.349C136.771 431.4 137.084 430.272 137.084 428.965C137.084 427.533 136.806 426.369 136.251 425.474C135.714 424.561 134.882 423.898 133.754 423.486C132.644 423.057 131.229 422.842 129.511 422.842H121.884V457.7H116.701V418.599H129.511C131.516 418.599 133.306 418.805 134.882 419.216C136.457 419.61 137.791 420.237 138.883 421.096C139.993 421.938 140.835 423.012 141.408 424.319C141.981 425.626 142.267 427.192 142.267 429.019C142.267 430.63 141.855 432.089 141.032 433.396C140.208 434.685 139.062 435.741 137.594 436.565C136.144 437.389 134.443 437.917 132.492 438.149L130.639 439.412ZM130.397 457.7H118.688L121.615 453.484H130.397C132.044 453.484 133.441 453.197 134.586 452.625C135.75 452.052 136.636 451.246 137.245 450.208C137.854 449.151 138.158 447.907 138.158 446.475C138.158 445.024 137.899 443.771 137.379 442.715C136.86 441.659 136.046 440.844 134.936 440.271C133.826 439.698 132.393 439.412 130.639 439.412H123.253L123.307 435.249H133.405L134.506 436.753C136.386 436.914 137.979 437.451 139.286 438.364C140.593 439.259 141.587 440.405 142.267 441.802C142.965 443.198 143.314 444.738 143.314 446.421C143.314 448.856 142.777 450.915 141.703 452.598C140.647 454.263 139.152 455.534 137.218 456.411C135.285 457.271 133.011 457.7 130.397 457.7ZM167.35 452.732V437.773C167.35 436.628 167.117 435.634 166.652 434.792C166.204 433.933 165.524 433.271 164.611 432.805C163.698 432.34 162.57 432.107 161.227 432.107C159.974 432.107 158.873 432.322 157.924 432.751C156.993 433.181 156.259 433.745 155.722 434.443C155.202 435.142 154.943 435.894 154.943 436.699H149.975C149.975 435.661 150.243 434.631 150.78 433.611C151.317 432.59 152.087 431.668 153.09 430.845C154.11 430.003 155.328 429.341 156.742 428.857C158.174 428.356 159.768 428.105 161.522 428.105C163.635 428.105 165.497 428.464 167.108 429.18C168.738 429.896 170.009 430.979 170.922 432.429C171.853 433.861 172.318 435.661 172.318 437.827V451.362C172.318 452.329 172.399 453.359 172.56 454.451C172.739 455.543 172.999 456.483 173.339 457.271V457.7H168.156C167.905 457.127 167.708 456.366 167.565 455.417C167.422 454.451 167.35 453.556 167.35 452.732ZM168.209 440.083L168.263 443.574H163.241C161.827 443.574 160.565 443.691 159.455 443.923C158.345 444.138 157.414 444.469 156.662 444.917C155.91 445.365 155.337 445.929 154.943 446.609C154.549 447.271 154.352 448.05 154.352 448.945C154.352 449.858 154.558 450.691 154.97 451.443C155.382 452.195 155.999 452.795 156.823 453.242C157.664 453.672 158.694 453.887 159.911 453.887C161.433 453.887 162.776 453.564 163.939 452.92C165.103 452.275 166.025 451.488 166.706 450.557C167.404 449.626 167.78 448.722 167.833 447.844L169.955 450.234C169.83 450.986 169.49 451.819 168.935 452.732C168.38 453.645 167.637 454.522 166.706 455.364C165.792 456.187 164.7 456.877 163.429 457.432C162.176 457.969 160.762 458.237 159.186 458.237C157.217 458.237 155.489 457.852 154.003 457.083C152.535 456.313 151.389 455.283 150.565 453.994C149.76 452.687 149.357 451.228 149.357 449.617C149.357 448.059 149.661 446.689 150.27 445.508C150.879 444.308 151.756 443.315 152.902 442.527C154.048 441.721 155.426 441.112 157.038 440.701C158.649 440.289 160.448 440.083 162.436 440.083H168.209ZM185.102 434.846V457.7H180.133V428.643H184.833L185.102 434.846ZM183.92 442.07L181.852 441.99C181.87 440.002 182.165 438.167 182.738 436.484C183.311 434.784 184.117 433.306 185.155 432.053C186.194 430.8 187.429 429.833 188.861 429.153C190.312 428.455 191.914 428.105 193.668 428.105C195.101 428.105 196.39 428.302 197.536 428.696C198.681 429.072 199.657 429.681 200.463 430.522C201.286 431.364 201.913 432.456 202.343 433.799C202.772 435.124 202.987 436.744 202.987 438.66V457.7H197.992V438.606C197.992 437.084 197.768 435.867 197.321 434.954C196.873 434.023 196.22 433.351 195.36 432.939C194.501 432.51 193.445 432.295 192.191 432.295C190.956 432.295 189.828 432.555 188.808 433.074C187.805 433.593 186.937 434.309 186.203 435.222C185.486 436.135 184.923 437.183 184.511 438.364C184.117 439.528 183.92 440.763 183.92 442.07ZM229.359 428.643H233.871V457.083C233.871 459.643 233.352 461.827 232.313 463.635C231.275 465.444 229.825 466.813 227.963 467.744C226.119 468.693 223.988 469.167 221.571 469.167C220.569 469.167 219.387 469.006 218.026 468.684C216.684 468.38 215.359 467.852 214.052 467.1C212.763 466.366 211.68 465.372 210.802 464.119L213.407 461.165C214.625 462.633 215.896 463.653 217.221 464.226C218.563 464.799 219.888 465.085 221.195 465.085C222.771 465.085 224.132 464.79 225.277 464.199C226.423 463.608 227.309 462.731 227.936 461.567C228.581 460.422 228.903 459.007 228.903 457.324V435.034L229.359 428.643ZM209.352 443.494V442.93C209.352 440.71 209.612 438.695 210.131 436.887C210.668 435.061 211.429 433.494 212.414 432.188C213.416 430.881 214.625 429.878 216.039 429.18C217.453 428.464 219.047 428.105 220.819 428.105C222.646 428.105 224.239 428.428 225.6 429.072C226.978 429.699 228.142 430.621 229.091 431.838C230.058 433.038 230.819 434.488 231.374 436.189C231.929 437.89 232.313 439.814 232.528 441.963V444.434C232.331 446.564 231.946 448.48 231.374 450.181C230.819 451.882 230.058 453.332 229.091 454.531C228.142 455.731 226.978 456.653 225.6 457.297C224.221 457.924 222.61 458.237 220.766 458.237C219.029 458.237 217.453 457.87 216.039 457.136C214.643 456.402 213.443 455.373 212.44 454.048C211.438 452.723 210.668 451.165 210.131 449.375C209.612 447.567 209.352 445.606 209.352 443.494ZM214.32 442.93V443.494C214.32 444.944 214.464 446.305 214.75 447.576C215.054 448.847 215.511 449.966 216.12 450.933C216.746 451.899 217.543 452.66 218.51 453.215C219.477 453.752 220.631 454.021 221.974 454.021C223.621 454.021 224.982 453.672 226.056 452.974C227.13 452.275 227.981 451.353 228.607 450.208C229.252 449.062 229.753 447.817 230.111 446.475V440.002C229.914 439.018 229.61 438.069 229.198 437.156C228.804 436.225 228.285 435.401 227.641 434.685C227.014 433.951 226.235 433.369 225.304 432.939C224.373 432.51 223.281 432.295 222.028 432.295C220.667 432.295 219.494 432.581 218.51 433.154C217.543 433.709 216.746 434.479 216.12 435.464C215.511 436.431 215.054 437.559 214.75 438.848C214.464 440.119 214.32 441.479 214.32 442.93ZM246.815 416.45V457.7H241.82V416.45H246.815ZM271.925 452.732V437.773C271.925 436.628 271.693 435.634 271.227 434.792C270.779 433.933 270.099 433.271 269.186 432.805C268.273 432.34 267.145 432.107 265.802 432.107C264.549 432.107 263.448 432.322 262.499 432.751C261.568 433.181 260.834 433.745 260.297 434.443C259.778 435.142 259.518 435.894 259.518 436.699H254.55C254.55 435.661 254.818 434.631 255.355 433.611C255.893 432.59 256.662 431.668 257.665 430.845C258.686 430.003 259.903 429.341 261.317 428.857C262.75 428.356 264.343 428.105 266.098 428.105C268.21 428.105 270.072 428.464 271.684 429.18C273.313 429.896 274.584 430.979 275.497 432.429C276.428 433.861 276.894 435.661 276.894 437.827V451.362C276.894 452.329 276.974 453.359 277.135 454.451C277.314 455.543 277.574 456.483 277.914 457.271V457.7H272.731C272.48 457.127 272.283 456.366 272.14 455.417C271.997 454.451 271.925 453.556 271.925 452.732ZM272.785 440.083L272.838 443.574H267.816C266.402 443.574 265.14 443.691 264.03 443.923C262.92 444.138 261.989 444.469 261.237 444.917C260.485 445.365 259.912 445.929 259.518 446.609C259.124 447.271 258.927 448.05 258.927 448.945C258.927 449.858 259.133 450.691 259.545 451.443C259.957 452.195 260.574 452.795 261.398 453.242C262.239 453.672 263.269 453.887 264.486 453.887C266.008 453.887 267.351 453.564 268.515 452.92C269.678 452.275 270.6 451.488 271.281 450.557C271.979 449.626 272.355 448.722 272.409 447.844L274.53 450.234C274.405 450.986 274.065 451.819 273.51 452.732C272.955 453.645 272.212 454.522 271.281 455.364C270.368 456.187 269.276 456.877 268.004 457.432C266.751 457.969 265.337 458.237 263.761 458.237C261.792 458.237 260.064 457.852 258.578 457.083C257.11 456.313 255.964 455.283 255.141 453.994C254.335 452.687 253.932 451.228 253.932 449.617C253.932 448.059 254.236 446.689 254.845 445.508C255.454 444.308 256.331 443.315 257.477 442.527C258.623 441.721 260.001 441.112 261.613 440.701C263.224 440.289 265.023 440.083 267.011 440.083H272.785ZM303.024 452.061V416.45H308.019V457.7H303.454L303.024 452.061ZM283.473 443.494V442.93C283.473 440.71 283.742 438.695 284.279 436.887C284.834 435.061 285.613 433.494 286.615 432.188C287.636 430.881 288.844 429.878 290.241 429.18C291.655 428.464 293.231 428.105 294.967 428.105C296.793 428.105 298.387 428.428 299.748 429.072C301.126 429.699 302.29 430.621 303.239 431.838C304.206 433.038 304.966 434.488 305.521 436.189C306.076 437.89 306.461 439.814 306.676 441.963V444.434C306.479 446.564 306.094 448.48 305.521 450.181C304.966 451.882 304.206 453.332 303.239 454.531C302.29 455.731 301.126 456.653 299.748 457.297C298.369 457.924 296.758 458.237 294.914 458.237C293.213 458.237 291.655 457.87 290.241 457.136C288.844 456.402 287.636 455.373 286.615 454.048C285.613 452.723 284.834 451.165 284.279 449.375C283.742 447.567 283.473 445.606 283.473 443.494ZM288.468 442.93V443.494C288.468 444.944 288.611 446.305 288.898 447.576C289.202 448.847 289.668 449.966 290.294 450.933C290.921 451.899 291.718 452.66 292.685 453.215C293.651 453.752 294.806 454.021 296.149 454.021C297.796 454.021 299.148 453.672 300.204 452.974C301.278 452.275 302.138 451.353 302.782 450.208C303.427 449.062 303.928 447.817 304.286 446.475V440.002C304.071 439.018 303.758 438.069 303.346 437.156C302.952 436.225 302.433 435.401 301.789 434.685C301.162 433.951 300.383 433.369 299.452 432.939C298.539 432.51 297.456 432.295 296.203 432.295C294.842 432.295 293.669 432.581 292.685 433.154C291.718 433.709 290.921 434.479 290.294 435.464C289.668 436.431 289.202 437.559 288.898 438.848C288.611 440.119 288.468 441.479 288.468 442.93ZM327.812 458.237C325.788 458.237 323.953 457.897 322.306 457.217C320.677 456.519 319.271 455.543 318.09 454.29C316.926 453.036 316.031 451.55 315.404 449.832C314.778 448.113 314.464 446.233 314.464 444.192V443.064C314.464 440.701 314.813 438.597 315.512 436.753C316.21 434.891 317.159 433.315 318.358 432.026C319.558 430.737 320.919 429.762 322.44 429.099C323.962 428.437 325.538 428.105 327.167 428.105C329.244 428.105 331.034 428.464 332.538 429.18C334.06 429.896 335.304 430.898 336.271 432.188C337.238 433.459 337.954 434.963 338.419 436.699C338.885 438.418 339.118 440.298 339.118 442.339V444.568H317.418V440.513H334.149V440.137C334.078 438.848 333.809 437.594 333.344 436.377C332.896 435.16 332.18 434.157 331.195 433.369C330.211 432.581 328.868 432.188 327.167 432.188C326.039 432.188 325.001 432.429 324.052 432.913C323.103 433.378 322.288 434.076 321.608 435.007C320.928 435.938 320.399 437.075 320.023 438.418C319.647 439.761 319.459 441.309 319.459 443.064V444.192C319.459 445.57 319.647 446.868 320.023 448.086C320.417 449.285 320.981 450.342 321.715 451.255C322.467 452.168 323.371 452.884 324.428 453.403C325.502 453.923 326.719 454.182 328.08 454.182C329.835 454.182 331.321 453.824 332.538 453.108C333.756 452.392 334.821 451.434 335.734 450.234L338.742 452.625C338.115 453.573 337.318 454.478 336.352 455.337C335.385 456.196 334.194 456.895 332.78 457.432C331.383 457.969 329.727 458.237 327.812 458.237ZM361.837 449.993C361.837 449.277 361.676 448.614 361.354 448.005C361.05 447.379 360.414 446.815 359.447 446.313C358.498 445.794 357.066 445.347 355.15 444.971C353.539 444.631 352.08 444.228 350.773 443.762C349.484 443.297 348.383 442.733 347.47 442.07C346.575 441.408 345.885 440.629 345.402 439.734C344.918 438.839 344.677 437.791 344.677 436.592C344.677 435.446 344.927 434.363 345.429 433.342C345.948 432.322 346.673 431.418 347.604 430.63C348.553 429.842 349.69 429.224 351.015 428.777C352.34 428.329 353.817 428.105 355.446 428.105C357.773 428.105 359.761 428.517 361.408 429.341C363.055 430.164 364.317 431.265 365.194 432.644C366.072 434.005 366.51 435.518 366.51 437.183H361.542C361.542 436.377 361.3 435.598 360.817 434.846C360.351 434.076 359.662 433.441 358.749 432.939C357.854 432.438 356.753 432.188 355.446 432.188C354.067 432.188 352.948 432.402 352.089 432.832C351.247 433.244 350.63 433.772 350.236 434.417C349.86 435.061 349.672 435.741 349.672 436.458C349.672 436.995 349.761 437.478 349.94 437.908C350.137 438.319 350.478 438.704 350.961 439.062C351.444 439.403 352.125 439.725 353.002 440.029C353.879 440.334 354.998 440.638 356.359 440.942C358.74 441.479 360.701 442.124 362.24 442.876C363.78 443.628 364.926 444.55 365.678 445.642C366.43 446.734 366.806 448.059 366.806 449.617C366.806 450.888 366.537 452.052 366 453.108C365.481 454.164 364.72 455.077 363.717 455.847C362.733 456.599 361.551 457.19 360.172 457.62C358.812 458.031 357.281 458.237 355.58 458.237C353.02 458.237 350.854 457.781 349.081 456.868C347.309 455.955 345.966 454.773 345.053 453.323C344.14 451.873 343.683 450.342 343.683 448.73H348.678C348.75 450.091 349.144 451.174 349.86 451.98C350.576 452.768 351.453 453.332 352.492 453.672C353.53 453.994 354.56 454.155 355.58 454.155C356.941 454.155 358.078 453.976 358.991 453.618C359.922 453.26 360.629 452.768 361.112 452.141C361.596 451.514 361.837 450.798 361.837 449.993ZM378.3 416.45V457.7H373.332V416.45H378.3ZM377.118 442.07L375.05 441.99C375.068 440.002 375.364 438.167 375.937 436.484C376.509 434.784 377.315 433.306 378.354 432.053C379.392 430.8 380.627 429.833 382.06 429.153C383.51 428.455 385.112 428.105 386.867 428.105C388.299 428.105 389.588 428.302 390.734 428.696C391.88 429.072 392.855 429.681 393.661 430.522C394.485 431.364 395.111 432.456 395.541 433.799C395.971 435.124 396.186 436.744 396.186 438.66V457.7H391.19V438.606C391.19 437.084 390.967 435.867 390.519 434.954C390.071 434.023 389.418 433.351 388.559 432.939C387.699 432.51 386.643 432.295 385.39 432.295C384.154 432.295 383.026 432.555 382.006 433.074C381.003 433.593 380.135 434.309 379.401 435.222C378.685 436.135 378.121 437.183 377.709 438.364C377.315 439.528 377.118 440.763 377.118 442.07Z" fill="white"></path>
</svg><style>@media (prefers-color-scheme: light) { :root { filter: none; } }
@media (prefers-color-scheme: dark) { :root { filter: none; } }
</style></svg>